<svg width="65" height="53" viewBox="0 0 65 53" fill="none" xmlns="http://www.w3.org/2000/svg">
<g style="mix-blend-mode:multiply" opacity="0.68" clip-path="url(#clip0_54_32)">
<path d="M28.8611 34.5168V46.0001L19 40.2501V28.7668L28.8611 34.5168Z" fill="#0094FF" fill-opacity="0.6"/>
<path d="M39.7947 26.8389L33.9284 30.2643L29.9555 32.5833L20.1109 26.8389L29.9555 21.0945L39.7947 26.8389Z" fill="#0094FF" fill-opacity="0.6"/>
<path d="M40.9056 28.7668V40.2501L31.05 46.0001V34.5168L40.9056 28.7668Z" fill="#0094FF" fill-opacity="0.6"/>
<path d="M65 28.7612V40.2501L55.1444 46.0001V34.5168L65 28.7612Z" fill="#0094FF" fill-opacity="0.6"/>
<path d="M52.9555 34.5168V46.0001L43.0945 40.2501V28.7612L45.1138 29.9403L52.9555 34.5168Z" fill="#0094FF" fill-opacity="0.6"/>
<path d="M63.8891 26.8333L54.05 32.5833L51.4889 31.0857L44.2053 26.8333L54.05 21.0889L63.8891 26.8333Z" fill="#0094FF" fill-opacity="0.6"/>
<path d="M52.9555 7.67236V19.1556L43.0945 24.9056V13.4224L52.9555 7.67236Z" fill="#0094FF" fill-opacity="0.6"/>
<path d="M51.8446 5.74441L42 11.4888L32.1608 5.74441L42 0L51.8446 5.74441Z" fill="#0094FF" fill-opacity="0.6"/>
<path d="M40.9056 13.4224V24.9056L36.5223 22.3463H36.5168L31.05 19.1556V7.67236L40.9056 13.4224Z" fill="#0094FF" fill-opacity="0.6"/>
</g>
<g style="mix-blend-mode:multiply" opacity="0.68">
<circle cx="19" cy="34" r="19" fill="#52FFF7"/>
</g>
<defs>
<clipPath id="clip0_54_32">
<rect width="46" height="46" fill="white" transform="translate(19)"/>
</clipPath>
</defs>
</svg>
