<?xml version="1.0" standalone="no"?>
<!DOCTYPE svg PUBLIC "-//W3C//DTD SVG 20010904//EN"
 "http://www.w3.org/TR/2001/REC-SVG-20010904/DTD/svg10.dtd">
<svg version="1.0" xmlns="http://www.w3.org/2000/svg"
 width="225.000000pt" height="225.000000pt" viewBox="0 0 225.000000 225.000000"
 preserveAspectRatio="xMidYMid meet">

<g transform="translate(0.000000,225.000000) scale(0.100000,-0.100000)"
fill="#000000" stroke="none">
<path d="M957 2230 c-143 -45 -265 -197 -341 -424 -14 -43 -26 -84 -26 -91 0
-9 -50 -29 -130 -55 -82 -26 -133 -47 -138 -58 -5 -9 -12 -39 -15 -67 -3 -27
-42 -329 -87 -669 -44 -340 -79 -620 -77 -622 1 -2 268 -53 592 -114 325 -61
607 -114 628 -119 46 -11 44 -20 52 204 6 191 38 915 60 1400 8 176 15 330 15
343 0 24 -6 24 -57 5 -7 -3 -22 17 -36 49 -43 97 -126 168 -195 168 -17 0 -37
9 -48 21 -24 27 -75 49 -111 48 -15 0 -54 -8 -86 -19z m123 -70 c0 -5 -4 -10
-8 -10 -19 0 -97 -77 -129 -127 -38 -59 -59 -112 -77 -188 l-12 -50 -88 -29
c-48 -15 -89 -26 -92 -24 -7 8 33 116 74 197 43 88 134 190 195 220 44 22 137
29 137 11z m180 -72 c36 -25 98 -135 84 -148 -5 -4 -30 -14 -55 -23 l-46 -15
-11 87 c-6 47 -14 94 -17 104 -10 23 5 22 45 -5z m-111 -35 c5 -21 12 -68 15
-105 l6 -67 -87 -26 c-49 -14 -100 -30 -115 -35 -40 -13 -37 10 12 108 40 79
115 162 146 162 7 0 17 -17 23 -37z m-19 -583 c65 -19 65 -16 17 -151 -29 -82
-49 -123 -58 -122 -8 0 -43 9 -78 18 -104 28 -190 4 -210 -58 -17 -50 -1 -79
71 -134 107 -82 167 -143 195 -201 24 -48 27 -68 26 -142 -2 -192 -110 -324
-283 -345 -107 -13 -276 43 -344 114 l-25 26 30 98 30 98 32 -21 c140 -92 231
-101 262 -26 24 58 7 93 -97 187 -114 104 -138 150 -138 260 0 194 115 341
308 394 57 16 214 19 262 5z"/>
<path d="M1502 1443 c-23 -513 -44 -1008 -58 -1302 -4 -92 -3 -142 3 -138 5 4
155 37 332 76 178 38 325 71 327 74 4 4 -49 377 -121 847 -8 52 -37 253 -65
445 -28 193 -55 357 -59 365 -6 11 -34 17 -101 22 l-93 6 -66 66 c-37 36 -69
66 -72 66 -2 0 -15 -237 -27 -527z"/>
</g>
</svg>
