<svg width="375" height="707" viewBox="0 0 375 707" fill="none" xmlns="http://www.w3.org/2000/svg">
<g clip-path="url(#clip0_2_342)">
<g opacity="0.1">
<path d="M606.063 143.107C606.063 182.548 573.98 214.631 534.539 214.631L494.991 214.631C469.701 214.631 449.129 235.203 449.129 260.493L449.129 330.001L449.129 381.761C449.129 421.138 417.096 453.171 377.72 453.171L326.924 453.171C307.354 453.171 291.438 469.088 291.438 488.658C291.438 508.228 307.354 524.145 326.924 524.145L499.76 524.145L550.599 524.037L582.832 524.037C622.273 524.037 654.356 556.121 654.356 595.561C654.356 635.002 622.273 667.085 582.832 667.085L219.992 667.085C200.422 667.085 184.505 683.002 184.505 702.572L184.505 826L201.974 826L201.974 702.565C201.974 692.626 210.06 684.546 219.992 684.546L582.832 684.546C631.904 684.546 671.824 644.626 671.824 595.561C671.824 546.496 631.904 506.569 582.832 506.569L550.577 506.569L499.739 506.677L326.924 506.677C316.986 506.677 308.906 498.59 308.906 488.658C308.906 478.726 316.993 470.639 326.924 470.639L377.72 470.639C426.728 470.639 466.59 430.769 466.59 381.769L466.59 301.764L466.59 260.5C466.59 244.841 479.332 232.099 494.991 232.099L534.539 232.099C583.612 232.099 623.531 192.18 623.531 143.107" fill="url(#paint0_linear_2_342)"/>
<path d="M551.907 143C551.907 152.939 543.82 161.019 533.889 161.019L483.093 161.019C434.085 161.019 394.223 200.889 394.223 249.889L394.223 329.893L394.223 371.158C394.223 386.817 381.481 399.551 365.822 399.551L326.274 399.551C277.201 399.551 237.282 439.471 237.282 488.543C237.282 537.616 277.201 577.536 326.274 577.536L582.832 577.536C592.771 577.536 600.851 585.623 600.851 595.554C600.851 605.486 592.764 613.573 582.832 613.573L219.992 613.573C170.927 613.573 131 653.493 131 702.565L131 826L148.468 826L148.468 702.565C148.468 663.124 180.551 631.041 219.992 631.041L582.832 631.041C602.402 631.041 618.319 615.125 618.319 595.554C618.319 575.984 602.402 560.068 582.832 560.068L326.274 560.067C286.833 560.067 254.75 527.984 254.75 488.543C254.75 449.103 286.833 417.019 326.274 417.019L365.822 417.019C391.112 417.019 411.684 396.448 411.684 371.158L411.684 301.65L411.684 249.889C411.684 210.513 443.717 178.487 483.093 178.487L533.889 178.487C553.459 178.487 569.375 162.57 569.375 143" fill="url(#paint1_linear_2_342)"/>
</g>
</g>
<defs>
<linearGradient id="paint0_linear_2_342" x1="170.67" y1="330.573" x2="881.413" y2="799.58" gradientUnits="userSpaceOnUse">
<stop offset="0.13" stop-color="#00FEF3"/>
<stop offset="0.47" stop-color="#00C5F9"/>
<stop offset="0.72" stop-color="#00A1FD"/>
<stop offset="0.85" stop-color="#0094FF"/>
</linearGradient>
<linearGradient id="paint1_linear_2_342" x1="154.367" y1="355.284" x2="865.103" y2="824.284" gradientUnits="userSpaceOnUse">
<stop offset="0.1" stop-color="#00FFF3"/>
<stop offset="0.11" stop-color="#00FEF3"/>
<stop offset="0.53" stop-color="#00C5F9"/>
<stop offset="0.83" stop-color="#00A1FD"/>
<stop offset="1" stop-color="#0094FF"/>
</linearGradient>
<clipPath id="clip0_2_342">
<rect width="375" height="707" fill="white"/>
</clipPath>
</defs>
</svg>
