<svg width="1440" height="694" viewBox="0 0 1440 694" fill="none" xmlns="http://www.w3.org/2000/svg">
<g clip-path="url(#clip0_29_36)">
<g opacity="0.1">
<path d="M1558.41 -249.798C1558.41 -189.573 1509.42 -140.583 1449.19 -140.583L1388.8 -140.583C1350.19 -140.583 1318.78 -109.171 1318.78 -70.5528L1318.78 35.5836L1318.78 114.621C1318.78 174.748 1269.86 223.661 1209.73 223.661L1132.17 223.661C1102.29 223.661 1077.98 247.965 1077.98 277.849C1077.98 307.732 1102.29 332.036 1132.17 332.036L1396.09 332.036L1473.72 331.872L1522.94 331.872C1583.16 331.872 1632.15 380.863 1632.15 441.088C1632.15 501.313 1583.16 550.303 1522.94 550.303L968.889 550.303C939.005 550.303 914.701 574.607 914.701 604.49L914.701 792.961L941.375 792.961L941.375 604.479C941.375 589.303 953.723 576.965 968.889 576.965L1522.94 576.965C1597.87 576.965 1658.82 516.009 1658.82 441.088C1658.82 366.167 1597.87 305.199 1522.94 305.199L1473.68 305.199L1396.05 305.363L1132.17 305.363C1116.99 305.363 1104.66 293.014 1104.66 277.849C1104.66 262.683 1117.01 250.335 1132.17 250.335L1209.73 250.335C1284.57 250.335 1345.44 189.455 1345.44 114.632L1345.44 -7.53262L1345.44 -70.5419C1345.44 -94.4528 1364.89 -113.909 1388.8 -113.909L1449.19 -113.909C1524.13 -113.909 1585.08 -174.866 1585.08 -249.798" fill="url(#paint0_linear_29_36)"/>
<path d="M1475.71 -249.961C1475.71 -234.785 1463.37 -222.447 1448.2 -222.447L1370.64 -222.447C1295.8 -222.447 1234.93 -161.567 1234.93 -86.7443L1234.93 35.42L1234.93 98.4293C1234.93 122.34 1215.48 141.786 1191.57 141.786L1131.18 141.786C1056.25 141.786 995.289 202.742 995.289 277.674C995.289 352.606 1056.25 413.563 1131.18 413.563L1522.94 413.563C1538.11 413.563 1550.45 425.911 1550.45 441.077C1550.45 456.242 1538.1 468.591 1522.94 468.591L968.889 468.591C893.968 468.591 833 529.548 833 604.48L833 792.961L859.673 792.961L859.673 604.48C859.673 544.254 908.663 495.264 968.889 495.264L1522.94 495.264C1552.82 495.264 1577.12 470.96 1577.12 441.077C1577.12 411.194 1552.82 386.89 1522.94 386.89L1131.18 386.89C1070.95 386.89 1021.96 337.899 1021.96 277.674C1021.96 217.449 1070.95 168.459 1131.18 168.459L1191.57 168.459C1230.18 168.459 1261.6 137.047 1261.6 98.4293L1261.6 -7.70712L1261.6 -86.7443C1261.6 -146.871 1310.51 -195.774 1370.64 -195.774L1448.2 -195.774C1478.08 -195.774 1502.39 -220.078 1502.39 -249.961" fill="url(#paint1_linear_29_36)"/>
</g>
</g>
<defs>
<linearGradient id="paint0_linear_29_36" x1="893.575" y1="36.457" x2="1978.86" y2="752.618" gradientUnits="userSpaceOnUse">
<stop offset="0.13" stop-color="#00FEF3"/>
<stop offset="0.47" stop-color="#00C5F9"/>
<stop offset="0.72" stop-color="#00A1FD"/>
<stop offset="0.85" stop-color="#0094FF"/>
</linearGradient>
<linearGradient id="paint1_linear_29_36" x1="868.681" y1="74.1907" x2="1953.96" y2="790.341" gradientUnits="userSpaceOnUse">
<stop offset="0.1" stop-color="#00FFF3"/>
<stop offset="0.11" stop-color="#00FEF3"/>
<stop offset="0.53" stop-color="#00C5F9"/>
<stop offset="0.83" stop-color="#00A1FD"/>
<stop offset="1" stop-color="#0094FF"/>
</linearGradient>
<clipPath id="clip0_29_36">
<rect width="1440" height="694" fill="white"/>
</clipPath>
</defs>
</svg>
