<svg width="69" height="48" viewBox="0 0 69 48" fill="none" xmlns="http://www.w3.org/2000/svg">
<g clip-path="url(#clip0_2_167)">
<g style="mix-blend-mode:multiply" opacity="0.68">
<path d="M55.1959 27.7602C55.1959 34.9285 49.3831 40.7405 42.2138 40.7405H33.7413C33.7319 40.6399 33.7271 40.5381 33.7271 40.4352V29.3732L36.1832 32.8917C36.6921 33.6917 37.7527 33.9284 38.5493 33.4207C39.0606 33.0929 39.3423 32.5378 39.3423 31.9721C39.3423 31.6573 39.2547 31.3402 39.0748 31.0514L33.4596 22.812C33.1448 22.3209 32.5991 22.0191 32.0144 22.0191C31.4297 22.0191 30.8829 22.3209 30.5692 22.812L24.6818 31.1106C24.18 31.9035 24.4108 32.971 25.2073 33.4799C26.0039 33.9876 27.0645 33.7497 27.5734 32.9509L30.3005 29.2478V40.4352C30.3005 40.5381 30.3029 40.6399 30.3076 40.7405H13.184C9.59877 40.7405 6.35325 39.2872 4.00373 36.938C1.65422 34.59 0.201904 31.3449 0.201904 27.7602C0.201904 20.9812 5.39924 15.4201 12.0264 14.8342C12.0264 14.8153 12.0252 14.7976 12.0252 14.7798C12.0252 6.69195 18.5825 0.135498 26.6703 0.135498C31.9387 0.135498 36.5548 2.91785 39.1352 7.09196C40.4028 6.3369 41.8836 5.90257 43.4661 5.90257C48.1497 5.90257 51.948 9.70034 51.948 14.3845C51.948 15.7692 51.6142 17.0757 51.0248 18.2296C52.3066 19.4155 53.3494 20.8558 54.0714 22.4712C54.7946 24.0867 55.1959 25.8761 55.1959 27.7602Z" fill="#0094FF" fill-opacity="0.6"/>
</g>
<g style="mix-blend-mode:multiply" opacity="0.68">
<path d="M66.2294 25.0099H42.2454C41.0648 25.0099 40.1078 25.9668 40.1078 27.1472V45.1716C40.1078 46.352 41.0648 47.3089 42.2454 47.3089H66.2294C67.41 47.3089 68.367 46.352 68.367 45.1716V27.1472C68.367 25.9668 67.41 25.0099 66.2294 25.0099Z" fill="#00FFF3" fill-opacity="0.6"/>
</g>
</g>
<defs>
<clipPath id="clip0_2_167">
<rect width="68.1643" height="47.1733" fill="white" transform="translate(0.201904 0.135742)"/>
</clipPath>
</defs>
</svg>
