<svg width="207" height="45" viewBox="0 0 207 45" fill="none" xmlns="http://www.w3.org/2000/svg">
<g opacity="0.8" clip-path="url(#clip0_2_90)">
<path d="M187.456 44.8512C183.03 44.8512 178.605 44.8638 174.179 44.8461C171.36 44.8335 168.736 42.3688 168.51 39.6014C168.455 38.9354 168.574 38.5797 169.366 38.663C170.053 38.7361 170.754 38.6857 171.449 38.6781C172.314 38.6655 173.164 38.4738 173.433 39.7629C173.586 40.4995 174.461 40.5651 175.189 40.5626C179.724 40.555 184.259 40.5601 188.796 40.5601C192.526 40.5601 196.256 40.5676 199.986 40.555C201.39 40.55 202.07 39.9243 202.057 38.7185C202.044 37.5933 201.334 36.9778 200.022 36.9778C193.257 36.9753 186.489 36.9778 179.724 36.9778C178.077 36.9778 176.433 37.0005 174.786 36.9728C171.198 36.9097 168.607 34.2583 168.62 30.6963C168.632 27.0762 171.274 24.4223 174.91 24.4173C183.396 24.4072 191.881 24.4072 200.367 24.4173C203.356 24.4198 205.828 26.1428 206.569 28.6958C206.67 29.0414 206.701 29.4072 206.754 29.7654C206.853 30.4188 206.688 30.772 205.902 30.6988C205.105 30.6231 204.293 30.6559 203.488 30.6862C202.742 30.7165 202.148 30.7669 201.958 29.7326C201.824 28.996 201.017 28.837 200.26 28.8421C197.482 28.8597 194.701 28.8572 191.922 28.8471C186.474 28.827 181.026 28.7916 175.578 28.7765C173.915 28.7715 173.337 29.2911 173.327 30.7266C173.319 32.0056 173.86 32.5706 175.189 32.5833C177.42 32.6034 179.65 32.5908 181.883 32.5908C188.065 32.5908 194.246 32.5656 200.425 32.5984C203.019 32.6135 205.044 33.7361 206.117 36.1378C207.122 38.388 206.952 40.6282 205.386 42.606C204.224 44.0742 202.671 44.8688 200.732 44.8613C196.307 44.8436 191.881 44.8562 187.456 44.8562V44.8512Z" fill="white"/>
<path d="M63.2748 38.1408C58.8112 38.1408 54.3502 38.1635 49.8866 38.1206C49.0542 38.113 48.836 38.3426 48.869 39.1574C48.9401 40.8274 48.8741 42.5025 48.902 44.1725C48.9096 44.6771 48.7929 44.8789 48.2448 44.8587C47.113 44.8184 45.9762 44.8234 44.8444 44.8587C44.3369 44.8739 44.2481 44.6746 44.2506 44.2255C44.2658 39.4626 44.1872 34.6973 44.2963 29.9369C44.3648 26.9223 47.212 24.4248 50.4499 24.4147C58.9736 24.3844 67.4948 24.3744 76.0185 24.4273C79.7614 24.45 82.3548 27.061 82.4005 30.7795C82.4538 35.2144 82.4081 39.6519 82.4233 44.0868C82.4233 44.6014 82.3776 44.894 81.7331 44.8638C80.6394 44.8108 79.5381 44.8209 78.4419 44.8587C77.9039 44.8764 77.7643 44.6998 77.7745 44.1776C77.8075 42.505 77.744 40.8325 77.8049 39.1599C77.8354 38.3476 77.5968 38.1105 76.7671 38.118C72.2679 38.1584 67.7688 38.1382 63.2697 38.1382L63.2748 38.1408ZM63.2596 33.5318H75.5414C77.0758 33.5318 77.8244 32.7514 77.7872 31.1907C77.7466 29.5711 77.2137 29.0515 75.582 29.0515C67.8323 29.0515 60.0851 29.0515 52.3353 29.0565C48.8741 29.0565 48.902 29.0565 48.8741 32.5277C48.8665 33.3249 49.0441 33.5646 49.884 33.557C54.3425 33.5116 58.8036 33.5368 63.2621 33.5343L63.2596 33.5318Z" fill="white"/>
<path d="M27.5331 38.2265C31.7785 40.3809 36.0263 42.5353 40.5889 44.8512C39.6449 44.8512 38.9877 44.7805 38.3508 44.8638C34.0267 45.4213 30.1899 44.2659 26.5637 41.9248C24.4271 40.5449 22.0722 39.503 19.8214 38.2997C19.3951 38.0727 18.9739 37.9314 18.4714 37.9314C14.594 37.9491 10.7166 37.9667 6.8392 37.9263C6.02464 37.9188 5.88 38.1988 5.90284 38.9279C5.95613 40.5979 5.87493 42.273 5.9409 43.943C5.97135 44.7326 5.70998 44.9193 4.96901 44.8663C4.0225 44.8007 3.06583 44.8133 2.11678 44.8638C1.4494 44.8991 1.18803 44.7679 1.19057 44.0061C1.22863 37.8254 1.21848 31.6448 1.20326 25.4642C1.20326 24.836 1.24132 24.5106 2.05334 24.5157C11.856 24.5661 21.6586 24.5611 31.4613 24.6014C32.9939 24.6065 34.5241 24.8007 36.0162 25.1842C37.96 25.6837 39.079 27.0131 39.1425 29.001C39.1983 30.7089 39.1831 32.4193 39.1476 34.1272C39.1171 35.5601 38.2746 36.5767 36.6734 37.1014C34.4581 37.8254 32.1489 37.886 29.8448 37.9415C29.0861 37.9591 28.3299 37.944 27.5712 37.944L27.5306 38.2291L27.5331 38.2265ZM19.5397 28.9102V28.8421C15.302 28.8421 11.0617 28.8597 6.82398 28.8244C6.09062 28.8169 5.86478 29.0187 5.90791 29.7376C5.96374 30.7139 5.96882 31.7028 5.89776 32.6766C5.8394 33.4763 6.06524 33.721 6.90772 33.7185C14.4342 33.6806 21.9631 33.7033 29.4896 33.6806C30.7279 33.6781 31.9688 33.5646 33.2071 33.4738C33.9049 33.4208 34.4734 33.1357 34.7017 32.4067C35.3717 30.2674 34.5926 29.1145 32.3646 28.9556C32.0373 28.9329 31.7074 28.9152 31.3801 28.9152C27.4341 28.9127 23.4882 28.9152 19.5448 28.9152L19.5397 28.9102Z" fill="white"/>
<path d="M104.985 44.8512C100.668 44.8512 96.3495 44.8512 92.0331 44.8512C88.8129 44.8512 86.1942 42.5076 85.9912 39.2937C85.8008 36.2815 85.811 33.2568 85.981 30.2472C86.1688 26.9223 88.7114 24.4576 92.0712 24.4349C100.704 24.3744 109.339 24.3668 117.972 24.4299C121.474 24.4551 124.1 27.2982 124.078 30.7089C124.072 31.3396 123.976 31.6322 123.253 31.5843C122.233 31.5187 121.205 31.5464 120.18 31.5742C119.649 31.5893 119.406 31.4834 119.393 30.8653C119.365 29.5484 118.83 29.0641 117.482 29.0616C109.141 29.0515 100.8 29.0515 92.4569 29.0565C91.1856 29.0565 90.5842 29.6519 90.5715 30.9385C90.5486 33.4485 90.5512 35.9561 90.5715 38.4662C90.5816 39.7578 91.1551 40.2952 92.4721 40.2952C100.813 40.3002 109.154 40.3002 117.498 40.2952C118.868 40.2952 119.487 39.7376 119.386 38.383C119.309 37.3386 119.677 37.051 120.649 37.167C121.225 37.2351 121.819 37.1796 122.403 37.1796C123.533 37.1813 124.089 37.7287 124.072 38.8219C124.019 42.2805 121.395 44.8562 117.932 44.8562C113.615 44.8562 109.296 44.8562 104.98 44.8562L104.985 44.8512Z" fill="white"/>
<path d="M166.14 24.6493C161.36 27.8708 156.579 31.0898 151.648 34.4122C156.779 37.891 161.809 41.3017 167.044 44.8512C164.43 44.8512 162.065 44.8461 159.7 44.8562C159.297 44.8562 159.017 44.6342 158.718 44.4324C155.069 41.9501 151.415 39.4778 147.778 36.9803C147.271 36.6322 146.769 36.4834 146.154 36.4859C141.838 36.5035 137.524 36.5111 133.208 36.4733C132.431 36.4657 132.228 36.6675 132.261 37.442C132.35 39.6544 132.322 41.8718 132.388 44.0868C132.406 44.6998 132.241 44.9142 131.609 44.8663C130.31 44.7679 128.998 44.9849 127.701 44.7503C127.683 43.5192 127.65 42.2881 127.648 41.057C127.643 35.8956 127.673 30.7341 127.62 25.5727C127.61 24.6342 127.892 24.4021 128.767 24.4728C129.675 24.5459 130.602 24.556 131.508 24.4677C132.299 24.3895 132.398 24.7074 132.383 25.3784C132.342 27.3032 132.401 29.2331 132.353 31.1579C132.335 31.8794 132.561 32.0661 133.271 32.0611C137.659 32.0308 142.049 32.0434 146.436 32.051C146.928 32.051 147.347 31.9349 147.766 31.6599C151.217 29.4097 154.691 27.1922 158.137 24.9369C158.715 24.5585 159.289 24.3946 159.977 24.4046C162.009 24.4349 164.039 24.4147 166.072 24.4147L166.143 24.6569L166.14 24.6493Z" fill="white"/>
<path d="M84.461 0.0933495C88.5567 0.0933495 92.6498 0.0933495 96.7454 0.0933495C99.6027 0.0933495 101.775 2.09638 101.866 4.92685C101.94 7.25026 101.935 9.57872 101.869 11.9021C101.793 14.6039 99.8209 16.66 97.1134 16.8239C95.365 16.9299 93.6064 16.8365 91.853 16.8365C85.1614 16.834 78.4724 16.8138 71.7808 16.8492C70.8444 16.8542 70.5298 16.6524 70.5399 15.6559C70.5932 10.7871 70.578 5.91575 70.5399 1.04693C70.5348 0.274984 70.748 0.0655997 71.5169 0.0706451C75.8307 0.105963 80.1446 0.088304 84.4585 0.088304L84.461 0.0933495ZM85.8059 3.88497V3.87488C82.332 3.87488 78.8555 3.89506 75.3816 3.85975C74.6127 3.85218 74.3716 4.09184 74.3843 4.85369C74.4249 7.25278 74.43 9.65188 74.3843 12.051C74.3691 12.8305 74.6355 13.0399 75.3867 13.0373C82.299 13.0146 89.2139 13.0222 96.1262 13.0172C97.5117 13.0172 97.9913 12.5732 98.0142 11.2033C98.0421 9.38699 98.0294 7.56812 98.0193 5.74925C98.0116 4.28104 97.6031 3.88497 96.1212 3.88497C92.6828 3.88497 89.2443 3.88497 85.8059 3.88497Z" fill="#999999"/>
<path d="M190.887 0.0908163C194.434 0.0908163 197.982 0.0832482 201.527 0.0908163C204.44 0.0983844 206.574 2.20232 206.592 5.11352C206.615 8.67558 206.571 12.2376 206.617 15.7997C206.627 16.6726 206.341 16.8946 205.496 16.8996C202.704 16.9173 202.704 16.95 202.707 14.1852C202.707 14.0388 202.707 13.8951 202.707 13.7487C202.712 12.1628 201.897 11.3707 200.263 11.3724C193.681 11.3724 187.098 11.3925 180.518 11.3496C179.498 11.3421 179.166 11.6498 179.229 12.6463C179.303 13.8042 179.224 14.9722 179.244 16.1352C179.255 16.7003 179.029 16.8668 178.468 16.8971C175.326 17.0585 175.326 17.0737 175.326 13.9909C175.326 11.1201 175.42 8.2442 175.296 5.3784C175.182 2.75227 177.549 -0.0882957 180.577 0.0529757C184.007 0.214429 187.448 0.0908163 190.887 0.0882936V0.0908163ZM190.932 7.49495C194.513 7.49495 198.096 7.5 201.676 7.48739C202.017 7.48739 202.575 7.67154 202.646 7.24773C202.796 6.36478 202.928 5.42886 202.527 4.57114C202.169 3.80676 201.415 3.86983 200.712 3.87235C197.167 3.8774 193.622 3.8774 190.077 3.8774C187.08 3.8774 184.084 3.87235 181.087 3.87487C179.556 3.87487 179.232 4.20535 179.204 5.73915C179.201 5.92079 179.229 6.10494 179.204 6.28406C179.074 7.21241 179.404 7.53784 180.404 7.52018C183.911 7.45711 187.42 7.49495 190.927 7.49495H190.932Z" fill="#999999"/>
<path d="M51.3837 0.0908067C54.8957 0.0908067 58.4077 0.0908067 61.9197 0.0908067C64.7263 0.0908067 66.8655 2.12663 66.9137 4.91422C66.9568 7.31331 66.9568 9.71492 66.9137 12.1115C66.8705 14.4147 64.8278 16.612 62.5135 16.7936C61.095 16.9046 59.6638 16.8416 58.2377 16.8416C52.5688 16.8416 46.8948 16.7331 41.2284 16.8668C38.1046 16.9399 35.4021 14.5106 35.6508 11.284C35.8081 9.223 35.7422 7.13924 35.6635 5.07063C35.5671 2.47729 38.0869 -0.0857826 40.7386 0.0479208C44.2785 0.227033 47.8337 0.0908067 51.3812 0.0933294L51.3837 0.0908067ZM51.2645 12.9541V12.944C54.6623 12.944 58.0601 12.949 61.4604 12.9415C62.5998 12.9389 62.9982 12.5782 63.0185 11.4556C63.0515 9.45761 63.054 7.45963 63.0236 5.46417C63.0058 4.24822 62.6252 3.88748 61.4427 3.88243C54.7562 3.85468 48.0697 3.83198 41.3832 3.81936C40.018 3.81684 39.5257 4.30625 39.513 5.64832C39.4978 7.49999 39.5003 9.35418 39.513 11.2058C39.5206 12.5631 39.9114 12.9516 41.2918 12.9541C44.616 12.9616 47.9428 12.9566 51.267 12.9566L51.2645 12.9541Z" fill="#999999"/>
<path d="M16.4389 0.0908271C19.8773 0.0908271 23.3259 0.239667 26.7516 0.040373C29.2029 -0.100898 32.0399 1.96015 32.05 5.09839C32.0627 8.73361 32.0475 12.3714 32.0703 16.0066C32.0754 16.6272 31.8344 16.8113 31.238 16.8466C28.1473 17.0333 28.1473 17.0459 28.1498 14.0212C28.1498 11.2942 28.16 8.56711 28.1549 5.84007C28.1549 4.31888 27.7336 3.84713 26.2212 3.81938C24.1379 3.78154 22.0495 3.78659 19.9661 3.81938C18.7811 3.83704 18.3522 4.30879 18.3497 5.51464C18.337 8.93291 18.3218 12.3512 18.3599 15.7694C18.37 16.5691 18.1391 16.8416 17.3144 16.8542C14.4444 16.8971 14.4444 16.9248 14.4444 14.1196C14.4444 11.4279 14.4444 8.73866 14.4292 6.04693C14.419 4.12968 14.0561 3.79668 12.0794 3.80425C10.1762 3.81182 8.27555 3.81182 6.37237 3.81434C5.11373 3.81434 4.58338 4.31636 4.57831 5.60798C4.56308 8.95309 4.54532 12.2982 4.58846 15.6433C4.60114 16.5086 4.40829 16.8542 3.45924 16.8542C0.782099 16.8491 0.782099 16.8895 0.782099 14.2583C0.782099 11.2033 0.771949 8.14834 0.782099 5.09587C0.789712 2.10395 2.80962 0.0908271 5.79126 0.0908271C9.33879 0.0908271 12.8888 0.0908271 16.4364 0.0908271H16.4389Z" fill="#999999"/>
<path d="M121.04 16.892C117.749 16.892 114.453 16.7962 111.164 16.9173C107.791 17.0409 105.307 14.281 105.467 11.2715C105.642 7.93644 105.553 4.58124 105.48 1.23866C105.457 0.229575 105.784 -0.0403546 106.71 0.0807352C107.177 0.14128 107.67 0.151371 108.134 0.0807352C109.271 -0.0958541 109.459 0.4768 109.443 1.443C109.395 4.6771 109.41 7.91373 109.408 11.1504C109.408 12.6438 109.756 12.9919 111.306 12.997C117.853 13.0096 124.402 13.0146 130.949 13.0146C132.449 13.0146 132.891 12.5908 132.901 11.0545C132.921 7.78255 132.936 4.50808 132.885 1.23866C132.873 0.35571 133.073 -0.0378319 134.027 0.0807352C134.89 0.186689 136.007 -0.262353 136.57 0.259847C137.144 0.792138 136.732 1.90717 136.74 2.76489C136.768 5.81989 136.765 8.87236 136.745 11.9274C136.727 14.4702 134.9 16.6549 132.337 16.7659C128.579 16.9274 124.806 16.8063 121.04 16.8063V16.892Z" fill="#999999"/>
<path d="M158.053 16.8819C153.996 16.8819 149.938 16.8971 145.88 16.8769C142.508 16.8592 140.414 14.7553 140.414 11.4253C140.414 8.00958 140.432 4.59383 140.402 1.18061C140.394 0.365781 140.595 0.0554884 141.501 0.0706247C144.289 0.116033 144.294 0.0731473 144.302 2.82794C144.31 5.4793 144.302 8.13319 144.307 10.7845C144.307 12.7321 144.574 13.0146 146.507 13.0146C154.366 13.0146 162.225 13.0146 170.084 13.0071C171.718 13.0071 171.718 12.997 171.726 14.5585C171.732 16.1125 170.941 16.8903 169.353 16.892C165.587 16.892 161.824 16.892 158.058 16.892V16.887L158.053 16.8819Z" fill="#999999"/>
</g>
<defs>
<clipPath id="clip0_2_90">
<rect width="206" height="45" fill="white" transform="translate(0.776978)"/>
</clipPath>
</defs>
</svg>
