<svg width="153" height="33" viewBox="0 0 153 33" fill="none" xmlns="http://www.w3.org/2000/svg">
<g opacity="0.8" clip-path="url(#clip0_2_82)">
<path d="M87.4774 21.8302C87.4774 28.6434 83.2438 33 77.3071 33C73.4871 33 71.0028 31.0073 69.8062 28.3187H69.7602C69.7602 29.1991 69.5299 31.331 69.2084 32.7217H64.9749V0H70.5892V14.2285C71.8318 12.1893 74.0407 10.5668 77.6304 10.5668C83.2447 10.5668 87.4783 14.7842 87.4783 21.8293L87.4774 21.8302ZM81.7709 21.8302C81.7709 17.8447 79.6541 15.2954 76.2026 15.2954C72.5208 15.2954 70.5883 18.4932 70.5883 21.1817V22.4332C70.5883 25.2609 72.5669 28.2733 76.3869 28.2733C79.6541 28.2733 81.7709 25.7239 81.7709 21.8312V21.8302Z" fill="white"/>
<path d="M94.794 7.3689C92.7233 7.3689 91.1122 5.88547 91.1122 3.79995C91.1122 1.71443 92.7233 0.231003 94.794 0.231003C96.8647 0.231003 98.4758 1.76082 98.4758 3.79995C98.4758 5.83908 96.8186 7.3689 94.794 7.3689ZM91.9412 10.8451L97.5556 10.6595V32.7217H91.9412V10.846V10.8451Z" fill="white"/>
<path d="M119.321 31.4702C119.321 31.4702 117.066 33 113.108 33C107.448 33 104.686 29.9413 104.686 23.8694V15.2026H101.327V10.846H104.824V4.58851L110.3 4.35658V10.846H118.17V15.2026H110.3V23.6847C110.3 26.7898 111.451 28.2269 114.028 28.2269C116.375 28.2269 117.71 27.0218 117.71 27.0218L119.321 31.4711V31.4702Z" fill="white"/>
<path d="M143.205 32.6289C143.205 32.6289 141.963 32.9536 140.444 32.9536C137.636 32.9536 136.072 31.8413 135.704 29.4774C135.06 30.7289 133.218 33 128.57 33C123.922 33 121.207 30.5898 121.207 26.9745C121.207 21.7375 126.499 20.2076 135.059 20.0685H135.427V19.0025C135.427 16.5459 133.954 14.9243 131.056 14.9243C128.386 14.9243 126.914 15.9902 126.914 17.7984C126.914 18.1694 127.006 18.4468 127.098 18.6788L122.128 19.5128C122.128 19.5128 121.852 18.6324 121.852 17.4737C121.852 13.349 125.395 10.5677 131.24 10.5677C137.453 10.5677 140.904 13.8119 140.904 19.1426V26.8362C140.904 27.9486 141.273 28.3196 142.193 28.3196C142.469 28.3196 142.746 28.2733 142.975 28.2269L143.205 32.6298V32.6289ZM135.428 25.0281V23.1745H135.06C129.169 23.2673 126.684 24.1941 126.684 26.3724C126.684 27.8558 127.88 28.6898 130.043 28.6898C133.449 28.6898 135.427 26.8817 135.427 25.0281H135.428Z" fill="white"/>
<path d="M147.208 0H152.776V32.7217H147.208V0Z" fill="white"/>
<path d="M27.6061 12.0038C27.514 12.2357 27.3758 14.414 27.3758 15.7583L27.3629 20.64H33.0823V2.13191H27.0074L19.1381 19.6056C18.356 21.3664 17.2976 23.9158 17.1134 24.6579H16.9752C16.7449 23.9167 15.7787 21.3673 14.9966 19.6056L7.0352 2.13191H0.776978V32.7217H6.52949L6.43738 15.7583C6.43738 14.414 6.29921 12.2357 6.25315 12.0038L6.43738 11.911C6.48344 12.143 6.80584 13.5336 7.40366 14.7842L15.3651 32.8599H18.5863L26.3635 14.9697C26.7319 14.1821 27.2837 12.3276 27.3758 11.911L27.6061 12.0038Z" fill="white"/>
<path d="M49.2814 10.5677C42.8887 10.5677 38.4829 14.6914 37.9661 20.64H43.6947C44.1018 17.3911 46.1937 15.2026 49.2814 15.2026C52.7329 15.2026 54.9418 17.9375 54.9418 21.8302C54.9418 25.723 52.7329 28.3651 49.2814 28.3651V33C56.1384 33 60.6483 28.4115 60.6483 21.8302C60.6483 15.249 56.1384 10.5677 49.2814 10.5677Z" fill="white"/>
</g>
<defs>
<clipPath id="clip0_2_82">
<rect width="152" height="33" fill="white" transform="translate(0.776978)"/>
</clipPath>
</defs>
</svg>
