<svg width="114" height="70" viewBox="0 0 114 70" fill="none" xmlns="http://www.w3.org/2000/svg">
<g opacity="0.8" clip-path="url(#clip0_2_102)">
<path d="M0.776949 23.0879C1.89975 20.5887 3.7711 19.6964 6.55449 19.8197C11.2528 20.0301 15.9693 19.8777 20.6749 19.8777H22.6408C20.4024 14.7088 18.2731 9.7974 16.1438 4.88238C15.6895 3.83771 15.2172 2.80393 14.7702 1.75563C14.3233 0.710964 14.4432 9.38569e-06 15.8204 9.38569e-06C22.8224 0.00726402 29.8245 -0.0253819 36.823 0.0580465C37.3862 0.0653011 38.2256 0.700082 38.4618 1.24781C40.9145 6.96446 43.2582 12.7283 45.671 18.4631C45.9181 19.0507 46.4159 19.5368 46.8301 20.1171C47.3279 19.0108 47.5678 18.2744 47.9602 17.636C51.2232 12.3438 54.5044 7.0624 57.822 1.80279C58.1745 1.24418 58.7958 0.856057 59.29 0.39176C59.617 0.924976 60.0022 1.4328 60.2602 2.00229C62.2551 6.40223 64.2391 10.8094 66.2012 15.2275C66.7063 16.3628 67.1169 17.5417 67.7783 19.2284C68.5304 17.0774 69.1627 15.3871 69.715 13.6714C71.0268 9.57976 72.2586 5.46275 73.6357 1.3929C73.8283 0.823411 74.6568 0.0761831 75.1982 0.0689284C81.8369 -0.0217545 88.4757 0.0108913 95.1144 0.0254006C95.3869 0.0254006 95.6594 0.177748 96.2081 0.33735C93.6973 6.81937 91.23 13.1926 88.6428 19.8777C89.5149 19.8777 90.1363 19.8777 90.7576 19.8777C96.8549 19.8777 102.949 19.8777 109.046 19.8777C112.167 19.8777 113.77 21.5064 113.773 24.673C113.777 30.2047 113.777 35.7364 113.773 41.2716C113.773 44.714 112.185 46.2701 108.683 46.2737C99.2059 46.2737 89.7293 46.3245 80.2527 46.2302C78.5703 46.2121 77.9707 46.9303 77.4366 48.3086C74.6241 55.556 71.7353 62.7744 68.872 70H68.5086C68.0617 69.2891 67.5021 68.6253 67.186 67.8635C64.3735 61.0296 61.6155 54.174 58.7994 47.3438C58.6105 46.8831 58.0727 46.5639 57.7384 46.2229C57.3423 47.5215 57.2079 48.6061 56.7065 49.4839C54.3046 53.6916 51.8046 57.8449 49.3446 62.0163C48.0983 64.131 46.8992 66.2784 45.6056 68.3641C44.8934 69.5139 44.0358 69.5321 43.5998 68.5164C40.7038 61.7769 37.775 55.0518 34.9662 48.276C34.3594 46.8069 33.6908 46.2012 31.9902 46.2229C23.4329 46.3318 14.872 46.1867 6.31467 46.3209C3.72386 46.3608 1.92882 45.5628 0.773315 43.2921V23.0879H0.776949ZM57.1134 43.5641C74.1953 43.5641 91.2809 43.5641 108.363 43.5641C110.568 43.5641 111.182 43.0128 111.193 40.8509C111.219 35.6783 111.219 30.5058 111.193 25.3332C111.182 23.2076 110.623 22.6889 108.519 22.6889C74.3516 22.6889 40.1878 22.6889 6.02034 22.6889C3.93461 22.6889 3.37503 23.2185 3.36776 25.355C3.34232 30.4659 3.34232 35.5804 3.36776 40.6913C3.37866 43.0164 3.96005 43.5605 6.22746 43.5641C23.1894 43.5641 40.1514 43.5641 57.1134 43.5641ZM18.2186 2.56815C18.2985 2.98892 18.3022 3.23558 18.393 3.44233C20.6568 8.65842 22.8879 13.889 25.257 19.0579C25.5041 19.5984 26.5615 20.0518 27.2519 20.0663C32.012 20.1534 36.7758 20.1171 41.5359 20.1026C41.9828 20.1026 42.4261 19.9902 43.0911 19.9031C40.682 14.2118 38.3709 8.71283 35.9909 3.24283C35.8419 2.89824 35.1515 2.6008 34.7082 2.59717C29.2868 2.55364 23.8617 2.56815 18.2186 2.56815ZM70.4381 19.8523C70.8705 19.9648 71.143 20.0954 71.4192 20.0954C75.6997 20.1099 79.9801 20.1461 84.257 20.0555C84.7621 20.0446 85.4961 19.4062 85.7104 18.8911C87.2766 15.1404 88.7482 11.3535 90.2271 7.5666C90.8012 6.09753 91.3136 4.60308 91.9204 2.93451C86.6734 2.93451 81.7388 2.90912 76.8007 2.97804C76.3828 2.98529 75.7396 3.52939 75.5979 3.95379C73.8465 9.20614 72.1677 14.4803 70.4345 19.856L70.4381 19.8523ZM37.0665 46.1504C39.6827 52.15 42.1972 57.9247 44.8316 63.9714C46.1688 61.7116 47.357 59.7129 48.538 57.7107C50.3657 54.6166 52.2116 51.5297 54.003 48.4138C54.7988 47.0318 54.4499 46.1794 53.0655 46.1649C47.8294 46.1214 42.5896 46.1468 37.0628 46.1468L37.0665 46.1504ZM58.8176 4.95493C55.8671 9.73211 53.0728 14.1828 50.373 18.6916C49.6353 19.9212 50.6564 20.099 51.5866 20.1062C54.0575 20.1207 56.532 20.1135 59.0029 20.1135C60.8997 20.1135 62.8001 20.1135 65.0203 20.1135C62.8982 14.9337 60.9288 10.1166 58.8176 4.95855V4.95493ZM61.3975 46.2447C63.7812 51.9396 66.0632 57.3878 68.5159 63.2459C70.8305 57.2899 72.9453 51.8489 75.1219 46.2447H61.3939H61.3975Z" fill="white"/>
<path d="M74.7005 36.81C74.5987 34.1814 73.2458 32.7813 70.6417 32.6096C70.4091 32.5951 70.1802 32.5117 69.8423 32.4391V29.0512C71.2667 29.0512 72.582 29.102 73.8902 29.0185C74.2608 28.9968 74.6096 28.5942 74.9694 28.3656C74.606 28.1552 74.2499 27.778 73.8829 27.7671C71.8335 27.7091 69.7805 27.7018 67.7275 27.749C66.0124 27.7889 64.9986 28.8589 64.8823 30.6182C64.7805 32.1671 65.7544 33.4221 67.3241 33.6905C67.9673 33.7994 68.6322 33.7994 69.3989 33.8538V37.0494C65.8706 36.3893 66.0923 40.0565 64.3481 41.5183L63.8976 41.21C64.5952 40.0601 65.2929 38.9066 66.1577 37.4775C64.8205 37.7386 63.6614 37.9635 62.5022 38.1884L62.1607 37.8511C62.6657 37.3505 63.1745 36.8499 63.7777 36.2514C63.7667 36.2405 63.6577 36.0374 63.487 35.925C60.5836 34.017 60.4274 31.438 61.1396 28.6195C61.8845 25.6814 64.0792 24.3683 67.4658 24.3647C69.9404 24.3611 72.4149 24.4191 74.8894 24.3466C76.7208 24.2922 78.2651 24.6222 79.0282 26.5084C79.7913 28.3946 79.0681 29.773 77.9344 30.4876C78.2651 32.4899 78.5449 34.1875 78.8719 36.1644C79.3334 34.844 79.784 33.6905 80.1401 32.508C80.7396 30.5275 80.9213 28.1552 84.2607 29.1237C83.7156 27.4262 83.2832 26.0768 82.8508 24.7311C85.954 23.7335 86.6662 24.0926 87.5818 27.009C88.4757 29.8528 89.3805 32.6966 90.5724 35.5078V29.2072H99.2859V32.5334H94.762V37.122C91.6625 37.122 88.8427 37.122 86.023 37.122C83.0579 37.122 82.5637 37.4702 81.5463 40.7711C82.0187 40.3902 82.4802 39.9948 82.9634 39.6285C83.4685 39.2476 83.9918 38.8921 84.8929 38.2464C84.9583 39.3129 85.2781 40.2088 84.9692 40.5534C84.6059 40.9633 83.7084 41.0032 83.0361 41.0177C81.9351 41.0431 80.8268 40.8545 79.7222 40.8763C78.6612 40.8944 77.6038 41.1374 76.55 41.1193C76.2848 41.1157 76.034 40.4772 75.7724 40.129L75.7361 39.701L77.7019 38.4713C77.324 39.4181 77.1387 39.886 76.8516 40.6115L79.8276 38.3009C80.042 39.1859 80.1546 39.6502 80.2963 40.2378C80.925 39.1642 81.4773 38.2211 82.0986 37.1655C79.5078 37.0277 77.0696 36.9007 74.6351 36.7738L74.6823 36.81H74.7005ZM85.9285 33.6651C85.4961 32.4427 85.1109 31.3654 84.5768 29.8528L83.5158 33.6651H85.9285Z" fill="white"/>
<path d="M42.0555 24.0129C45.8854 23.9077 48.8069 26.5157 48.7814 30.8758C48.756 34.9964 45.8091 37.5935 42.0228 37.6588C38.4291 37.7205 35.3623 34.4595 35.395 30.727C35.4277 26.7261 38.1384 23.9947 42.0555 24.0129ZM39.4393 30.5239C39.4102 32.4282 40.5657 34.1149 41.9501 34.1766C43.3963 34.2419 44.5991 32.7003 44.6427 30.727C44.6863 28.7647 43.6979 27.4334 42.1609 27.3863C40.5802 27.3355 39.4683 28.6159 39.4393 30.5275V30.5239Z" fill="white"/>
<path d="M28.2984 24.0128C32.0702 24.002 35.3187 27.136 35.3405 30.8032C35.3623 34.5974 32.2918 37.6516 28.4401 37.6697C24.8174 37.6878 21.8523 34.5611 21.8632 30.7415C21.8705 26.795 24.5194 24.0274 28.3021 24.0165L28.2984 24.0128ZM31.1509 30.4804C31.1073 28.6413 29.9227 27.3065 28.4002 27.3826C26.8341 27.4588 25.7294 28.8372 25.7912 30.6436C25.853 32.5189 27.1066 34.173 28.4692 34.173C29.9045 34.173 31.1981 32.392 31.1545 30.4804H31.1509Z" fill="white"/>
<path d="M49.312 27.7599V24.4953C51.6412 24.4953 53.9449 24.216 56.1506 24.5642C59.072 25.0249 60.8889 28.1226 60.5255 31.3001C60.1694 34.4015 57.6258 36.8536 54.6971 36.8898C52.9602 36.9116 51.2233 36.8935 49.3556 36.8935V29.1782H53.2145V33.3605C55.0641 33.5672 56.1215 32.7366 56.2995 31.1152C56.5067 29.2652 55.5946 27.934 53.8359 27.7853C52.4115 27.6619 50.9653 27.7599 49.3083 27.7599H49.312Z" fill="white"/>
<path d="M15.2499 24.2958L17.0013 28.4926C17.7026 25.6052 18.5747 23.2366 22.1648 24.6984L17.0849 37.5609C16.369 36.041 15.824 34.9093 15.3044 33.7631C14.9592 33.0013 14.763 32.1489 14.3088 31.4597C12.6046 28.8662 12.997 26.552 15.2499 24.2958Z" fill="white"/>
<path d="M90.6886 27.622V24.5025H107.952V27.622H90.6886Z" fill="white"/>
<path d="M100.612 29.1382H103.839C103.991 30.4006 103.763 31.9131 104.406 32.7801C104.962 33.5309 106.51 33.5527 108.047 34.0279C107.865 34.8331 107.959 36.4219 107.284 36.8826C106.477 37.4303 105.005 37.0132 103.919 37.0132C103.098 38.5112 102.305 39.9622 101.513 41.4131L101.07 41.21L102.927 37.7277L102.516 37.3614C101.884 37.9599 101.252 38.5548 100.627 39.1424C99.8309 38.2755 99.9109 38.1013 101.917 36.6613C100.267 35.0363 100.005 33.6107 100.609 29.1382H100.612Z" fill="white"/>
<path d="M12.1468 37.4194C10.2318 33.0376 8.41862 28.8807 6.59814 24.7057C9.91206 23.788 10.4607 24.0528 11.6998 27.0235C12.2558 28.3511 12.6773 29.7694 13.4367 30.9737C14.9919 33.433 13.9854 35.2975 12.1468 37.4194Z" fill="white"/>
<path d="M92.1312 40.4918C91.9531 40.7674 91.7533 41.297 91.6007 41.2825C90.6305 41.2027 89.6748 40.927 88.7083 40.8835C88.2613 40.8617 87.7308 41.1374 87.3565 41.4312C86.8151 41.8593 86.3827 42.4288 85.5797 42.7189L86.4118 41.4058C86.0629 41.0141 85.4343 40.3902 85.4779 40.3394C86.0593 39.6647 86.7315 39.0699 87.6363 38.2138C87.9343 39.2041 88.0905 39.73 88.4539 40.9452L89.4786 38.475C89.6966 38.6672 89.9146 38.8558 90.1327 39.0481L89.395 40.4083L89.6094 40.6768C90.6159 39.944 91.6225 39.2113 92.6326 38.4786L93.0905 39.0553C92.6181 39.4834 92.1457 39.9114 91.6806 40.3467C91.6588 40.3684 91.6951 40.5063 91.7097 40.5063C91.8514 40.5135 91.9895 40.5063 92.1312 40.499V40.4918Z" fill="white"/>
<path d="M108.221 41.0504H103.159C102.698 38.591 104.864 39.4942 106.052 38.6708C105.812 39.3891 105.659 39.8461 105.416 40.5752C106.521 39.7881 107.425 39.1424 108.334 38.4931C108.465 38.689 108.595 38.8849 108.726 39.0807C108.152 39.4362 107.578 39.7917 106.655 40.3612C107.342 40.5643 107.781 40.6949 108.221 40.8218V41.0467V41.0504Z" fill="white"/>
<path d="M75.747 39.7046L75.7833 40.1326C75.2455 41.5981 73.9083 40.742 72.9745 41.0467C72.5566 41.1846 71.997 40.8835 71.4738 40.7783C71.4738 39.2149 72.8327 37.4883 74.6968 36.81L74.6496 36.7737C74.1191 37.579 73.5886 38.3806 73.058 39.1859H73.6649C73.7339 39.5922 73.8029 40.0021 73.912 40.6622C74.3807 40.0927 74.7223 39.6502 75.1147 39.2585C75.1438 39.2294 75.5253 39.5486 75.747 39.7082V39.7046Z" fill="white"/>
<path d="M92.1312 40.499C93.1086 39.9622 94.0861 39.4253 95.3215 38.7506C95.1907 39.5124 95.0526 40.3213 94.9109 41.1265C94.2678 41.0068 93.621 40.9016 92.9814 40.7674C92.6908 40.7058 92.411 40.5897 92.1275 40.4954V40.5026L92.1312 40.499Z" fill="white"/>
<path d="M68.1017 40.7457L66.6446 41.0504C66.5828 40.6731 66.3394 40.1254 66.4992 39.9513C67.008 39.3927 67.6729 38.9719 68.2761 38.4967L68.7303 39.0807C68.2216 39.5378 67.7165 39.9984 67.0988 40.5534L68.138 40.7856L68.1017 40.7457Z" fill="white"/>
<path d="M68.1381 40.7856C68.9738 40.0129 69.8132 39.2367 70.6489 38.4641L71.154 39.0735C70.6417 39.4362 70.1293 39.7953 69.4752 40.2596L70.4345 40.9706L70.3546 41.297C69.6061 41.1157 68.8539 40.9343 68.1053 40.7493L68.1381 40.7892V40.7856Z" fill="white"/>
</g>
<defs>
<clipPath id="clip0_2_102">
<rect width="113" height="70" fill="white" transform="translate(0.776978)"/>
</clipPath>
</defs>
</svg>
