<svg width="82" height="81" viewBox="0 0 82 81" fill="none" xmlns="http://www.w3.org/2000/svg">
<g opacity="0.8" clip-path="url(#clip0_2_16)">
<path d="M81.7769 40.7884C81.4583 64.0862 62.0355 82.2076 38.9355 80.9346C18.2191 79.7924 -0.0291409 62.321 0.803813 38.854C1.57535 17.1445 20.0385 -1.38065 43.9562 0.0807539C64.0546 1.30756 81.7194 17.9752 81.7808 40.7884H81.7769ZM41.3153 79.4078C62.2774 79.5424 80.0074 62.1018 80.2185 41.3422C80.445 19.002 62.7725 2.35746 42.8277 1.54215C21.2784 0.661468 2.12042 18.0521 2.32002 40.8846C2.50811 62.5056 20.384 79.6463 41.3192 79.4078H41.3153Z" fill="white"/>
<path d="M61.9242 24.7284C54.9535 31.7893 48.1747 38.654 41.3345 45.5803C36.4942 40.7384 31.6385 36.1658 27.1935 31.2278C26.161 30.0818 26.5179 27.6782 26.2339 25.8668C29.5043 25.1592 31.8918 25.5783 33.9454 28.0281C36.1142 30.6125 38.6668 32.8777 41.1733 35.3966C48.0941 28.3435 54.9228 21.3787 61.7055 14.464C77.3512 26.5436 78.6064 49.9606 64.8185 63.8209C63.1871 62.2133 61.5557 60.6058 59.7977 58.8752C65.2522 53.0296 67.8778 46.0879 67.1907 38.0618C66.7799 33.2507 65.091 28.8665 61.9242 24.7284Z" fill="white"/>
<path d="M22.8023 58.9175C21.0634 60.5827 19.4513 62.1249 17.8353 63.6747C5.20275 52.5489 3.66736 28.155 20.3495 14.8101L25.1975 19.8981C19.5127 24.6246 15.8431 30.8278 15.3172 38.6656C14.7952 46.4456 17.3862 53.1065 22.8023 58.9175Z" fill="white"/>
</g>
<defs>
<clipPath id="clip0_2_16">
<rect width="81" height="81" fill="white" transform="translate(0.776978)"/>
</clipPath>
</defs>
</svg>
