<svg width="222" height="85" viewBox="0 0 222 85" fill="none" xmlns="http://www.w3.org/2000/svg">
<path d="M3.9502 16.0813C3.97383 15.8926 4.009 15.7055 4.05551 15.521C4.009 15.7055 3.97383 15.8926 3.9502 16.0813Z" fill="url(#paint0_linear_205_32)"/>
<path d="M3.87012 16.7585C3.87012 16.5718 3.87012 16.3733 3.87012 16.1865C3.90522 16.3733 3.88182 16.5718 3.87012 16.7585Z" fill="url(#paint1_linear_205_32)"/>
<path d="M3.90332 18.1256C3.9095 18.0879 3.9095 18.0494 3.90332 18.0117C3.9095 18.0494 3.9095 18.0879 3.90332 18.1256Z" fill="url(#paint2_linear_205_32)"/>
<path d="M4.0791 15.4493C4.1189 15.2636 4.1697 15.0804 4.23122 14.9006C4.1697 15.0804 4.1189 15.2636 4.0791 15.4493Z" fill="url(#paint3_linear_205_32)"/>
<path d="M5.07715 13.157L5.42819 12.6667L5.07715 13.157Z" fill="url(#paint4_linear_205_32)"/>
<path d="M3.85839 17.4742C3.84668 17.2677 3.84668 17.0607 3.85839 16.8542C3.84668 17.0607 3.84668 17.2677 3.85839 17.4742Z" fill="url(#paint5_linear_205_32)"/>
<path d="M4.49023 14.2444C4.56254 14.0687 4.64458 13.8973 4.73596 13.7307C4.64458 13.8973 4.56254 14.0687 4.49023 14.2444V14.2444Z" fill="url(#paint6_linear_205_32)"/>
<path d="M4.25586 14.8644C4.31387 14.6809 4.38424 14.5015 4.46648 14.3274C4.38424 14.5015 4.31387 14.6809 4.25586 14.8644V14.8644Z" fill="url(#paint7_linear_205_32)"/>
<path d="M4.77051 13.6599L5.07475 13.158L4.77051 13.6599Z" fill="url(#paint8_linear_205_32)"/>
<g clip-path="url(#clip0_205_32)" filter="url(#filter0_d_205_32)">
<path d="M47.7519 14.9068C42.4396 14.5697 37.4338 12.5705 33.5103 9.19572C30.9484 6.99176 27.674 5.7774 24.2891 5.7774H9.60869C6.73862 5.7774 4.41064 3.45019 4.41064 0.581055H24.2872C28.916 0.581055 33.3961 2.24128 36.8989 5.25722C39.9086 7.84724 43.7541 9.39871 47.8552 9.70502C48.5895 4.55399 53.0315 0.581055 58.3837 0.581055H70.4986C74.4112 0.581055 77.7218 3.64413 77.8342 7.55362C77.9521 11.6154 74.6831 14.9557 70.6472 14.9557H52.9445L47.7465 14.9068H47.7519ZM58.3873 5.7774C55.8925 5.7774 53.9272 7.46662 53.289 9.7594H70.6509C71.7496 9.7594 72.6416 8.86585 72.6416 7.76749C72.6416 6.66914 71.7496 5.7774 70.6527 5.7774H58.3855H58.3873Z" fill="url(#paint9_linear_205_32)"/>
<path d="M45.566 71.3419C44.48 71.2694 43.6605 70.3179 43.6605 69.2286V22.7061C43.6605 21.2543 42.4711 20.0817 41.0134 20.1089C39.5829 20.1342 38.4624 21.3631 38.4624 22.7931V69.3011C38.4624 71.9817 39.9274 74.327 42.0994 75.5776C42.1067 75.5776 47.7525 74.1005 47.7525 69.3011C47.7525 70.4756 46.7572 71.4217 45.566 71.3419V71.3419Z" fill="url(#paint10_linear_205_32)"/>
<path d="M34.2453 19.3982C33.7395 14.0024 29.1833 9.76489 23.6552 9.76489H11.8286C9.46078 9.76489 7.34857 10.8814 5.98877 12.6141C5.98877 12.6358 6.30787 19.1625 11.5531 19.3873C10.458 19.2477 9.60945 18.3143 9.60945 17.1797C9.60945 15.9545 10.603 14.9612 11.8286 14.9612H23.6552C26.3132 14.9612 28.5306 16.877 29.002 19.3982L29.0745 24.5945H29.0926V76.5435C31.9627 76.5435 34.2907 74.2163 34.2907 71.3471V24.5945L34.2435 19.3982H34.2453Z" fill="url(#paint11_linear_205_32)"/>
<path d="M29.0762 24.5947L29.0943 25.9215V24.5947H29.0762Z" fill="url(#paint12_linear_205_32)"/>
<path d="M72.6007 19.3981H11.8287C6.30607 19.3981 5.98878 12.614 5.98878 12.614C4.95715 13.9281 4.36065 15.5973 4.41505 17.4044C4.53471 21.4371 7.95052 24.5944 11.9864 24.5944H77.7987C77.7987 21.7253 75.4708 19.3981 72.6007 19.3981Z" fill="url(#paint13_linear_205_32)"/>
<path d="M77.8369 7.521C77.7063 3.62238 74.3902 0.581055 70.4867 0.581055H58.3882C53.036 0.581055 48.594 4.55399 47.8597 9.70502C47.8597 9.70502 47.7527 10.4137 47.7527 14.9068V69.3008C47.7527 74.1056 42.0996 75.5792 42.0996 75.5792C43.9852 76.6739 45.927 76.5398 45.927 76.5398C49.8668 76.4238 52.9526 73.087 52.9526 69.1467V14.9557L53.1031 10.9991C53.2082 8.25505 55.3368 5.94052 58.0818 5.78647C58.1851 5.78103 58.2884 5.7774 58.3918 5.7774H70.659C76.3284 5.7774 77.0772 10.9973 77.0772 10.9973C77.603 9.95696 77.8822 8.77341 77.8405 7.521H77.8369Z" fill="url(#paint14_linear_205_32)"/>
</g>
<g filter="url(#filter1_d_205_32)">
<path d="M99.7638 52.1317V33.9197H94.0423C93.4363 33.9202 92.8536 33.6866 92.4165 33.268C91.9793 32.8493 91.7216 32.278 91.6974 31.674C91.6841 31.3632 91.7356 31.0531 91.8488 30.7633C91.9619 30.4735 92.1342 30.2103 92.3547 29.9903C92.5751 29.7704 92.8389 29.5986 93.1294 29.4857C93.4199 29.3728 93.7308 29.3213 94.0423 29.3346H99.7873V18.7139C101.106 18.7139 102.37 19.2364 103.302 20.1665C104.235 21.0965 104.758 22.358 104.758 23.6733V29.241H116.917C116.926 29.8541 116.813 30.4628 116.583 31.0316C116.354 31.6004 116.013 32.1179 115.581 32.5536C115.148 32.9893 114.633 33.3346 114.065 33.5691C113.498 33.8037 112.889 33.9229 112.274 33.9197H104.735V51.582C104.735 54.8337 106.564 56.7403 109.425 56.7403C111.096 56.6575 112.676 55.957 113.857 54.7752C114.41 54.2303 115.144 53.9058 115.92 53.8628C116.187 53.8642 116.45 53.9191 116.694 54.0242C116.939 54.1293 117.16 54.2825 117.344 54.4747C117.527 54.6668 117.671 54.894 117.764 55.1426C117.858 55.3912 117.901 55.6561 117.89 55.9215C117.827 56.4943 117.651 57.0489 117.371 57.553C117.091 58.057 116.714 58.5005 116.26 58.8574C114.228 60.6094 111.63 61.5691 108.944 61.5594C103.738 61.5126 99.7638 58.0971 99.7638 52.1317Z" fill="white"/>
<path d="M99.7638 52.1317V33.9197H94.0423C93.4363 33.9202 92.8536 33.6866 92.4165 33.268C91.9793 32.8493 91.7216 32.278 91.6974 31.674C91.6841 31.3632 91.7356 31.0531 91.8488 30.7633C91.9619 30.4735 92.1342 30.2103 92.3547 29.9903C92.5751 29.7704 92.8389 29.5986 93.1294 29.4857C93.4199 29.3728 93.7308 29.3213 94.0423 29.3346H99.7873V18.7139C101.106 18.7139 102.37 19.2364 103.302 20.1665C104.235 21.0965 104.758 22.358 104.758 23.6733V29.241H116.917C116.926 29.8541 116.813 30.4628 116.583 31.0316C116.354 31.6004 116.013 32.1179 115.581 32.5536C115.148 32.9893 114.633 33.3346 114.065 33.5691C113.498 33.8037 112.889 33.9229 112.274 33.9197H104.735V51.582C104.735 54.8337 106.564 56.7403 109.425 56.7403C111.096 56.6575 112.676 55.957 113.857 54.7752C114.41 54.2303 115.144 53.9058 115.92 53.8628C116.187 53.8642 116.45 53.9191 116.694 54.0242C116.939 54.1293 117.16 54.2825 117.344 54.4747C117.527 54.6668 117.671 54.894 117.764 55.1426C117.858 55.3912 117.901 55.6561 117.89 55.9215C117.827 56.4943 117.651 57.0489 117.371 57.553C117.091 58.057 116.714 58.5005 116.26 58.8574C114.228 60.6094 111.63 61.5691 108.944 61.5594C103.738 61.5126 99.7638 58.0971 99.7638 52.1317Z" fill="white"/>
<path d="M123.975 44.7512C123.975 34.8439 130.236 28.4341 139.474 28.4341C148.995 28.4341 154.716 34.6451 154.716 43.4645C154.769 43.8415 154.735 44.2253 154.619 44.5877C154.502 44.9501 154.306 45.2817 154.043 45.5579C153.781 45.8342 153.46 46.0481 153.103 46.1838C152.747 46.3196 152.365 46.3736 151.985 46.3419H129.098C129.555 52.705 133.87 56.8691 140.506 56.8691C142.233 56.9829 143.959 56.6392 145.509 55.873C147.06 55.1068 148.379 53.9453 149.335 52.5062C149.576 52.0886 149.915 51.7361 150.324 51.4792C150.733 51.2224 151.198 51.069 151.68 51.0324C151.963 51.0023 152.25 51.0363 152.518 51.1319C152.787 51.2274 153.03 51.382 153.231 51.5843C153.431 51.7865 153.584 52.0311 153.676 52.3001C153.769 52.569 153.8 52.8553 153.767 53.1378C153.717 54.0583 153.408 54.9461 152.876 55.6994C150.308 59.8401 145.161 61.5478 140.377 61.5478C130.411 61.5127 123.975 54.9742 123.975 44.7512ZM149.64 41.862C149.1 36.0721 145.149 32.7619 139.322 32.7619C133.683 32.7619 129.567 36.271 129.11 41.862H149.64Z" fill="white"/>
<path d="M123.975 44.7512C123.975 34.8439 130.236 28.4341 139.474 28.4341C148.995 28.4341 154.716 34.6451 154.716 43.4645C154.769 43.8415 154.735 44.2253 154.619 44.5877C154.502 44.9501 154.306 45.2817 154.043 45.5579C153.781 45.8342 153.46 46.0481 153.103 46.1838C152.747 46.3196 152.365 46.3736 151.985 46.3419H129.098C129.555 52.705 133.87 56.8691 140.506 56.8691C142.233 56.9829 143.959 56.6392 145.509 55.873C147.06 55.1068 148.379 53.9453 149.335 52.5062C149.576 52.0886 149.915 51.7361 150.324 51.4792C150.733 51.2224 151.198 51.069 151.68 51.0324C151.963 51.0023 152.25 51.0363 152.518 51.1319C152.787 51.2274 153.03 51.382 153.231 51.5843C153.431 51.7865 153.584 52.0311 153.676 52.3001C153.769 52.569 153.8 52.8553 153.767 53.1378C153.717 54.0583 153.408 54.9461 152.876 55.6994C150.308 59.8401 145.161 61.5478 140.377 61.5478C130.411 61.5127 123.975 54.9742 123.975 44.7512ZM149.64 41.862C149.1 36.0721 145.149 32.7619 139.322 32.7619C133.683 32.7619 129.567 36.271 129.11 41.862H149.64Z" fill="white"/>
<path d="M214.242 61.2549C213.911 61.2601 213.581 61.1973 213.275 61.0705C212.968 60.9438 212.691 60.7556 212.46 60.5177C212.23 60.2798 212.05 59.9973 211.933 59.6875C211.816 59.3777 211.764 59.0473 211.78 58.7167V33.6504C211.78 32.335 212.304 31.0736 213.236 30.1435C214.169 29.2134 215.433 28.6909 216.751 28.6909V28.6909V58.7167C216.766 59.0509 216.711 59.3846 216.591 59.6968C216.471 60.0091 216.287 60.2932 216.051 60.5314C215.816 60.7696 215.534 60.9568 215.222 61.0813C214.911 61.2058 214.578 61.2649 214.242 61.2549V61.2549Z" fill="white"/>
<path d="M214.242 61.2549C213.911 61.2601 213.581 61.1973 213.275 61.0705C212.968 60.9438 212.691 60.7556 212.46 60.5177C212.23 60.2798 212.05 59.9973 211.933 59.6875C211.816 59.3777 211.764 59.0473 211.78 58.7167V33.6504C211.78 32.335 212.304 31.0736 213.236 30.1435C214.169 29.2134 215.433 28.6909 216.751 28.6909V28.6909V58.7167C216.766 59.0509 216.711 59.3846 216.591 59.6968C216.471 60.0091 216.287 60.2932 216.051 60.5314C215.816 60.7696 215.534 60.9568 215.222 61.0813C214.911 61.2058 214.578 61.2649 214.242 61.2549V61.2549Z" fill="white"/>
<path d="M187.428 58.717V33.9197H181.566C180.96 33.9202 180.377 33.6866 179.94 33.268C179.503 32.8493 179.245 32.278 179.221 31.6739C179.209 31.3636 179.262 31.0543 179.376 30.7653C179.49 30.4763 179.662 30.2138 179.882 29.9942C180.102 29.7747 180.365 29.6028 180.655 29.4893C180.945 29.3758 181.255 29.3231 181.566 29.3346H187.428V27.9426C187.428 22.2697 191.086 18.7372 196.808 18.7372C199.004 18.67 201.168 19.274 203.01 20.4684C203.408 20.7218 203.74 21.0662 203.979 21.4729C204.217 21.8797 204.355 22.3372 204.382 22.8077C204.388 23.0675 204.341 23.3259 204.244 23.5668C204.146 23.8078 204 24.0261 203.814 24.2082C203.628 24.3903 203.407 24.5323 203.163 24.6254C202.92 24.7185 202.66 24.7607 202.4 24.7494C201.868 24.7079 201.355 24.5306 200.911 24.2348C199.756 23.5028 198.41 23.1284 197.042 23.1586C194.041 23.1586 192.352 24.8898 192.352 27.9426V29.241H202.904C202.917 29.8529 202.807 30.4612 202.58 31.0299C202.353 31.5986 202.014 32.1162 201.584 32.5522C201.153 32.9883 200.639 33.3339 200.073 33.5688C199.506 33.8037 198.898 33.923 198.285 33.9197H192.423V58.717C192.429 59.376 192.176 60.0112 191.718 60.4859C191.259 60.9606 190.633 61.2369 189.972 61.2552C189.633 61.2757 189.293 61.2241 188.975 61.1038C188.657 60.9835 188.368 60.7972 188.128 60.5573C187.887 60.3174 187.7 60.0293 187.58 59.7121C187.459 59.3948 187.407 59.0557 187.428 58.717Z" fill="white"/>
<path d="M187.428 58.717V33.9197H181.566C180.96 33.9202 180.377 33.6866 179.94 33.268C179.503 32.8493 179.245 32.278 179.221 31.6739C179.209 31.3636 179.262 31.0543 179.376 30.7653C179.49 30.4763 179.662 30.2138 179.882 29.9942C180.102 29.7747 180.365 29.6028 180.655 29.4893C180.945 29.3758 181.255 29.3231 181.566 29.3346H187.428V27.9426C187.428 22.2697 191.086 18.7372 196.808 18.7372C199.004 18.67 201.168 19.274 203.01 20.4684C203.408 20.7218 203.74 21.0662 203.979 21.4729C204.217 21.8797 204.355 22.3372 204.382 22.8077C204.388 23.0675 204.341 23.3259 204.244 23.5668C204.146 23.8078 204 24.0261 203.814 24.2082C203.628 24.3903 203.407 24.5323 203.163 24.6254C202.92 24.7185 202.66 24.7607 202.4 24.7494C201.868 24.7079 201.355 24.5306 200.911 24.2348C199.756 23.5028 198.41 23.1284 197.042 23.1586C194.041 23.1586 192.352 24.8898 192.352 27.9426V29.241H202.904C202.917 29.8529 202.807 30.4612 202.58 31.0299C202.353 31.5986 202.014 32.1162 201.584 32.5522C201.153 32.9883 200.639 33.3339 200.073 33.5688C199.506 33.8037 198.898 33.923 198.285 33.9197H192.423V58.717C192.429 59.376 192.176 60.0112 191.718 60.4859C191.259 60.9606 190.633 61.2369 189.972 61.2552C189.633 61.2757 189.293 61.2241 188.975 61.1038C188.657 60.9835 188.368 60.7972 188.128 60.5573C187.887 60.3174 187.7 60.0293 187.58 59.7121C187.459 59.3948 187.407 59.0557 187.428 58.717Z" fill="white"/>
<path d="M167.121 61.2549C166.789 61.2601 166.46 61.1973 166.154 61.0706C165.847 60.9438 165.57 60.7556 165.339 60.5177C165.108 60.2799 164.929 59.9973 164.812 59.6875C164.695 59.3777 164.643 59.0473 164.659 58.7167V33.6504C164.659 32.9981 164.788 32.3523 165.039 31.7498C165.289 31.1473 165.656 30.6001 166.119 30.1394C166.582 29.6787 167.132 29.3136 167.736 29.0651C168.341 28.8165 168.988 28.6894 169.642 28.6909V28.6909V58.7167C169.657 59.0519 169.602 59.3866 169.481 59.6997C169.36 60.0127 169.175 60.2974 168.938 60.5358C168.701 60.7742 168.418 60.9611 168.105 61.0849C167.792 61.2086 167.457 61.2665 167.121 61.2549V61.2549Z" fill="white"/>
<path d="M167.121 61.2549C166.789 61.2601 166.46 61.1973 166.154 61.0706C165.847 60.9438 165.57 60.7556 165.339 60.5177C165.108 60.2799 164.929 59.9973 164.812 59.6875C164.695 59.3777 164.643 59.0473 164.659 58.7167V33.6504C164.659 32.9981 164.788 32.3523 165.039 31.7498C165.289 31.1473 165.656 30.6001 166.119 30.1394C166.582 29.6787 167.132 29.3136 167.736 29.0651C168.341 28.8165 168.988 28.6894 169.642 28.6909V28.6909V58.7167C169.657 59.0519 169.602 59.3866 169.481 59.6997C169.36 60.0127 169.175 60.2974 168.938 60.5358C168.701 60.7742 168.418 60.9611 168.105 61.0849C167.792 61.2086 167.457 61.2665 167.121 61.2549V61.2549Z" fill="white"/>
<path d="M214.055 24.8079C215.823 24.8079 217.256 23.3782 217.256 21.6146C217.256 19.851 215.823 18.4214 214.055 18.4214C212.287 18.4214 210.854 19.851 210.854 21.6146C210.854 23.3782 212.287 24.8079 214.055 24.8079Z" fill="white"/>
<path d="M214.055 24.8079C215.823 24.8079 217.256 23.3782 217.256 21.6146C217.256 19.851 215.823 18.4214 214.055 18.4214C212.287 18.4214 210.854 19.851 210.854 21.6146C210.854 23.3782 212.287 24.8079 214.055 24.8079Z" fill="white"/>
<path d="M167.156 24.8079C168.924 24.8079 170.357 23.3782 170.357 21.6146C170.357 19.851 168.924 18.4214 167.156 18.4214C165.388 18.4214 163.955 19.851 163.955 21.6146C163.955 23.3782 165.388 24.8079 167.156 24.8079Z" fill="white"/>
<path d="M167.156 24.8079C168.924 24.8079 170.357 23.3782 170.357 21.6146C170.357 19.851 168.924 18.4214 167.156 18.4214C165.388 18.4214 163.955 19.851 163.955 21.6146C163.955 23.3782 165.388 24.8079 167.156 24.8079Z" fill="white"/>
</g>
<defs>
<filter id="filter0_d_205_32" x="-0.158203" y="0.501465" width="82.3354" height="84.0293" filterUnits="userSpaceOnUse" color-interpolation-filters="sRGB">
<feFlood flood-opacity="0" result="BackgroundImageFix"/>
<feColorMatrix in="SourceAlpha" type="matrix" values="0 0 0 0 0 0 0 0 0 0 0 0 0 0 0 0 0 0 127 0" result="hardAlpha"/>
<feOffset dy="4"/>
<feGaussianBlur stdDeviation="2"/>
<feComposite in2="hardAlpha" operator="out"/>
<feColorMatrix type="matrix" values="0 0 0 0 0 0 0 0 0 0 0 0 0 0 0 0 0 0 0.25 0"/>
<feBlend mode="normal" in2="BackgroundImageFix" result="effect1_dropShadow_205_32"/>
<feBlend mode="normal" in="SourceGraphic" in2="effect1_dropShadow_205_32" result="shape"/>
</filter>
<filter id="filter1_d_205_32" x="87.6953" y="18.4214" width="135.12" height="70.6951" filterUnits="userSpaceOnUse" color-interpolation-filters="sRGB">
<feFlood flood-opacity="0" result="BackgroundImageFix"/>
<feColorMatrix in="SourceAlpha" type="matrix" values="0 0 0 0 0 0 0 0 0 0 0 0 0 0 0 0 0 0 127 0" result="hardAlpha"/>
<feOffset dy="4"/>
<feGaussianBlur stdDeviation="2"/>
<feComposite in2="hardAlpha" operator="out"/>
<feColorMatrix type="matrix" values="0 0 0 0 0 0 0 0 0 0 0 0 0 0 0 0 0 0 0.25 0"/>
<feBlend mode="normal" in2="BackgroundImageFix" result="effect1_dropShadow_205_32"/>
<feBlend mode="normal" in="SourceGraphic" in2="effect1_dropShadow_205_32" result="shape"/>
</filter>
<linearGradient id="paint0_linear_205_32" x1="8.6661" y1="30.5101" x2="8.6661" y2="30.2187" gradientUnits="userSpaceOnUse">
<stop stop-color="#00FFF3"/>
<stop offset="0.02" stop-color="#00FCF3"/>
<stop offset="0.48" stop-color="#0BC3FA"/>
<stop offset="0.82" stop-color="#129FFE"/>
<stop offset="1" stop-color="#1492FF"/>
</linearGradient>
<linearGradient id="paint1_linear_205_32" x1="4.69887" y1="31.8196" x2="4.69887" y2="31.5222" gradientUnits="userSpaceOnUse">
<stop stop-color="#00FFF3"/>
<stop offset="0.02" stop-color="#00FCF3"/>
<stop offset="0.48" stop-color="#0BC3FA"/>
<stop offset="0.82" stop-color="#129FFE"/>
<stop offset="1" stop-color="#1492FF"/>
</linearGradient>
<linearGradient id="paint2_linear_205_32" x1="4.11038" y1="21.2556" x2="4.11038" y2="21.2442" gradientUnits="userSpaceOnUse">
<stop stop-color="#00FFF3"/>
<stop offset="0.02" stop-color="#00FCF3"/>
<stop offset="0.48" stop-color="#0BC3FA"/>
<stop offset="0.82" stop-color="#129FFE"/>
<stop offset="1" stop-color="#1492FF"/>
</linearGradient>
<linearGradient id="paint3_linear_205_32" x1="10.9108" y1="29.2811" x2="10.9108" y2="29.0068" gradientUnits="userSpaceOnUse">
<stop stop-color="#00FFF3"/>
<stop offset="0.02" stop-color="#00FCF3"/>
<stop offset="0.48" stop-color="#0BC3FA"/>
<stop offset="0.82" stop-color="#129FFE"/>
<stop offset="1" stop-color="#1492FF"/>
</linearGradient>
<linearGradient id="paint4_linear_205_32" x1="21.1724" y1="24.5564" x2="21.1724" y2="24.3358" gradientUnits="userSpaceOnUse">
<stop stop-color="#00FFF3"/>
<stop offset="0.02" stop-color="#00FCF3"/>
<stop offset="0.48" stop-color="#0BC3FA"/>
<stop offset="0.82" stop-color="#129FFE"/>
<stop offset="1" stop-color="#1492FF"/>
</linearGradient>
<linearGradient id="paint5_linear_205_32" x1="4.24194" y1="34.1752" x2="4.24194" y2="33.828" gradientUnits="userSpaceOnUse">
<stop stop-color="#00FFF3"/>
<stop offset="0.02" stop-color="#00FCF3"/>
<stop offset="0.48" stop-color="#0BC3FA"/>
<stop offset="0.82" stop-color="#129FFE"/>
<stop offset="1" stop-color="#1492FF"/>
</linearGradient>
<linearGradient id="paint6_linear_205_32" x1="15.6217" y1="26.6643" x2="15.6217" y2="26.4229" gradientUnits="userSpaceOnUse">
<stop stop-color="#00FFF3"/>
<stop offset="0.02" stop-color="#00FCF3"/>
<stop offset="0.48" stop-color="#0BC3FA"/>
<stop offset="0.82" stop-color="#129FFE"/>
<stop offset="1" stop-color="#1492FF"/>
</linearGradient>
<linearGradient id="paint7_linear_205_32" x1="13.7509" y1="28.1334" x2="13.7509" y2="27.8703" gradientUnits="userSpaceOnUse">
<stop stop-color="#00FFF3"/>
<stop offset="0.02" stop-color="#00FCF3"/>
<stop offset="0.48" stop-color="#0BC3FA"/>
<stop offset="0.82" stop-color="#129FFE"/>
<stop offset="1" stop-color="#1492FF"/>
</linearGradient>
<linearGradient id="paint8_linear_205_32" x1="18.6347" y1="25.5466" x2="18.6347" y2="25.3157" gradientUnits="userSpaceOnUse">
<stop stop-color="#00FFF3"/>
<stop offset="0.02" stop-color="#00FCF3"/>
<stop offset="0.48" stop-color="#0BC3FA"/>
<stop offset="0.82" stop-color="#129FFE"/>
<stop offset="1" stop-color="#1492FF"/>
</linearGradient>
<linearGradient id="paint9_linear_205_32" x1="22.3926" y1="-12.8711" x2="50.9437" y2="12.4838" gradientUnits="userSpaceOnUse">
<stop offset="0.05" stop-color="#00FFF3"/>
<stop offset="0.07" stop-color="#00FCF3"/>
<stop offset="0.51" stop-color="#0AC3F9"/>
<stop offset="0.83" stop-color="#119FFD"/>
<stop offset="1" stop-color="#1492FF"/>
</linearGradient>
<linearGradient id="paint10_linear_205_32" x1="30.9545" y1="28.0094" x2="51.7" y2="66.1821" gradientUnits="userSpaceOnUse">
<stop stop-color="#00FFF3"/>
<stop offset="0.02" stop-color="#00FCF3"/>
<stop offset="0.48" stop-color="#0AC3F9"/>
<stop offset="0.82" stop-color="#119FFD"/>
<stop offset="1" stop-color="#1492FF"/>
</linearGradient>
<linearGradient id="paint11_linear_205_32" x1="31.9522" y1="67.8061" x2="44.8616" y2="23.4609" gradientUnits="userSpaceOnUse">
<stop stop-color="#00FFF3"/>
<stop offset="0.866298" stop-color="#11A1FD"/>
<stop offset="1" stop-color="#1492FF"/>
</linearGradient>
<linearGradient id="paint12_linear_205_32" x1="32.3442" y1="632.834" x2="32.3442" y2="111.031" gradientUnits="userSpaceOnUse">
<stop stop-color="#00FFF3"/>
<stop offset="0.02" stop-color="#00FCF3"/>
<stop offset="0.48" stop-color="#0AC3F9"/>
<stop offset="0.82" stop-color="#119FFD"/>
<stop offset="1" stop-color="#1492FF"/>
</linearGradient>
<linearGradient id="paint13_linear_205_32" x1="0.250496" y1="18.9566" x2="81.9574" y2="17.7383" gradientUnits="userSpaceOnUse">
<stop stop-color="#00FFF3"/>
<stop offset="0.866298" stop-color="#11A1FD"/>
<stop offset="1" stop-color="#1492FF"/>
</linearGradient>
<linearGradient id="paint14_linear_205_32" x1="66.1372" y1="-7.12737" x2="46.0484" y2="91.8124" gradientUnits="userSpaceOnUse">
<stop offset="0.14" stop-color="#00FFF3"/>
<stop offset="0.48" stop-color="#1492FF"/>
<stop offset="0.62" stop-color="#11A4FD"/>
<stop offset="0.72" stop-color="#08D2F7"/>
<stop offset="0.81" stop-color="#02F2F4"/>
<stop offset="0.86" stop-color="#00FFF3"/>
</linearGradient>
<clipPath id="clip0_205_32">
<rect width="74.3355" height="76.0294" fill="white" transform="translate(3.8418 0.501465)"/>
</clipPath>
</defs>
</svg>
