<svg width="181" height="69" viewBox="0 0 181 69" fill="none" xmlns="http://www.w3.org/2000/svg">
<g opacity="0.8">
<path d="M49.1264 21.9878C49.284 24.175 49.4416 26.3584 49.5991 28.5456C48.5224 29.0258 48.1247 30.1213 47.4532 30.9579C44.2643 34.9309 40.2051 36.2627 35.6131 34.762C33.8987 34.203 32.338 33.3139 30.7811 32.4173C29.5581 31.712 28.5339 32.3422 28.5001 33.7641C28.4926 34.038 28.5114 34.3118 28.5226 34.5857C28.6764 38.5662 28.8302 42.5429 28.9803 46.5233C28.9991 47.011 29.1566 47.5325 28.3088 47.5475C21.9498 47.6638 15.5871 47.8139 9.22813 47.9564C8.6954 44.3999 9.42696 40.8809 9.58078 37.3469C9.7571 33.3027 10.121 29.2622 10.4436 25.2255C10.59 23.4134 10.5074 21.5489 11.4378 19.8757C12.7134 17.5797 14.6717 16.1691 17.2641 16.1428C25.8065 16.0528 34.3526 16.1166 42.895 16.1241C43.0901 16.1241 43.2852 16.1541 43.4803 16.1691C43.1764 16.7543 43.1651 17.3771 43.349 17.9886C44.0017 20.1458 46.4665 22.423 49.1189 21.9991L49.1264 21.9878ZM26.0578 24.0512C26.0316 22.6931 24.846 21.5151 23.5105 21.5226C22.0886 21.5301 20.9406 22.7269 20.9781 24.1638C21.0157 25.5293 22.2012 26.6661 23.563 26.6361C24.9061 26.6098 26.0841 25.3905 26.0578 24.0512Z" fill="#7E7E7E"/>
<path d="M50.8149 49.7197C50.7886 50.3012 50.7586 50.8827 50.7324 51.4642C49.1717 51.4867 47.611 51.4905 46.0504 51.5393C45.1387 51.5655 44.5272 52.072 44.5385 52.9836C44.5497 53.899 45.1575 54.3567 46.0916 54.3492C47.3409 54.338 48.5864 54.3417 49.8357 54.3379C47.0595 61.8487 41.6835 66.1855 33.8126 67.4761C33.43 67.5398 33.0435 67.5774 32.6571 67.6261C32.5071 63.6832 32.3758 59.7403 32.1882 55.8011C32.1507 55.032 32.357 54.7469 33.1411 54.7919C33.9589 54.8407 34.7843 54.8144 35.6021 54.7619C36.5175 54.6981 37.0878 54.1654 37.0315 53.2462C36.979 52.3871 36.4012 51.9444 35.5159 51.9594C34.6155 51.9744 33.7151 51.9444 32.8222 52.0045C32.1019 52.0532 32.0006 51.7118 31.9893 51.1003C31.9781 50.5038 32.1357 50.26 32.7697 50.2675C33.6663 50.2825 34.5629 50.1924 35.4596 50.1624C36.375 50.1324 36.9752 49.7385 36.9677 48.7593C36.9565 47.7877 36.33 47.3675 35.4371 47.3562C34.578 47.345 33.7188 47.3862 32.8635 47.4725C32.0344 47.5588 31.798 47.2287 31.783 46.4258C31.7267 43.417 31.5992 40.412 31.5054 37.407C31.4641 36.0902 31.4679 36.1014 32.7134 36.6454C37.6318 38.8063 42.4038 38.9339 46.8382 35.4674C47.9074 34.6308 48.819 33.5953 49.802 32.6537C50.2221 34.2856 50.1096 35.9701 50.2672 37.6283C50.556 40.6821 50.7399 43.7472 50.9687 46.8047C49.4193 46.8685 47.8699 46.936 46.3205 46.9998C45.0824 47.0523 44.4409 47.5513 44.4784 48.4442C44.5159 49.3408 45.195 49.836 46.403 49.8135C47.8736 49.791 49.3443 49.7497 50.8186 49.716L50.8149 49.7197ZM44.9174 42.254C44.1333 42.2803 43.4092 43.0344 43.5068 43.7997C43.6193 44.6888 44.152 45.2178 45.0749 45.1653C45.9528 45.1165 46.3842 44.5275 46.4293 43.6984C46.4705 42.9143 45.709 42.2278 44.9211 42.254H44.9174ZM37.0953 42.2878C36.2362 42.2953 35.6359 42.9068 35.6847 43.7697C35.7334 44.6326 36.2174 45.139 37.0765 45.1653C38.0069 45.1915 38.4984 44.6363 38.5584 43.7397C38.6109 42.9293 37.9244 42.2803 37.0953 42.2878ZM40.9632 46.5984C40.2879 46.7335 39.4513 46.5909 39.3087 47.5513C39.2149 48.1816 40.2504 49.0895 40.9669 49.0932C41.7173 49.0932 42.6739 48.2116 42.5801 47.54C42.4451 46.5571 41.5934 46.7522 40.9632 46.6021V46.5984Z" fill="#7E7E7E"/>
<path d="M11.4977 55.3732C16.8362 55.2419 22.1785 55.1068 27.517 54.9755C27.8284 54.968 28.1435 54.9755 28.4512 54.9455C29.0739 54.8817 29.3741 55.0843 29.3928 55.7709C29.5091 59.7476 29.6592 63.7205 29.798 67.6935C25.4611 67.2245 21.4469 65.8964 17.9429 63.2253C15.178 61.1169 12.927 58.5808 11.4977 55.3732Z" fill="#7E7E7E"/>
<path d="M9.72327 50.8338C15.8834 50.6725 22.0398 50.5187 28.1999 50.3423C28.8302 50.3236 29.1828 50.3761 29.2128 51.1752C29.2429 52.0118 28.9052 52.1394 28.2037 52.1544C22.7451 52.2481 17.2827 52.3682 11.8242 52.4883C11.2802 52.4995 10.74 52.5783 10.1997 52.6271C10.0422 52.0306 9.88083 51.4303 9.72327 50.8338Z" fill="#7E7E7E"/>
<path d="M49.7979 32.6572C48.815 33.5988 47.9034 34.6343 46.8342 35.4709C42.4035 38.9374 37.6315 38.8098 32.7094 36.6489C31.4638 36.1012 31.4601 36.0899 31.5014 37.4105C31.5951 40.4155 31.7227 43.4243 31.779 46.4293C31.794 47.2322 32.0303 47.5623 32.8594 47.476C33.7111 47.3897 34.5739 47.3485 35.433 47.3597C36.3259 47.371 36.9524 47.7912 36.9637 48.7628C36.9749 49.7382 36.3747 50.1359 35.4555 50.1659C34.5589 50.1959 33.6623 50.286 32.7657 50.271C32.1316 50.2597 31.9741 50.5036 31.9853 51.1038C31.9966 51.7116 32.0979 52.0567 32.8182 52.008C33.7148 51.9479 34.6152 51.978 35.5118 51.9629C36.3972 51.9479 36.975 52.3906 37.0275 53.2497C37.0837 54.1689 36.5135 54.7054 35.5981 54.7654C34.7803 54.8217 33.9549 54.8479 33.1371 54.7954C32.353 54.7466 32.1466 55.0318 32.1842 55.8046C32.368 59.7438 32.503 63.6905 32.6531 67.6296C32.4205 68.2974 32.308 68.969 31.2688 68.9127C30.3721 68.8639 29.9107 68.56 29.7944 67.6972C29.6556 63.7242 29.5055 59.7475 29.3892 55.7746C29.3705 55.088 29.0703 54.8854 28.4476 54.9492C28.1399 54.983 27.8248 54.9717 27.5134 54.9792C22.1749 55.1105 16.8326 55.2456 11.4941 55.3769C11.2277 55.3619 10.9613 55.3469 10.695 55.3281C10.0572 55.2869 9.61451 55.0017 9.42318 54.3602C9.17932 53.5499 9.57324 53.0397 10.1998 52.6307C10.74 52.582 11.284 52.5032 11.8242 52.4919C17.2828 52.3719 22.7414 52.2518 28.2037 52.158C28.9053 52.1468 29.2466 52.0155 29.2129 51.1789C29.1829 50.376 28.8265 50.3272 28.2 50.346C22.0398 50.5223 15.8834 50.6761 9.72331 50.8375C8.8867 50.7774 8.17389 50.5373 8.05384 49.5657C7.9488 48.6878 8.41025 48.1851 9.2281 47.9562C15.5871 47.8174 21.9498 47.6636 28.3087 47.5473C29.1566 47.5323 28.999 47.0108 28.9803 46.5231C28.8302 42.5427 28.6764 38.566 28.5226 34.5855C28.5113 34.3117 28.4926 34.0378 28.5001 33.7639C28.5338 32.3421 29.558 31.7118 30.7811 32.4171C32.338 33.3137 33.8986 34.2029 35.6131 34.7618C40.2051 36.2625 44.2606 34.9307 47.4532 30.9577C48.1247 30.1211 48.5224 29.0256 49.5991 28.5454C51.3924 28.9394 51.7375 29.8285 50.6871 31.3291C50.3794 31.7643 50.0943 32.2145 49.7979 32.6609V32.6572Z" fill="white"/>
<path d="M66.2526 41.2783C68.905 39.1061 71.2685 39.1099 73.4069 41.2333C73.9134 41.736 74.0184 41.3571 74.2698 41.0982C75.3503 39.9803 76.6858 39.5638 78.209 39.7026C80.5725 39.9165 82.0919 41.5034 82.1519 43.9832C82.2194 46.6769 82.1519 49.378 82.1782 52.0754C82.1819 52.7132 81.9981 53.0358 81.3116 52.9721C80.9251 52.9383 80.5275 52.9345 80.1411 52.9721C79.4508 53.0433 79.2744 52.7282 79.2819 52.0867C79.3082 49.7419 79.3195 47.3972 79.2819 45.0524C79.2519 43.2141 78.239 42.1674 76.6971 42.2612C75.3127 42.3475 74.4386 43.3079 74.4199 44.8686C74.3899 47.0971 74.3448 49.3293 74.4386 51.5502C74.4874 52.7095 74.086 52.9571 72.9905 52.9796C71.82 53.0021 71.4186 52.7132 71.4786 51.4939C71.5799 49.348 71.5199 47.1946 71.5011 45.0449C71.4936 43.8782 71.1522 42.854 69.9517 42.4038C68.2785 41.7773 66.7178 42.8803 66.6691 44.7823C66.6053 47.1271 66.6015 49.4718 66.6653 51.8166C66.6916 52.762 66.3802 53.0171 65.4685 52.9796C63.4389 52.9008 63.6865 53.1897 63.679 51.13C63.6715 47.8474 63.6678 44.5647 63.6828 41.2783C63.6828 40.7118 63.4202 39.9015 64.4931 39.999C65.2735 40.0703 66.459 39.5038 66.2564 41.2746L66.2526 41.2783Z" fill="white"/>
<path d="M107.441 52.4882C107.441 54.3265 107.415 56.041 107.453 57.7555C107.471 58.5208 107.197 58.8472 106.432 58.7496C106.241 58.7271 106.038 58.7196 105.847 58.7496C104.796 58.911 104.414 58.5433 104.444 57.4178C104.523 54.4541 104.47 51.4865 104.47 48.519C104.47 46.0205 104.466 43.5219 104.474 41.0233C104.474 40.6144 104.357 40.0329 104.976 40.0329C105.663 40.0329 106.462 39.6765 107.014 40.2955C107.19 40.4943 107.107 40.7232 107.509 40.5581C112.979 38.2922 117.229 41.496 116.621 47.4198C116.19 51.6291 112.603 54.8817 107.438 52.4845L107.441 52.4882ZM113.598 46.5382C113.631 45.7053 113.466 44.91 113.144 44.1447C112.607 42.8691 111.463 42.1488 110.094 42.2201C108.717 42.2876 107.689 43.113 107.317 44.4898C106.957 45.8366 106.954 47.1872 107.332 48.534C107.794 50.1772 109.268 51.0551 110.942 50.6912C112.637 50.3198 113.583 48.8417 113.594 46.5419L113.598 46.5382Z" fill="white"/>
<path d="M121.097 47.3823C121.307 48.8942 121.918 50.0647 123.352 50.4624C124.792 50.8638 126.131 50.5562 127.152 49.3256C127.568 48.8267 129.774 49.1493 130.033 49.7346C130.224 50.166 129.898 50.4736 129.68 50.7813C128.217 52.8747 125.509 53.8013 122.811 53.1485C120.286 52.537 118.429 50.4999 118.062 47.945C117.57 44.5048 118.876 41.5148 121.509 40.288C123.704 39.2638 125.929 39.2751 127.958 40.6819C129.981 42.085 130.465 44.2347 130.491 46.5532C130.498 47.3298 130.003 47.296 129.47 47.296C126.739 47.296 124.008 47.3148 121.277 47.326C121.239 47.326 121.202 47.3485 121.093 47.3823H121.097ZM124.286 45.1051C125.104 45.1051 125.925 45.0713 126.743 45.1163C127.422 45.1539 127.542 44.8875 127.384 44.2835C127.017 42.8841 125.981 42.1188 124.432 42.1563C122.834 42.1976 121.585 43.158 121.318 44.4898C121.221 44.9775 121.359 45.1201 121.828 45.1088C122.646 45.0901 123.468 45.1013 124.286 45.1051Z" fill="white"/>
<path d="M175.825 27.1047C174.576 27.1047 173.327 27.1347 172.078 27.0935C171.399 27.0709 171.162 27.2285 171.387 27.9451C171.766 29.1568 172.472 30.061 173.725 30.3198C175.045 30.5937 176.283 30.3498 177.21 29.2244C177.63 28.7142 179.896 28.9017 180.2 29.4832C180.451 29.9559 180.057 30.2936 179.825 30.6275C178.384 32.6908 175.642 33.6062 172.937 32.9497C170.479 32.3532 168.589 30.2298 168.243 27.6825C167.745 23.9684 169.324 20.8658 172.28 19.8266C176.212 18.446 180.774 20.4231 180.676 26.3056C180.665 26.9396 180.361 27.1085 179.802 27.1047C178.474 27.0935 177.146 27.101 175.822 27.101L175.825 27.1047ZM174.527 24.8875C175.345 24.8875 176.167 24.8575 176.985 24.895C177.615 24.925 177.705 24.6587 177.574 24.1184C177.27 22.8617 176.422 22.1001 175.12 21.9725C173.552 21.8187 172.314 22.449 171.729 23.702C171.219 24.7937 171.267 24.8763 172.419 24.8838C173.121 24.8875 173.826 24.8838 174.527 24.8838V24.8875Z" fill="white"/>
<path d="M84.8939 31.2353C83.3445 32.8898 81.5213 33.325 79.4766 33.0098C77.6158 32.721 76.3853 31.4492 76.1527 29.5996C75.9239 27.8064 76.843 26.2082 78.5838 25.4991C80.2982 24.8013 82.1328 24.58 83.9485 24.3849C84.9652 24.2761 84.7514 23.8072 84.4963 23.2482C83.8322 21.7813 80.9022 21.6687 79.7092 23.0493C79.154 23.6946 77.4358 23.7321 76.903 23.0906C76.5841 22.7079 76.8768 22.3515 77.0493 22.0139C78.0735 20.0556 80.5308 19.0501 83.2357 19.4703C86.1845 19.9318 87.5426 21.4699 87.5688 24.4412C87.5913 26.8234 87.5501 29.2057 87.5876 31.5842C87.5989 32.3608 87.5276 32.8673 86.5446 32.7847C85.7305 32.7172 84.7964 32.9536 84.999 31.603C85.0102 31.5392 84.9615 31.4642 84.8902 31.2316L84.8939 31.2353ZM80.9698 30.8302C83.1457 30.8264 84.6613 29.307 84.7101 27.2811C84.7214 26.8497 84.6726 26.5946 84.1511 26.7071C82.9394 26.9735 81.7088 27.1648 80.5158 27.495C79.6079 27.7463 78.8351 28.3016 79.0227 29.4008C79.2178 30.5375 80.1407 30.7776 80.9698 30.8264V30.8302Z" fill="white"/>
<path d="M122.748 26.1706C122.789 22.1752 125.468 19.399 129.265 19.414C133.08 19.429 135.684 22.2765 135.65 26.4032C135.616 30.4062 132.922 33.2011 129.145 33.1524C125.303 33.1036 122.703 30.2674 122.748 26.1744V26.1706ZM132.6 26.2569C132.611 24.2423 131.853 22.8655 130.45 22.3628C128.477 21.6537 126.601 22.5954 126.042 24.5687C125.265 27.3224 126.338 29.9485 128.405 30.3574C128.518 30.3799 128.638 30.3837 128.754 30.3949C131.167 30.5863 132.581 29.0669 132.596 26.2607L132.6 26.2569Z" fill="white"/>
<path d="M121.344 26.3095C121.337 30.3388 118.73 33.1224 114.933 33.1487C111.103 33.175 108.428 30.3388 108.443 26.2608C108.458 22.194 111.148 19.3766 114.985 19.4103C118.76 19.4441 121.352 22.2503 121.344 26.3058V26.3095ZM111.508 26.3358C111.493 28.3729 112.434 29.9223 113.931 30.3275C115.953 30.8715 117.529 29.8623 118.107 27.6489C118.741 25.2066 117.728 22.7005 115.916 22.2428C115.803 22.2128 115.683 22.209 115.567 22.194C112.997 21.8564 111.53 23.3533 111.508 26.3358Z" fill="white"/>
<path d="M140.29 21.2072C141.9 19.6465 143.622 19.1663 145.524 19.4664C147.681 19.8041 149.103 21.3085 149.47 23.6645C149.909 26.4557 149.602 29.2769 149.677 32.0831C149.692 32.5745 149.429 32.7846 148.949 32.7696C148.637 32.7583 148.319 32.7321 148.015 32.7771C146.994 32.9197 146.649 32.522 146.679 31.479C146.743 29.4532 146.743 27.4161 146.645 25.3902C146.54 23.1993 145.351 22.0663 143.468 22.1713C141.907 22.2614 140.905 23.1993 140.789 25.0038C140.654 27.1422 140.725 29.2956 140.68 31.4415C140.673 31.8805 140.905 32.5445 140.35 32.6833C139.574 32.8784 138.711 32.9309 137.942 32.627C137.593 32.492 137.75 31.993 137.75 31.6516C137.743 28.1776 137.728 24.7037 137.762 21.2297C137.765 20.6782 137.345 19.7215 138.527 19.8228C139.307 19.8903 140.669 19.1438 140.279 21.2072H140.29Z" fill="white"/>
<path d="M89.7935 49.258C90.8777 46.4031 91.9019 43.7169 92.9224 41.0308C93.2525 40.1604 95.0683 39.5526 95.7961 40.0891C96.3101 40.4718 95.8749 40.8995 95.7436 41.2446C94.4793 44.5948 93.1737 47.9262 91.8832 51.2651C91.0128 53.5161 90.1499 55.7708 89.272 58.018C89.0207 58.6633 87.1937 59.076 86.6797 58.6258C86.3083 58.3032 86.5859 57.9543 86.6834 57.6579C87.0849 56.4799 87.5013 55.3056 87.9852 54.1614C88.3567 53.2798 88.3154 52.5069 87.9327 51.6103C86.4621 48.1738 85.0778 44.7036 83.6672 41.2409C83.202 40.0929 83.277 40.1191 84.5338 39.9728C85.8844 39.8115 86.4433 40.3817 86.8598 41.586C87.7376 44.1183 88.7656 46.5981 89.7973 49.2618L89.7935 49.258Z" fill="white"/>
<path d="M68.9759 19.4028C71.3545 19.5004 73.2865 20.3445 74.382 22.6217C74.6821 23.2482 74.6146 23.6609 73.8643 23.8147C73.4441 23.901 73.0127 23.9685 72.6188 24.1298C72.0635 24.3624 71.7821 24.1861 71.5008 23.6872C70.7842 22.4004 69.6212 21.9727 68.2219 22.2165C66.815 22.4641 66.0797 23.4508 65.8058 24.7639C65.5207 26.1182 65.4945 27.4763 66.181 28.7593C67.2727 30.8077 70.0752 30.984 71.4032 29.082C71.8272 28.4742 74.1419 28.508 74.457 29.142C74.6559 29.5434 74.3783 29.8961 74.1944 30.2299C72.645 33.0587 68.5445 34.0566 65.5732 32.2446C63.1347 30.7552 62.4256 28.3504 62.602 25.6755C62.7821 22.8993 64.0013 20.7459 66.7813 19.7592C67.4866 19.5079 68.2144 19.3841 68.9722 19.4028H68.9759Z" fill="white"/>
<path d="M160.875 30.2036C162.837 30.2036 164.593 30.2673 166.337 30.1811C167.493 30.1248 167.335 30.8263 167.358 31.5354C167.377 32.2557 167.399 32.8072 166.364 32.7847C163.317 32.7246 160.271 32.7697 157.229 32.7547C156.94 32.7547 156.55 32.9197 156.373 32.6083C156.189 32.2857 156.527 32.0344 156.696 31.7905C158.647 28.9205 160.605 26.058 162.556 23.1881C162.702 22.9742 163.01 22.7829 162.871 22.4865C162.728 22.1789 162.387 22.3252 162.139 22.3215C160.89 22.3064 159.637 22.2652 158.392 22.329C157.405 22.3815 156.928 22.2089 156.943 21.0234C156.958 19.9017 157.394 19.7629 158.332 19.7816C160.946 19.8341 163.565 19.7854 166.18 19.8116C166.653 19.8154 167.313 19.5303 167.564 20.018C167.778 20.4344 167.23 20.8358 166.979 21.211C165.107 23.9909 163.212 26.7596 161.325 29.532C161.22 29.6858 161.115 29.8434 160.879 30.1961L160.875 30.2036Z" fill="white"/>
<path d="M14.8816 7.50268C14.8816 9.10461 14.8929 10.7028 14.8816 12.3047C14.8666 13.8316 14.0225 14.4469 12.6119 13.9929C9.85821 13.1038 7.99367 10.3802 8.04244 7.3301C8.09121 4.41135 10.1246 1.71395 12.8407 0.952377C14.0112 0.625988 14.8478 1.22249 14.8741 2.46802C14.9116 4.14499 14.8816 5.82571 14.8816 7.50268Z" fill="white"/>
<path d="M132.832 46.2829C132.832 45.3075 132.765 44.3245 132.851 43.3566C132.93 42.4637 132.633 42.1561 131.763 42.2912C130.866 42.43 130.416 42.1561 130.45 41.1057C130.48 40.2428 130.705 39.8414 131.579 40.0027C132.652 40.2015 132.975 39.7288 132.817 38.7309C132.768 38.427 132.851 38.1006 132.802 37.7967C132.629 36.6863 133.035 36.2736 134.194 36.3486C135.68 36.4462 135.683 36.3674 135.683 38.0331C135.683 39.3412 136.329 39.9952 137.619 39.9952C137.852 39.9952 138.092 40.0252 138.321 39.9914C139.217 39.8601 139.544 40.194 139.547 41.1357C139.555 42.0923 139.206 42.3212 138.313 42.3137C135.683 42.2912 135.683 42.3249 135.683 44.9773C135.683 46.069 135.676 47.1645 135.683 48.2562C135.698 50.0832 136.246 50.6272 138.062 50.6347C139.446 50.6385 139.84 51.1825 139.51 52.5368C139.401 52.9907 139.086 53.0658 138.737 53.0995C137.803 53.1896 136.861 53.2608 135.938 53.0845C133.882 52.6906 132.877 51.4601 132.828 49.3217C132.806 48.3087 132.825 47.292 132.825 46.2791H132.821L132.832 46.2829Z" fill="white"/>
<path d="M100.726 26.0093C100.726 25.1089 100.64 24.2011 100.745 23.3157C100.88 22.1827 100.399 21.8713 99.3903 22.0326C98.5462 22.1677 98.3736 21.7625 98.3473 20.9747C98.3173 20.0443 98.5987 19.6429 99.5328 19.8042C100.512 19.9767 100.883 19.5791 100.733 18.6074C100.681 18.2623 100.771 17.8984 100.718 17.5532C100.538 16.3977 101.056 16.1464 102.148 16.1088C103.367 16.0713 103.682 16.4465 103.63 17.6282C103.536 19.7929 103.603 19.7667 105.828 19.8192C106.44 19.8342 107.396 19.3315 107.464 20.652C107.516 21.68 107.272 22.1002 106.124 22.0589C103.603 21.9726 103.603 22.0364 103.603 24.5124C103.603 25.7242 103.588 26.936 103.603 28.1477C103.626 29.8997 104.189 30.4362 105.941 30.4325C107.471 30.4325 107.73 30.7851 107.456 32.3233C107.377 32.7547 107.126 32.811 106.822 32.856C105.415 33.0661 104.012 33.1036 102.68 32.5033C101.307 31.8843 100.797 30.6951 100.737 29.2882C100.692 28.1965 100.73 27.101 100.726 26.0056V26.0093Z" fill="white"/>
<path d="M6.09909 19.3128C1.88979 19.3203 -0.912659 15.3361 0.434166 11.6295C0.966894 10.1663 2.11488 9.85121 3.22536 10.9279C4.93609 12.5861 6.61681 14.2706 8.27501 15.9813C9.59558 17.3469 9.26169 18.5512 7.44966 19.0651C6.92819 19.2115 6.38046 19.264 6.09909 19.3165V19.3128Z" fill="white"/>
<path d="M92.2283 21.6762C93.365 20.3519 94.5505 19.7779 95.9874 19.7217C96.6514 19.6954 97.1091 19.8942 96.9253 20.637C96.7714 21.2598 97.5405 22.3028 96.1187 22.4041C93.6726 22.5766 92.5696 23.7771 92.5434 26.2307C92.5246 28.0652 92.5021 29.9035 92.5546 31.738C92.5809 32.5822 92.277 32.8748 91.4704 32.7772C91.1253 32.736 90.7689 32.7547 90.4162 32.7735C89.8685 32.8035 89.6547 32.5709 89.6547 32.0157C89.6697 28.189 89.6734 24.3586 89.6509 20.532C89.6472 19.8305 90.0411 19.7142 90.54 19.823C91.1253 19.9505 92.0482 19.2977 92.217 20.472C92.2583 20.7721 92.2245 21.0835 92.2245 21.6762H92.2283Z" fill="white"/>
<path d="M49.1266 21.9876C46.4704 22.4153 44.0094 20.1343 43.3566 17.9772C43.1728 17.3656 43.1803 16.7466 43.4879 16.1576C45.7351 14.8258 48.1174 15.1109 50.4922 15.6324C51.0849 15.7637 51.4713 16.3077 51.4676 16.9567C51.4638 18.9863 51.0211 20.8246 49.1303 21.9839L49.1266 21.9876Z" fill="white"/>
<path d="M154.662 26.2982C154.662 28.0952 154.614 29.8885 154.681 31.6818C154.715 32.5897 154.385 32.8785 153.533 32.7735C153.188 32.7285 152.832 32.7547 152.479 32.766C151.972 32.7847 151.8 32.5334 151.8 32.0494C151.807 28.1853 151.807 24.3211 151.8 20.457C151.8 20.0255 151.946 19.7892 152.4 19.8042C152.516 19.8042 152.633 19.8005 152.753 19.8042C155.068 19.8192 154.625 19.6204 154.655 21.6162C154.677 23.1769 154.659 24.7376 154.659 26.2982H154.662Z" fill="white"/>
<path d="M50.8145 49.7195C49.3439 49.7532 47.8733 49.7945 46.3989 49.817C45.1909 49.8358 44.5118 49.3443 44.4743 48.4477C44.4368 47.5548 45.0821 47.0521 46.3164 47.0033C47.8658 46.9395 49.4152 46.872 50.9646 46.8082C51.8012 47.0183 52.4127 47.4648 52.3377 48.4064C52.2702 49.2955 51.6211 49.6294 50.8145 49.7195Z" fill="white"/>
<path d="M49.8354 54.3377C48.5861 54.3377 47.3406 54.3377 46.0913 54.349C45.1534 54.3603 44.5494 53.9026 44.5381 52.9834C44.5269 52.0718 45.1384 51.5653 46.05 51.5391C47.6107 51.494 49.1713 51.4865 50.732 51.464C51.4598 51.7754 51.835 52.3156 51.6924 53.111C51.5086 54.1427 50.642 54.2102 49.8354 54.334V54.3377Z" fill="white"/>
<path d="M153.165 17.767C151.946 18.1159 151.837 17.4594 151.766 16.4127C151.669 15.0284 152.445 15.1972 153.342 15.1259C154.464 15.0359 154.662 15.4711 154.704 16.5065C154.756 17.7708 154.212 17.9846 153.165 17.7633V17.767Z" fill="white"/>
<path d="M26.0577 24.0472C26.084 25.3828 24.906 26.6021 23.5629 26.6321C22.2011 26.6584 21.0118 25.5254 20.9781 24.1598C20.9406 22.7229 22.0885 21.5262 23.5104 21.5187C24.846 21.5112 26.0315 22.6892 26.0577 24.0472Z" fill="white"/>
<path d="M44.9171 42.2539C45.7087 42.2277 46.4703 42.9179 46.4252 43.6983C46.3802 44.5274 45.9488 45.1164 45.0709 45.1652C44.148 45.2177 43.619 44.6887 43.5027 43.7996C43.4052 43.0342 44.1293 42.2802 44.9134 42.2539H44.9171Z" fill="white"/>
<path d="M37.0949 42.2876C37.9202 42.2801 38.6105 42.9329 38.558 43.7395C38.498 44.6362 38.0065 45.1914 37.0761 45.1651C36.217 45.1389 35.7331 44.6324 35.6843 43.7695C35.6355 42.9067 36.2358 42.2951 37.0949 42.2876Z" fill="white"/>
<path d="M40.9631 46.5982C41.5971 46.7482 42.4449 46.5494 42.58 47.5361C42.6738 48.2076 41.7134 49.093 40.9668 49.0892C40.254 49.0892 39.2186 48.1776 39.3086 47.5473C39.4474 46.5907 40.2878 46.7332 40.9631 46.5944V46.5982Z" fill="white"/>
</g>
</svg>
