<svg width="211" height="24" viewBox="0 0 211 24" fill="none" xmlns="http://www.w3.org/2000/svg">
<g opacity="0.8">
<path d="M40.6157 22.4287V7.97932L40.359 7.88055C40.1713 8.20977 39.9408 8.52253 39.7993 8.8715C38.117 12.9439 36.4347 17.0131 34.7919 21.102C34.4396 21.981 34.0314 22.5077 32.9482 22.4913C31.9639 22.4748 31.5326 22.0797 31.1902 21.2304C29.6495 17.3917 28.0626 13.5694 26.4857 9.74722C26.2026 9.05916 25.903 8.37767 25.2972 7.72253C25.284 9.27973 25.2676 10.8369 25.261 12.3941C25.2544 14.06 25.261 15.7258 25.261 17.3917C25.261 19.0575 25.261 20.5917 25.261 22.3234H21.9556C21.5573 21.2106 21.4421 2.98508 21.8635 0.762852C23.2363 0.759559 24.6684 0.677255 26.0808 0.80565C26.4396 0.838572 26.8511 1.48384 27.0454 1.93158C28.2207 4.64104 29.34 7.37685 30.4857 10.0995C31.2528 11.9234 32.033 13.7406 32.9647 15.9332C34.2783 13.1876 35.2231 10.6624 36.2701 8.18673C37.3137 5.72088 38.3376 3.24187 39.3581 0.795773H44.2207C44.3754 2.86656 44.2734 4.89125 44.2931 6.90607C44.3096 8.89455 44.2964 10.883 44.2964 12.8715C44.2964 14.86 44.2964 16.9275 44.2964 18.9522L44.5565 19.0378C44.7474 18.702 44.9746 18.3793 45.126 18.0271C47.3548 12.8452 49.6363 7.68302 51.7532 2.45503C52.3425 0.999889 53.1326 0.608119 54.6174 0.59495C56.0923 0.581781 56.787 1.06573 57.3433 2.4287C59.3483 7.3538 61.4981 12.2197 63.5985 17.1053C63.8092 17.5925 64.0429 18.0699 64.3656 18.7612C64.9845 17.9217 65.5014 17.2205 66.1038 16.404C66.6141 16.6444 67.0816 16.8748 67.559 17.0888C70.8742 18.5703 74.3047 19.2518 77.9195 18.4781C78.5944 18.3332 79.2627 18.0896 79.8816 17.7834C80.6355 17.4114 81.2215 16.8123 81.1195 15.8871C81.0273 15.0509 80.4347 14.5472 79.6643 14.3332C78.7359 14.0764 77.7911 13.8559 76.8396 13.7242C75.0322 13.4707 73.1985 13.3719 71.4043 13.0526C70.1466 12.8287 68.8857 12.4699 67.717 11.9629C64.0759 10.3859 63.3121 5.10524 66.8018 2.511C68.4051 1.31923 70.2553 0.802358 72.1944 0.545567C76.1154 0.02211 79.7894 0.733222 83.1672 2.82705C83.4339 2.99166 83.6676 3.21553 83.9672 3.45257C83.5689 4.7036 82.6569 5.52993 81.8405 6.52417C81.4783 6.35298 81.1392 6.22129 80.8298 6.04022C77.8504 4.26574 74.6668 3.95627 71.3417 4.72993C70.8248 4.85174 70.3145 5.05257 69.8405 5.2929C69.1557 5.64187 68.5104 6.09948 68.6092 6.99825C68.7014 7.83776 69.2841 8.33488 70.038 8.58508C70.7491 8.81883 71.48 9.02294 72.2174 9.13488C74.4462 9.47397 76.6948 9.71101 78.917 10.0863C79.9113 10.2542 80.9154 10.5571 81.8273 10.9884C85.6397 12.7793 86.308 17.5069 83.1574 20.3217C81.2117 22.06 78.7952 22.5604 76.2899 22.7217C72.9615 22.9357 69.7647 22.3102 66.6866 21.0526C66.2915 20.8913 65.8931 20.7398 65.3137 20.5127C65.4322 21.181 65.5277 21.7143 65.6594 22.4419C64.5631 22.4419 63.5557 22.4353 62.5516 22.4419C61.9721 22.4485 61.6956 22.0995 61.4948 21.6188C61.0569 20.5785 60.5697 19.5579 60.1581 18.511C59.8684 17.7736 59.4306 17.4048 58.5977 17.4147C55.9112 17.4476 53.2215 17.4476 50.5351 17.4147C49.7088 17.4048 49.2676 17.7406 48.9845 18.5011C48.5894 19.5579 48.1384 20.595 47.6347 21.6024C47.4668 21.9382 47.0717 22.3826 46.7655 22.3925C44.7935 22.4649 42.8182 22.4287 40.6289 22.4287H40.6157ZM51.2989 13.1151C53.1063 13.6221 56.652 13.5365 57.6495 13.0131C56.9549 10.4847 55.1837 6.70524 54.3145 6.00072C53.3038 8.38426 52.3063 10.7382 51.2989 13.1118V13.1151Z" fill="white"/>
<path d="M169.801 20.2789C169.705 21.0032 169.623 21.6188 169.528 22.3365H151.651C151.207 21.1019 151.187 2.36939 151.648 0.752926H169.557V4.53894C167.99 4.56198 166.456 4.59491 164.922 4.60478C163.361 4.61795 161.804 4.60478 160.244 4.60478H155.463V9.55623H165.798V13.4377C162.394 13.7143 158.97 13.3949 155.457 13.6287V18.3595C155.829 18.4155 156.092 18.4879 156.352 18.4879C160.438 18.4978 164.524 18.478 168.609 18.5143C169.419 18.5208 169.919 18.2213 170.285 17.5365C170.482 17.1645 170.762 16.8352 170.986 16.5093C172.751 17.1315 174.433 17.8097 176.165 18.3069C178.423 18.9587 180.747 18.939 183.032 18.4484C183.845 18.2739 184.682 17.9085 185.347 17.4147C186.565 16.506 186.4 15.0706 184.978 14.4978C183.901 14.0632 182.703 13.9085 181.544 13.7208C179.319 13.362 177.073 13.1282 174.858 12.72C173.982 12.5587 173.11 12.1735 172.326 11.7258C168.971 9.80314 168.606 5.20396 171.569 2.72165C173.291 1.27968 175.365 0.752926 177.521 0.496136C181.337 0.0418145 184.902 0.762803 188.161 2.84346C188.389 2.98832 188.606 3.14634 188.81 3.32083C188.882 3.38338 188.906 3.5019 189.021 3.73894C188.369 4.61466 187.674 5.54964 186.904 6.58668C186.361 6.30026 185.896 6.06322 185.436 5.81301C182.334 4.13729 179.101 3.92988 175.757 4.93071C175.45 5.02289 175.141 5.13812 174.864 5.29285C174.252 5.63853 173.603 5.99738 173.613 6.82701C173.623 7.76528 174.239 8.36775 175.042 8.57845C176.438 8.94388 177.873 9.17104 179.302 9.40149C180.945 9.66816 182.614 9.80314 184.24 10.1389C185.278 10.3529 186.301 10.7447 187.259 11.2056C190.868 12.9373 190.871 17.9941 188.28 20.2229C186.881 21.4278 185.264 22.0599 183.5 22.3957C179.243 23.2056 175.161 22.5571 171.22 20.8385C170.785 20.6476 170.341 20.483 169.801 20.2657V20.2789Z" fill="white"/>
<path d="M189.524 19.5875C190.212 18.4583 190.818 17.464 191.398 16.5126C193.251 17.1546 194.94 17.8262 196.678 18.3233C198.94 18.9719 201.264 18.9488 203.546 18.4385C204.402 18.2476 205.278 17.8163 205.966 17.2731C206.999 16.4566 206.851 15.3142 205.696 14.6361C205.156 14.3167 204.51 14.1093 203.885 14.0171C201.6 13.678 199.289 13.5035 197.024 13.0756C195.566 12.8023 194.061 12.3974 192.771 11.6961C189.38 9.85251 189.064 5.18419 192.043 2.71176C193.679 1.35538 195.631 0.822044 197.682 0.542208C201.492 0.0253356 205.067 0.667312 208.366 2.68542C208.728 2.906 209.05 3.18254 209.376 3.42287C208.958 4.60476 208.487 5.27637 207.207 6.51094C206.822 6.31012 206.397 6.10271 205.985 5.87555C202.901 4.15703 199.668 3.93316 196.323 4.91423C195.816 5.06238 195.305 5.28954 194.871 5.58913C193.771 6.34962 193.798 7.65003 194.999 8.32164C195.727 8.72987 196.599 8.95045 197.436 9.08543C199.822 9.4739 202.229 9.71423 204.609 10.1356C205.65 10.32 206.68 10.7085 207.638 11.1661C211.306 12.9175 211.477 17.9644 208.58 20.3776C206.654 21.9809 204.359 22.478 201.995 22.6789C197.873 23.0311 193.992 22.083 190.334 20.1834C190.104 20.0649 189.913 19.8739 189.528 19.5842L189.524 19.5875Z" fill="white"/>
<path d="M17.7943 6.64262C17.0239 6.20476 16.4412 5.82287 15.8189 5.52987C12.8659 4.14715 9.82059 3.97596 6.71276 4.9274C6.35721 5.03604 5.99836 5.1776 5.67573 5.36197C5.05679 5.71752 4.47079 6.12246 4.55309 6.96855C4.62881 7.75209 5.11935 8.32493 5.80412 8.506C7.24939 8.88789 8.73087 9.15786 10.2058 9.40806C11.8486 9.6846 13.5144 9.81629 15.144 10.1422C16.1317 10.3397 17.1095 10.6953 18.0247 11.1233C21.9259 12.9472 21.8502 18.2904 18.9169 20.5686C17.1358 21.9513 15.0881 22.511 12.9317 22.7019C8.70453 23.0706 4.70453 22.1817 0.931688 20.2624C0.655145 20.1208 0.418107 19.9003 0 19.6007C0.661729 18.5274 1.29383 17.5035 1.89301 16.5291C3.67079 17.1513 5.2642 17.7669 6.89383 18.2607C8.81976 18.8435 10.8148 18.9027 12.8099 18.7414C14.0543 18.6393 15.2626 18.3793 16.2601 17.5496C17.4815 16.5323 17.3564 15.0772 15.8749 14.4879C14.7984 14.0599 13.5967 13.9085 12.4346 13.7241C10.2091 13.3653 7.96379 13.1216 5.74815 12.7233C4.92181 12.5751 4.14157 12.1472 3.35474 11.8081C0.289712 10.4879 -0.803293 5.20065 2.64033 2.59982C4.28642 1.35538 6.16297 0.815458 8.15803 0.545499C11.9671 0.0286262 15.5424 0.680479 18.8412 2.692C19.1144 2.85991 19.3811 3.04427 19.6346 3.24509C19.7531 3.33727 19.8222 3.48871 20.0033 3.73233C19.3087 4.64756 18.6041 5.57266 17.7943 6.64262Z" fill="white"/>
<path d="M85.873 0.766144H89.7052V9.44105H100.52V0.795773H104.428V22.3234H100.576V13.5925C96.9019 13.5299 93.4418 13.5267 89.771 13.6024V22.1983C88.385 22.5999 87.1899 22.488 85.873 22.3168V0.766144Z" fill="white"/>
<path d="M142.364 22.3596H138.417C138.288 19.4032 138.37 16.5226 138.354 13.6419C138.341 10.7448 138.354 7.85095 138.354 4.753C135.681 4.41062 133.06 4.79251 130.426 4.50938C130.061 3.2814 130.186 2.12584 130.301 0.983451C131.437 0.578512 147.71 0.436948 150.298 0.808965C150.749 1.95794 150.601 3.14312 150.364 4.55218C147.737 4.58839 145.139 4.62132 142.37 4.65753V22.3563L142.364 22.3596Z" fill="white"/>
<path d="M120.513 13.0689C119.973 16.5685 119.45 19.943 118.93 23.301C117.58 23.3932 117.139 23.0409 117.185 21.7405C117.224 20.6179 117.415 19.5018 117.554 18.3825C117.768 16.6936 117.995 15.0047 118.232 13.194C117.646 13.1644 117.234 13.1084 116.826 13.1281C114.308 13.2434 111.789 13.3816 109.271 13.5002C108.899 13.5166 108.517 13.5002 108.148 13.4442C107.562 13.3619 107.038 13.0261 107.111 12.4269C107.167 11.9693 107.493 11.3932 107.875 11.166C108.349 10.8862 109.004 10.8401 109.583 10.817C112.102 10.715 114.624 10.6623 117.145 10.5833C117.567 10.5701 117.988 10.5142 118.551 10.4681C118.699 9.72403 118.844 9.00304 118.986 8.28534C119.378 6.28699 119.726 4.27546 120.171 2.29028C120.421 1.17093 120.895 0.845008 121.659 1.02608C122.413 1.20056 122.834 1.78657 122.673 2.77094C122.344 4.78246 121.913 6.77423 121.531 8.77917C121.432 9.28946 121.363 9.80304 121.247 10.5109C122.739 10.5701 124.059 10.6195 125.382 10.6788C127.901 10.7907 130.42 10.8993 132.938 11.0343C133.55 11.0672 134.235 11.0211 134.759 11.8607C134.35 12.0648 134.021 12.3347 133.662 12.3841C132.546 12.5388 131.424 12.6607 130.301 12.7002C127.835 12.7891 125.366 12.8088 122.9 12.8779C122.209 12.8977 121.517 12.9866 120.51 13.0689H120.513Z" fill="white"/>
</g>
</svg>
