<svg width="208" height="41" viewBox="0 0 208 41" fill="none" xmlns="http://www.w3.org/2000/svg">
<g opacity="0.8">
<path d="M14.5341 31.1362C15.8746 28.8369 17.053 26.7724 18.2922 24.7403C18.438 24.5014 18.9078 24.3638 19.2317 24.3516C20.5803 24.3112 21.9288 24.3152 23.2773 24.3435C25.3062 24.3881 26.6993 25.7239 26.7317 27.7763C26.7844 30.9014 26.7803 34.0305 26.7317 37.1597C26.7034 39.2849 25.2171 40.726 22.9129 40.7463C16.644 40.7949 10.3711 40.807 4.10217 40.7463C0.979872 40.7139 -0.534704 37.8843 1.04062 35.2085C7.3824 24.4286 13.7242 13.6486 20.07 2.87266C21.7466 0.0228233 24.8 0.00663108 26.4887 2.83622C27.898 5.19624 29.2749 7.5684 30.753 10.0782C28.1046 10.2199 26.2539 11.4586 24.8729 13.6283C24.3424 12.754 23.8484 11.9363 23.2773 10.9931C18.8025 18.6115 14.4045 26.1004 9.94584 33.6946C10.2131 33.7715 10.3306 33.8322 10.4439 33.8362C13.3111 33.8443 16.1742 33.8443 19.0414 33.8605C19.5841 33.8605 19.8756 33.6824 19.827 33.1035C19.8149 32.97 19.827 32.8364 19.827 32.6987C19.8351 31.6624 19.3276 31.1429 18.3044 31.1402C17.13 31.1402 15.9596 31.1402 14.5341 31.1402V31.1362Z" fill="white"/>
<path d="M70.2818 16.207C67.3417 13.0697 63.1827 12.2237 59.8741 14.0291C56.6587 15.79 55.1603 19.5912 56.1768 23.4247C57.0799 26.8412 60.348 29.0069 64.5029 28.9422C67.7993 28.8936 70.3263 27.3068 70.9419 24.7524H64.1141V19.6114H77.0771C78.1017 27.7359 73.5701 33.6096 66.3334 34.5811C59.8741 35.4474 53.99 32.6623 51.382 27.3149C46.571 17.4578 53.9657 6.94909 64.0453 7.32151C68.3541 7.48343 71.9583 9.01764 74.6757 12.4302C74.8782 12.6852 75.0482 12.9685 75.2791 13.3045C73.5661 14.2963 71.9422 15.2355 70.2737 16.2029L70.2818 16.207Z" fill="white"/>
<path d="M141.163 27.0597C141.645 29.7841 146.675 30.8325 149.299 28.3713C150.724 29.189 152.174 30.0189 153.705 30.8973C152.381 32.7958 150.631 33.9536 148.445 34.411C144.593 35.2125 140.977 34.7956 137.992 31.966C134.931 29.0635 134.186 24.052 136.142 20.1295C137.96 16.4781 142.151 14.4258 146.355 14.9196C151.142 15.4823 155.402 19.9595 154.628 26.2461C154.543 26.9464 154.195 27.08 153.555 27.0759C149.817 27.0476 146.075 27.0638 142.338 27.0638C141.969 27.0638 141.605 27.0638 141.167 27.0638L141.163 27.0597ZM141.026 22.8295H148.987C148.7 21.016 147.319 19.8987 145.359 19.838C142.973 19.7651 141.511 20.7448 141.026 22.8295Z" fill="white"/>
<path d="M189.658 15.4905H195.121C195.153 15.9763 195.178 16.4054 195.21 16.8628C195.319 16.8547 195.449 16.8831 195.498 16.8304C197.757 14.5878 200.491 14.3814 203.273 15.3691C205.917 16.3042 207.44 18.4578 207.558 21.2064C207.736 25.4933 207.606 29.7883 207.606 34.1602H202.074C202.074 33.7675 202.074 33.4072 202.074 33.051C202.074 29.8247 202.107 26.5984 202.05 23.3721C202.005 20.838 199.928 19.4455 197.506 20.2227C196.291 20.6113 195.599 21.4493 195.352 22.6556C195.226 23.275 195.186 23.9226 195.182 24.5582C195.166 27.3797 195.174 30.2052 195.174 33.0267V34.1723H189.662V15.4905H189.658Z" fill="white"/>
<path d="M93.8344 34.1399C93.8101 33.6542 93.7859 33.221 93.7616 32.7595C93.6522 32.7636 93.5267 32.7312 93.4781 32.7798C91.1981 34.9212 88.5172 35.2896 85.6946 34.2776C82.9854 33.306 81.5113 31.1241 81.3979 28.3391C81.2238 24.0845 81.3534 19.8179 81.3534 15.4946H86.8933C86.8933 15.8832 86.8933 16.2435 86.8933 16.5997C86.8933 19.7612 86.8812 22.9187 86.8974 26.0802C86.9095 28.1771 87.9948 29.428 89.882 29.5818C91.9392 29.7478 93.3768 28.6386 93.6846 26.5498C93.8101 25.6916 93.7899 24.8091 93.794 23.9348C93.8061 21.1497 93.798 18.3646 93.798 15.5067H99.3379V34.1399H93.8425H93.8344Z" fill="white"/>
<path d="M155.969 15.4379C157.86 15.4379 159.735 15.4095 161.61 15.4743C161.853 15.4824 162.185 15.956 162.294 16.2758C163.412 19.5831 164.493 22.8984 165.587 26.2138C165.68 26.4972 165.789 26.7765 165.971 27.2946C166.174 26.7765 166.316 26.4567 166.425 26.1247C167.51 22.8458 168.612 19.5669 169.657 16.2718C169.867 15.6079 170.159 15.3893 170.851 15.4136C172.564 15.4662 174.285 15.4298 176.144 15.4298C175.508 17.1502 174.909 18.7735 174.31 20.3967C172.702 24.7403 171.078 29.0758 169.499 33.4274C169.276 34.0427 168.984 34.2613 168.349 34.2451C166.733 34.2087 165.113 34.2613 163.497 34.2046C163.189 34.1925 162.711 33.9213 162.61 33.6541C160.371 27.7197 158.172 21.7731 155.973 15.8224C155.94 15.7374 155.973 15.6281 155.973 15.4298L155.969 15.4379Z" fill="white"/>
<path d="M114.986 6.75882H120.429V34.1237H114.986V6.75882Z" fill="white"/>
<path d="M130.962 34.156H125.515V6.78308H130.962V34.156Z" fill="white"/>
<path d="M30.6356 23.2222C33.1748 23.1858 35.0741 22.0888 36.455 19.9757C36.617 20.1497 36.7506 20.2509 36.8276 20.3845C39.7595 25.3677 42.7037 30.3428 45.5992 35.3502C46.9923 37.7547 45.8057 40.2362 43.0965 40.6451C41.8046 40.8394 40.6343 40.4184 39.9539 39.2809C36.8357 34.0548 33.7741 28.8004 30.6964 23.5542C30.664 23.5015 30.6721 23.4246 30.6316 23.2222H30.6356Z" fill="white"/>
<path d="M109.941 15.5026V34.1439H104.445V15.5026H109.941Z" fill="white"/>
<path d="M184.539 34.1884H179.076V15.5107H184.539V34.1925V34.1884Z" fill="white"/>
<path d="M26.8734 16.6766C26.8734 14.4664 28.5581 12.8026 30.7732 12.8229C32.9479 12.8391 34.665 14.5838 34.6447 16.7495C34.6245 18.7938 32.8102 20.5911 30.753 20.5992C28.6148 20.6073 26.8734 18.8464 26.8734 16.6766Z" fill="white"/>
<path d="M107.138 13.6284C105.283 13.6081 103.789 12.1185 103.801 10.2928C103.809 8.44283 105.376 6.9329 107.255 6.96124C109.045 6.98957 110.592 8.58451 110.548 10.3535C110.503 12.1751 108.972 13.6405 107.138 13.6243V13.6284Z" fill="white"/>
<path d="M181.769 13.6282C179.923 13.608 178.416 12.1021 178.428 10.2926C178.44 8.45078 180.02 6.93275 181.891 6.96514C183.681 6.99348 185.236 8.60055 185.183 10.3615C185.13 12.1912 183.608 13.6485 181.765 13.6282H181.769Z" fill="white"/>
</g>
</svg>
