<svg width="74" height="70" viewBox="0 0 74 70" fill="none" xmlns="http://www.w3.org/2000/svg">
<g opacity="0.8">
<path d="M0.591919 69.2798V0H73.0165V69.2798H0.591919ZM70.1576 66.4463V2.85328H3.4452V66.4492H70.1576V66.4463Z" fill="white"/>
<path d="M62.3479 49.8249V53.2726H11.2946V49.8249H62.3479Z" fill="white"/>
<path d="M18.7902 38.7939L19.6592 37.6503C20.3924 38.7344 21.3321 39.51 22.4587 40.0422C24.4204 40.9706 26.4782 41.4122 28.6352 40.9989C31.3243 40.4837 33.1614 38.1626 33.2491 35.4226C33.3029 33.7327 32.8981 32.2636 31.5762 31.154C30.5119 30.2595 29.2268 29.8123 27.8794 29.549C26.3112 29.2405 24.7062 29.0593 23.1777 28.6149C21.1255 28.0176 19.5064 26.809 18.8978 24.6209C17.9071 21.0599 20.1235 17.298 23.8457 16.3696C26.6566 15.6676 29.2721 16.2195 31.6272 17.9519C31.9555 18.1953 32.0489 18.3793 31.7913 18.7218C31.6102 18.9596 31.48 19.237 31.2903 19.5597C30.945 19.3078 30.6478 19.0558 30.3194 18.8549C27.9558 17.4056 25.4988 16.9046 22.9173 18.2633C20.4716 19.5512 19.3988 22.6451 20.616 24.8983C21.4935 26.5202 22.9796 27.3128 24.7232 27.6129C26.5801 27.9327 28.4597 28.1139 30.2203 28.8612C32.4084 29.7868 34.0841 31.2021 34.5795 33.6308C35.4796 38.0551 32.7028 41.6217 28.788 42.3406C25.1846 43.0002 21.9266 42.0519 19.2714 39.3996C19.0988 39.2269 18.9629 39.0203 18.7874 38.7995L18.7902 38.7939Z" fill="white"/>
<path d="M45.8029 42.6548C41.2994 42.5784 37.3846 39.2354 36.6458 34.797C36.0542 31.2417 37.0648 28.2129 39.7058 25.7701C41.0814 24.4963 42.7402 23.7773 44.6141 23.5084C49.6356 22.7866 54.2609 26.4523 55.0563 31.5078C55.8489 36.5322 52.5738 41.4292 47.6004 42.4284C47.0088 42.5473 46.403 42.5812 45.8029 42.6577V42.6548ZM53.7202 33.0137C53.8533 28.997 50.5726 24.9322 45.8086 24.9379C41.3221 24.9436 38.0668 28.5668 37.8885 32.6202C37.6819 37.3389 41.3702 41.1065 45.8426 41.098C50.4367 41.0867 53.8448 37.1294 53.7202 33.0165V33.0137Z" fill="white"/>
<path d="M43.2525 20.089C42.9977 19.5511 42.7684 19.0586 42.4995 18.4897C44.4725 17.5923 46.4171 16.7092 48.3986 15.8062C48.6363 16.3525 48.8515 16.8451 49.0892 17.3914C47.1389 18.2915 45.2282 19.1747 43.2496 20.0861L43.2525 20.089Z" fill="white"/>
</g>
</svg>
