<?xml version="1.0" encoding="utf-8"?>
<!-- Generator: Adobe Illustrator 26.3.1, SVG Export Plug-In . SVG Version: 6.00 Build 0)  -->
<svg version="1.1" id="Layer_1" xmlns="http://www.w3.org/2000/svg" xmlns:xlink="http://www.w3.org/1999/xlink" x="0px" y="0px"
	 viewBox="0 0 109.5 124.5" style="enable-background:new 0 0 109.5 124.5;" xml:space="preserve">
<style type="text/css">
	.st0{fill:#FDFEFE;}
</style>
<path d="M54.2,101.7C31.7,101.8,13,83.6,13,60.6c0-22.7,18.5-41.2,41.2-41.2c23.1,0.1,41.2,18.7,41.1,41.2
	C95.2,83.5,76.7,101.8,54.2,101.7z M58.8,53.2c-0.1,0-0.1,0.1-0.2,0.1c-0.8-1.5-1.5-3-2.3-4.5c-1.4-2.5-3.3-4.5-5.9-5.7
	c-5.2-2.3-10.6-4.4-15.8-6.6c-0.8-0.3-1.6-0.9-2.3-0.1c-0.6,0.7-0.1,1.6,0.3,2.3c6,11.1,11.9,22.3,17.9,33.4
	c1.5,2.7,3.6,4.9,6.4,6.1c4.7,2.1,9.5,4.2,14.3,6.3c0.7,0.3,1.6,0.8,2.2,0.1c0.7-0.7,0.2-1.6-0.2-2.3c-3.3-6.7-6.7-13.3-10-20
	c-0.3-0.6-0.4-1.1,0-1.7c3.5-5.3,6.9-10.5,10.4-15.8c1.1-1.7,2.3-3.3,3.2-5.1c0.5-1.2,0-1.9-1.3-1.7c-0.5,0.1-1.1,0.3-1.6,0.4
	c-2.1,0.7-4.3,1.4-6.4,2c-3.1,1-6.3,2-9.4,3c-0.8,0.3-1.1,0.6-0.8,1.5c0.3,1,0.4,2,0.6,2.9C58.1,49.7,58.4,51.5,58.8,53.2z
	 M42.5,63.6c-3.6,5.8-7,11.4-10.5,17.1c-0.4,0.7-1.1,1.5-0.5,2.3c0.6,0.8,1.5,0.4,2.3,0.1c4.8-1.6,9.6-3.3,14.5-4.9
	c0.9-0.3,1.9-0.7,2.7-1.4c0.4-0.4,0.5-0.6,0.1-1.1c-0.7-0.7-1.3-1.4-1.8-2.1C46.7,70.5,44.3,67.3,42.5,63.6z"/>
<path class="st0" d="M58.8,53.2c-0.4-1.7-0.7-3.5-1.1-5.2c-0.2-1-0.3-2-0.6-2.9c-0.3-0.9,0-1.3,0.8-1.5c3.1-1,6.3-2,9.4-3
	c2.1-0.7,4.3-1.4,6.4-2c0.5-0.2,1.1-0.3,1.6-0.4c1.3-0.2,1.9,0.5,1.3,1.7c-0.8,1.8-2.1,3.4-3.2,5.1c-3.4,5.3-6.9,10.6-10.4,15.8
	c-0.4,0.6-0.4,1.1,0,1.7c3.4,6.7,6.7,13.3,10,20c0.4,0.7,0.9,1.6,0.2,2.3c-0.7,0.7-1.5,0.3-2.2-0.1c-4.8-2.1-9.5-4.2-14.3-6.3
	c-2.8-1.3-5-3.4-6.4-6.1c-6-11.1-11.9-22.3-17.9-33.4c-0.4-0.7-0.9-1.6-0.3-2.3c0.7-0.8,1.5-0.3,2.3,0.1c5.3,2.2,10.6,4.3,15.8,6.6
	c2.6,1.1,4.5,3.2,5.9,5.7c0.8,1.5,1.5,3,2.3,4.5C58.6,53.3,58.7,53.2,58.8,53.2z"/>
<path class="st0" d="M42.5,63.6c1.9,3.7,4.2,6.9,6.7,10c0.6,0.7,1.2,1.5,1.8,2.1c0.5,0.5,0.3,0.7-0.1,1.1c-0.8,0.7-1.7,1.1-2.7,1.4
	c-4.8,1.6-9.6,3.3-14.5,4.9c-0.8,0.3-1.7,0.7-2.3-0.1c-0.6-0.8,0-1.6,0.5-2.3C35.5,75,38.9,69.4,42.5,63.6z"/>
</svg>
