<svg width="112" height="42" viewBox="0 0 112 42" fill="none" xmlns="http://www.w3.org/2000/svg">
<path d="M0.0570068 8.11746C0.0693432 8.01893 0.0877027 7.92125 0.111983 7.82495C0.0877027 7.92125 0.0693432 8.01893 0.0570068 8.11746Z" fill="url(#paint0_linear_2_863)"/>
<path d="M0.0141602 8.47072C0.0141602 8.37322 0.0141602 8.26962 0.0141602 8.17212C0.0324854 8.26962 0.0202686 8.37322 0.0141602 8.47072Z" fill="url(#paint1_linear_2_863)"/>
<path d="M0.0324707 9.18374C0.0357764 9.16356 0.0357764 9.14298 0.0324707 9.1228C0.0357764 9.14298 0.0357764 9.16356 0.0324707 9.18374Z" fill="url(#paint2_linear_2_863)"/>
<path d="M0.124268 7.78837C0.145046 7.69142 0.171563 7.59578 0.203678 7.50195C0.171563 7.59578 0.145046 7.69142 0.124268 7.78837Z" fill="url(#paint3_linear_2_863)"/>
<path d="M0.643311 6.59384L0.826563 6.33789L0.643311 6.59384Z" fill="url(#paint4_linear_2_863)"/>
<path d="M0.00811687 8.84276C0.00201443 8.73518 0.00201443 8.62735 0.00811687 8.51978C0.00201443 8.62735 0.00201443 8.73518 0.00811687 8.84276Z" fill="url(#paint5_linear_2_863)"/>
<path d="M0.337891 7.16071C0.375638 7.06903 0.418462 6.97952 0.466167 6.89258C0.418462 6.97952 0.375638 7.06903 0.337891 7.16071Z" fill="url(#paint6_linear_2_863)"/>
<path d="M0.21582 7.48369C0.246101 7.38789 0.282836 7.29423 0.325772 7.20337C0.282836 7.29423 0.246101 7.38789 0.21582 7.48369Z" fill="url(#paint7_linear_2_863)"/>
<path d="M0.484497 6.85604L0.643317 6.59399L0.484497 6.85604Z" fill="url(#paint8_linear_2_863)"/>
<g clip-path="url(#clip0_2_863)">
<path d="M22.8772 7.50515C20.1095 7.32951 17.5015 6.28796 15.4574 4.5297C14.1227 3.38145 12.4167 2.74877 10.6532 2.74877H3.00479C1.50949 2.74877 0.296631 1.53631 0.296631 0.0415039H10.6522C13.0638 0.0415039 15.3979 0.90647 17.2228 2.47776C18.7909 3.82715 20.7944 4.63546 22.931 4.79504C23.3136 2.11138 25.6279 0.0415039 28.4163 0.0415039H34.7281C36.7665 0.0415039 38.4914 1.63735 38.5499 3.67417C38.6113 5.79032 36.9082 7.53064 34.8055 7.53064H25.5825L22.8744 7.50515H22.8772ZM28.4182 2.74877C27.1184 2.74877 26.0945 3.62885 25.762 4.82337H34.8074C35.3799 4.82337 35.8446 4.35784 35.8446 3.7856C35.8446 3.21336 35.3799 2.74877 34.8084 2.74877H28.4172H28.4182Z" fill="url(#paint9_linear_2_863)"/>
<path d="M21.738 36.9075C21.1722 36.8697 20.7453 36.374 20.7453 35.8064V11.5685C20.7453 10.8121 20.1256 10.2012 19.3662 10.2153C18.6209 10.2285 18.0371 10.8688 18.0371 11.6138V35.8442C18.0371 37.2408 18.8003 38.4627 19.932 39.1143C19.9357 39.1143 22.8772 38.3447 22.8772 35.8442C22.8772 36.4561 22.3586 36.949 21.738 36.9075Z" fill="url(#paint10_linear_2_863)"/>
<path d="M15.8399 9.84505C15.5764 7.03391 13.2026 4.82617 10.3225 4.82617H4.16095C2.92731 4.82617 1.82685 5.40785 1.11841 6.31059C1.11841 6.32192 1.28466 9.7223 4.01737 9.83939C3.44684 9.76668 3.00477 9.28037 3.00477 8.68925C3.00477 8.05091 3.5224 7.53344 4.16095 7.53344H10.3225C11.7073 7.53344 12.8626 8.53155 13.1082 9.84505L13.1459 12.5523H13.1554V39.6175C14.6507 39.6175 15.8635 38.405 15.8635 36.9102V12.5523L15.839 9.84505H15.8399Z" fill="url(#paint11_linear_2_863)"/>
<path d="M13.1469 12.5525L13.1563 13.2437V12.5525H13.1469Z" fill="url(#paint12_linear_2_863)"/>
<path d="M35.8229 9.84501H4.16099C1.28375 9.84501 1.11845 6.31055 1.11845 6.31055C0.580971 6.99515 0.270199 7.86484 0.298537 8.8063C0.360881 10.9073 2.1405 12.5523 4.24317 12.5523H38.531C38.531 11.0575 37.3182 9.84501 35.8229 9.84501Z" fill="url(#paint13_linear_2_863)"/>
<path d="M38.5508 3.65718C38.4828 1.62602 36.7551 0.0415039 34.7214 0.0415039H28.4181C25.6297 0.0415039 23.3154 2.11138 22.9329 4.79504C22.9329 4.79504 22.8771 5.16426 22.8771 7.50515V35.8441C22.8771 38.3474 19.9319 39.1151 19.9319 39.1151C20.9143 39.6855 21.9259 39.6156 21.9259 39.6156C23.9785 39.5552 25.5862 37.8167 25.5862 35.7639V7.53064L25.6646 5.46926C25.7194 4.03961 26.8284 2.83376 28.2585 2.7535C28.3123 2.75066 28.3662 2.74877 28.42 2.74877H34.8112C37.7649 2.74877 38.155 5.46832 38.155 5.46832C38.429 4.9263 38.5744 4.30968 38.5527 3.65718H38.5508Z" fill="url(#paint14_linear_2_863)"/>
</g>
<path d="M49.9751 26.899V17.4107H46.9942C46.6785 17.411 46.375 17.2893 46.1472 17.0711C45.9194 16.853 45.7852 16.5554 45.7725 16.2407C45.7656 16.0788 45.7925 15.9172 45.8514 15.7662C45.9104 15.6152 46.0001 15.4781 46.115 15.3635C46.2298 15.2489 46.3673 15.1594 46.5187 15.1006C46.67 15.0418 46.832 15.015 46.9942 15.0219H49.9874V9.48853C50.6743 9.48853 51.333 9.76075 51.8187 10.2453C52.3045 10.7299 52.5773 11.3871 52.5773 12.0724V14.9731H58.9118C58.9167 15.2925 58.8576 15.6097 58.7381 15.906C58.6185 16.2024 58.4409 16.4719 58.2157 16.6989C57.9904 16.9259 57.722 17.1058 57.4262 17.228C57.1303 17.3503 56.813 17.4124 56.4928 17.4107H52.5651V26.6126C52.5651 28.3068 53.518 29.3001 55.0085 29.3001C55.8789 29.257 56.7021 28.892 57.3175 28.2763C57.6058 27.9924 57.9881 27.8234 58.3926 27.801C58.5313 27.8017 58.6684 27.8302 58.7958 27.885C58.9233 27.9398 59.0383 28.0196 59.1341 28.1197C59.2299 28.2198 59.3044 28.3382 59.3534 28.4677C59.4023 28.5972 59.4245 28.7352 59.4188 28.8735C59.3861 29.1719 59.2942 29.4609 59.1485 29.7235C59.0027 29.9861 58.8059 30.2171 58.5697 30.4031C57.5111 31.3159 56.1572 31.8159 54.758 31.8108C52.0459 31.7864 49.9751 30.007 49.9751 26.899Z" fill="white"/>
<path d="M49.9751 26.899V17.4107H46.9942C46.6785 17.411 46.375 17.2893 46.1472 17.0711C45.9194 16.853 45.7852 16.5554 45.7725 16.2407C45.7656 16.0788 45.7925 15.9172 45.8514 15.7662C45.9104 15.6152 46.0001 15.4781 46.115 15.3635C46.2298 15.2489 46.3673 15.1594 46.5187 15.1006C46.67 15.0418 46.832 15.015 46.9942 15.0219H49.9874V9.48853C50.6743 9.48853 51.333 9.76075 51.8187 10.2453C52.3045 10.7299 52.5773 11.3871 52.5773 12.0724V14.9731H58.9118C58.9167 15.2925 58.8576 15.6097 58.7381 15.906C58.6185 16.2024 58.4409 16.4719 58.2157 16.6989C57.9904 16.9259 57.722 17.1058 57.4262 17.228C57.1303 17.3503 56.813 17.4124 56.4928 17.4107H52.5651V26.6126C52.5651 28.3068 53.518 29.3001 55.0085 29.3001C55.8789 29.257 56.7021 28.892 57.3175 28.2763C57.6058 27.9924 57.9881 27.8234 58.3926 27.801C58.5313 27.8017 58.6684 27.8302 58.7958 27.885C58.9233 27.9398 59.0383 28.0196 59.1341 28.1197C59.2299 28.2198 59.3044 28.3382 59.3534 28.4677C59.4023 28.5972 59.4245 28.7352 59.4188 28.8735C59.3861 29.1719 59.2942 29.4609 59.1485 29.7235C59.0027 29.9861 58.8059 30.2171 58.5697 30.4031C57.5111 31.3159 56.1572 31.8159 54.758 31.8108C52.0459 31.7864 49.9751 30.007 49.9751 26.899Z" fill="white"/>
<path d="M62.589 23.0538C62.589 17.8922 65.8509 14.5527 70.6643 14.5527C75.6244 14.5527 78.6053 17.7886 78.6053 22.3835C78.6325 22.5799 78.6152 22.7799 78.5545 22.9687C78.4938 23.1575 78.3913 23.3302 78.2546 23.4742C78.118 23.6181 77.9506 23.7296 77.765 23.8003C77.5793 23.871 77.3801 23.8991 77.182 23.8826H65.2584C65.4966 27.1978 67.7445 29.3672 71.2019 29.3672C72.1014 29.4265 73.0006 29.2475 73.8083 28.8483C74.6161 28.4491 75.3038 27.8439 75.8015 27.0942C75.9271 26.8766 76.104 26.693 76.3169 26.5591C76.5299 26.4253 76.7723 26.3454 77.0232 26.3263C77.1709 26.3107 77.3202 26.3284 77.4601 26.3782C77.6 26.4279 77.7269 26.5085 77.8313 26.6139C77.9358 26.7192 78.0151 26.8467 78.0634 26.9868C78.1117 27.1269 78.1278 27.2761 78.1105 27.4232C78.0846 27.9028 77.9237 28.3654 77.6463 28.7578C76.3085 30.9151 73.6269 31.8048 71.1347 31.8048C65.9425 31.7865 62.589 28.38 62.589 23.0538ZM75.9603 21.5486C75.6793 18.5321 73.6208 16.8075 70.5849 16.8075C67.6468 16.8075 65.5027 18.6357 65.2645 21.5486H75.9603Z" fill="white"/>
<path d="M62.589 23.0538C62.589 17.8922 65.8509 14.5527 70.6643 14.5527C75.6244 14.5527 78.6053 17.7886 78.6053 22.3835C78.6325 22.5799 78.6152 22.7799 78.5545 22.9687C78.4938 23.1575 78.3913 23.3302 78.2546 23.4742C78.118 23.6181 77.9506 23.7296 77.765 23.8003C77.5793 23.871 77.3801 23.8991 77.182 23.8826H65.2584C65.4966 27.1978 67.7445 29.3672 71.2019 29.3672C72.1014 29.4265 73.0006 29.2475 73.8083 28.8483C74.6161 28.4491 75.3038 27.8439 75.8015 27.0942C75.9271 26.8766 76.104 26.693 76.3169 26.5591C76.5299 26.4253 76.7723 26.3454 77.0232 26.3263C77.1709 26.3107 77.3202 26.3284 77.4601 26.3782C77.6 26.4279 77.7269 26.5085 77.8313 26.6139C77.9358 26.7192 78.0151 26.8467 78.0634 26.9868C78.1117 27.1269 78.1278 27.2761 78.1105 27.4232C78.0846 27.9028 77.9237 28.3654 77.6463 28.7578C76.3085 30.9151 73.6269 31.8048 71.1347 31.8048C65.9425 31.7865 62.589 28.38 62.589 23.0538ZM75.9603 21.5486C75.6793 18.5321 73.6208 16.8075 70.5849 16.8075C67.6468 16.8075 65.5027 18.6357 65.2645 21.5486H75.9603Z" fill="white"/>
<path d="M109.618 31.6522C109.445 31.6549 109.273 31.6222 109.114 31.5561C108.954 31.4901 108.81 31.3921 108.689 31.2681C108.569 31.1442 108.476 30.997 108.415 30.8356C108.354 30.6742 108.327 30.502 108.335 30.3298V17.2704C108.335 16.5851 108.608 15.9279 109.094 15.4433C109.579 14.9587 110.238 14.6865 110.925 14.6865V30.3298C110.933 30.5039 110.904 30.6778 110.841 30.8404C110.779 31.0031 110.683 31.1511 110.56 31.2752C110.438 31.3993 110.291 31.4969 110.128 31.5617C109.966 31.6266 109.792 31.6574 109.618 31.6522Z" fill="white"/>
<path d="M109.618 31.6522C109.445 31.6549 109.273 31.6222 109.114 31.5561C108.954 31.4901 108.81 31.3921 108.689 31.2681C108.569 31.1442 108.476 30.997 108.415 30.8356C108.354 30.6742 108.327 30.502 108.335 30.3298V17.2704C108.335 16.5851 108.608 15.9279 109.094 15.4433C109.579 14.9587 110.238 14.6865 110.925 14.6865V30.3298C110.933 30.5039 110.904 30.6778 110.841 30.8404C110.779 31.0031 110.683 31.1511 110.56 31.2752C110.438 31.3993 110.291 31.4969 110.128 31.5617C109.966 31.6266 109.792 31.6574 109.618 31.6522Z" fill="white"/>
<path d="M95.6478 30.3299V17.4107H92.5936C92.2779 17.4109 91.9743 17.2892 91.7466 17.0711C91.5188 16.853 91.3845 16.5554 91.3719 16.2406C91.3659 16.079 91.3934 15.9178 91.4527 15.7672C91.512 15.6167 91.6017 15.4799 91.7164 15.3655C91.8311 15.2511 91.9681 15.1616 92.1191 15.1024C92.27 15.0433 92.4315 15.0159 92.5936 15.0218H95.6478V14.2967C95.6478 11.3411 97.5536 9.50069 100.535 9.50069C101.679 9.46563 102.806 9.78033 103.766 10.4026C103.973 10.5346 104.146 10.714 104.271 10.926C104.395 11.1379 104.467 11.3763 104.481 11.6214C104.484 11.7567 104.46 11.8914 104.409 12.0169C104.358 12.1424 104.282 12.2561 104.185 12.351C104.088 12.4459 103.973 12.5199 103.846 12.5684C103.719 12.6169 103.584 12.6389 103.448 12.633C103.171 12.6113 102.904 12.519 102.672 12.3649C102.071 11.9835 101.369 11.7884 100.657 11.8042C99.0929 11.8042 98.2133 12.7061 98.2133 14.2967V14.9731H103.711C103.717 15.2919 103.66 15.6088 103.542 15.9051C103.424 16.2014 103.247 16.471 103.023 16.6982C102.799 16.9254 102.531 17.1055 102.236 17.2278C101.941 17.3502 101.624 17.4124 101.304 17.4107H98.25V30.3299C98.2533 30.6733 98.1214 31.0042 97.8827 31.2515C97.6439 31.4988 97.3174 31.6428 96.9733 31.6523C96.7965 31.663 96.6194 31.6361 96.4537 31.5734C96.288 31.5107 96.1376 31.4137 96.0123 31.2887C95.887 31.1637 95.7897 31.0136 95.7269 30.8483C95.6641 30.6831 95.6371 30.5064 95.6478 30.3299Z" fill="white"/>
<path d="M95.6478 30.3299V17.4107H92.5936C92.2779 17.4109 91.9743 17.2892 91.7466 17.0711C91.5188 16.853 91.3845 16.5554 91.3719 16.2406C91.3659 16.079 91.3934 15.9178 91.4527 15.7672C91.512 15.6167 91.6017 15.4799 91.7164 15.3655C91.8311 15.2511 91.9681 15.1616 92.1191 15.1024C92.27 15.0433 92.4315 15.0159 92.5936 15.0218H95.6478V14.2967C95.6478 11.3411 97.5536 9.50069 100.535 9.50069C101.679 9.46563 102.806 9.78033 103.766 10.4026C103.973 10.5346 104.146 10.714 104.271 10.926C104.395 11.1379 104.467 11.3763 104.481 11.6214C104.484 11.7567 104.46 11.8914 104.409 12.0169C104.358 12.1424 104.282 12.2561 104.185 12.351C104.088 12.4459 103.973 12.5199 103.846 12.5684C103.719 12.6169 103.584 12.6389 103.448 12.633C103.171 12.6113 102.904 12.519 102.672 12.3649C102.071 11.9835 101.369 11.7884 100.657 11.8042C99.0929 11.8042 98.2133 12.7061 98.2133 14.2967V14.9731H103.711C103.717 15.2919 103.66 15.6088 103.542 15.9051C103.424 16.2014 103.247 16.471 103.023 16.6982C102.799 16.9254 102.531 17.1055 102.236 17.2278C101.941 17.3502 101.624 17.4124 101.304 17.4107H98.25V30.3299C98.2533 30.6733 98.1214 31.0042 97.8827 31.2515C97.6439 31.4988 97.3174 31.6428 96.9733 31.6523C96.7965 31.663 96.6194 31.6361 96.4537 31.5734C96.288 31.5107 96.1376 31.4137 96.0123 31.2887C95.887 31.1637 95.7897 31.0136 95.7269 30.8483C95.6641 30.6831 95.6371 30.5064 95.6478 30.3299Z" fill="white"/>
<path d="M85.0681 31.6522C84.8952 31.6549 84.7236 31.6222 84.5639 31.5561C84.4043 31.4901 84.2598 31.3921 84.1396 31.2681C84.0194 31.1442 83.9259 30.997 83.865 30.8356C83.804 30.6742 83.7769 30.5021 83.7853 30.3298V17.2704C83.7853 16.9306 83.8525 16.5941 83.983 16.2802C84.1136 15.9663 84.3049 15.6812 84.546 15.4412C84.7872 15.2012 85.0734 15.011 85.3884 14.8815C85.7033 14.752 86.0407 14.6857 86.3814 14.6865V30.3298C86.3891 30.5045 86.3604 30.6788 86.2973 30.8419C86.2342 31.005 86.138 31.1533 86.0146 31.2775C85.8913 31.4017 85.7435 31.4991 85.5806 31.5636C85.4177 31.6281 85.2432 31.6582 85.0681 31.6522Z" fill="white"/>
<path d="M85.0681 31.6522C84.8952 31.6549 84.7236 31.6222 84.5639 31.5561C84.4043 31.4901 84.2598 31.3921 84.1396 31.2681C84.0194 31.1442 83.9259 30.997 83.865 30.8356C83.804 30.6742 83.7769 30.5021 83.7853 30.3298V17.2704C83.7853 16.9306 83.8525 16.5941 83.983 16.2802C84.1136 15.9663 84.3049 15.6812 84.546 15.4412C84.7872 15.2012 85.0734 15.011 85.3884 14.8815C85.7033 14.752 86.0407 14.6857 86.3814 14.6865V30.3298C86.3891 30.5045 86.3604 30.6788 86.2973 30.8419C86.2342 31.005 86.138 31.1533 86.0146 31.2775C85.8913 31.4017 85.7435 31.4991 85.5806 31.5636C85.4177 31.6281 85.2432 31.6582 85.0681 31.6522Z" fill="white"/>
<path d="M109.52 12.6635C110.441 12.6635 111.188 11.9187 111.188 10.9998C111.188 10.081 110.441 9.33618 109.52 9.33618C108.599 9.33618 107.852 10.081 107.852 10.9998C107.852 11.9187 108.599 12.6635 109.52 12.6635Z" fill="white"/>
<path d="M109.52 12.6635C110.441 12.6635 111.188 11.9187 111.188 10.9998C111.188 10.081 110.441 9.33618 109.52 9.33618C108.599 9.33618 107.852 10.081 107.852 10.9998C107.852 11.9187 108.599 12.6635 109.52 12.6635Z" fill="white"/>
<path d="M85.0863 12.6635C86.0073 12.6635 86.7539 11.9187 86.7539 10.9998C86.7539 10.081 86.0073 9.33618 85.0863 9.33618C84.1653 9.33618 83.4187 10.081 83.4187 10.9998C83.4187 11.9187 84.1653 12.6635 85.0863 12.6635Z" fill="white"/>
<path d="M85.0863 12.6635C86.0073 12.6635 86.7539 11.9187 86.7539 10.9998C86.7539 10.081 86.0073 9.33618 85.0863 9.33618C84.1653 9.33618 83.4187 10.081 83.4187 10.9998C83.4187 11.9187 84.1653 12.6635 85.0863 12.6635Z" fill="white"/>
<defs>
<linearGradient id="paint0_linear_2_863" x1="2.51883" y1="15.6496" x2="2.51883" y2="15.4975" gradientUnits="userSpaceOnUse">
<stop stop-color="#00FFF3"/>
<stop offset="0.02" stop-color="#00FCF3"/>
<stop offset="0.48" stop-color="#0BC3FA"/>
<stop offset="0.82" stop-color="#129FFE"/>
<stop offset="1" stop-color="#1492FF"/>
</linearGradient>
<linearGradient id="paint1_linear_2_863" x1="0.446791" y1="16.333" x2="0.446791" y2="16.1777" gradientUnits="userSpaceOnUse">
<stop stop-color="#00FFF3"/>
<stop offset="0.02" stop-color="#00FCF3"/>
<stop offset="0.48" stop-color="#0BC3FA"/>
<stop offset="0.82" stop-color="#129FFE"/>
<stop offset="1" stop-color="#1492FF"/>
</linearGradient>
<linearGradient id="paint2_linear_2_863" x1="0.143296" y1="10.859" x2="0.143296" y2="10.8529" gradientUnits="userSpaceOnUse">
<stop stop-color="#00FFF3"/>
<stop offset="0.02" stop-color="#00FCF3"/>
<stop offset="0.48" stop-color="#0BC3FA"/>
<stop offset="0.82" stop-color="#129FFE"/>
<stop offset="1" stop-color="#1492FF"/>
</linearGradient>
<linearGradient id="paint3_linear_2_863" x1="3.69058" y1="15.0089" x2="3.69058" y2="14.8657" gradientUnits="userSpaceOnUse">
<stop stop-color="#00FFF3"/>
<stop offset="0.02" stop-color="#00FCF3"/>
<stop offset="0.48" stop-color="#0BC3FA"/>
<stop offset="0.82" stop-color="#129FFE"/>
<stop offset="1" stop-color="#1492FF"/>
</linearGradient>
<linearGradient id="paint4_linear_2_863" x1="9.04543" y1="12.5446" x2="9.04543" y2="12.4294" gradientUnits="userSpaceOnUse">
<stop stop-color="#00FFF3"/>
<stop offset="0.02" stop-color="#00FCF3"/>
<stop offset="0.48" stop-color="#0BC3FA"/>
<stop offset="0.82" stop-color="#129FFE"/>
<stop offset="1" stop-color="#1492FF"/>
</linearGradient>
<linearGradient id="paint5_linear_2_863" x1="0.207942" y1="17.5439" x2="0.207942" y2="17.363" gradientUnits="userSpaceOnUse">
<stop stop-color="#00FFF3"/>
<stop offset="0.02" stop-color="#00FCF3"/>
<stop offset="0.48" stop-color="#0BC3FA"/>
<stop offset="0.82" stop-color="#129FFE"/>
<stop offset="1" stop-color="#1492FF"/>
</linearGradient>
<linearGradient id="paint6_linear_2_863" x1="6.14881" y1="13.6442" x2="6.14881" y2="13.5182" gradientUnits="userSpaceOnUse">
<stop stop-color="#00FFF3"/>
<stop offset="0.02" stop-color="#00FCF3"/>
<stop offset="0.48" stop-color="#0BC3FA"/>
<stop offset="0.82" stop-color="#129FFE"/>
<stop offset="1" stop-color="#1492FF"/>
</linearGradient>
<linearGradient id="paint7_linear_2_863" x1="5.17245" y1="14.4105" x2="5.17245" y2="14.2731" gradientUnits="userSpaceOnUse">
<stop stop-color="#00FFF3"/>
<stop offset="0.02" stop-color="#00FCF3"/>
<stop offset="0.48" stop-color="#0BC3FA"/>
<stop offset="0.82" stop-color="#129FFE"/>
<stop offset="1" stop-color="#1492FF"/>
</linearGradient>
<linearGradient id="paint8_linear_2_863" x1="7.72194" y1="13.0612" x2="7.72194" y2="12.9406" gradientUnits="userSpaceOnUse">
<stop stop-color="#00FFF3"/>
<stop offset="0.02" stop-color="#00FCF3"/>
<stop offset="0.48" stop-color="#0BC3FA"/>
<stop offset="0.82" stop-color="#129FFE"/>
<stop offset="1" stop-color="#1492FF"/>
</linearGradient>
<linearGradient id="paint9_linear_2_863" x1="9.66513" y1="-6.96699" x2="24.5401" y2="6.24275" gradientUnits="userSpaceOnUse">
<stop offset="0.05" stop-color="#00FFF3"/>
<stop offset="0.07" stop-color="#00FCF3"/>
<stop offset="0.51" stop-color="#0AC3F9"/>
<stop offset="0.83" stop-color="#119FFD"/>
<stop offset="1" stop-color="#1492FF"/>
</linearGradient>
<linearGradient id="paint10_linear_2_863" x1="14.1255" y1="14.3315" x2="24.9338" y2="34.2192" gradientUnits="userSpaceOnUse">
<stop stop-color="#00FFF3"/>
<stop offset="0.02" stop-color="#00FCF3"/>
<stop offset="0.48" stop-color="#0AC3F9"/>
<stop offset="0.82" stop-color="#119FFD"/>
<stop offset="1" stop-color="#1492FF"/>
</linearGradient>
<linearGradient id="paint11_linear_2_863" x1="14.6452" y1="35.0653" x2="21.371" y2="11.9617" gradientUnits="userSpaceOnUse">
<stop stop-color="#00FFF3"/>
<stop offset="0.866298" stop-color="#11A1FD"/>
<stop offset="1" stop-color="#1492FF"/>
</linearGradient>
<linearGradient id="paint12_linear_2_863" x1="14.8495" y1="329.442" x2="14.8495" y2="57.5854" gradientUnits="userSpaceOnUse">
<stop stop-color="#00FFF3"/>
<stop offset="0.02" stop-color="#00FCF3"/>
<stop offset="0.48" stop-color="#0AC3F9"/>
<stop offset="0.82" stop-color="#119FFD"/>
<stop offset="1" stop-color="#1492FF"/>
</linearGradient>
<linearGradient id="paint13_linear_2_863" x1="-1.87117" y1="9.61499" x2="40.6977" y2="8.98027" gradientUnits="userSpaceOnUse">
<stop stop-color="#00FFF3"/>
<stop offset="0.866298" stop-color="#11A1FD"/>
<stop offset="1" stop-color="#1492FF"/>
</linearGradient>
<linearGradient id="paint14_linear_2_863" x1="32.4553" y1="-3.97455" x2="21.9892" y2="47.5726" gradientUnits="userSpaceOnUse">
<stop offset="0.14" stop-color="#00FFF3"/>
<stop offset="0.48" stop-color="#1492FF"/>
<stop offset="0.62" stop-color="#11A4FD"/>
<stop offset="0.72" stop-color="#08D2F7"/>
<stop offset="0.81" stop-color="#02F2F4"/>
<stop offset="0.86" stop-color="#00FFF3"/>
</linearGradient>
<clipPath id="clip0_2_863">
<rect width="38.7284" height="39.6109" fill="white"/>
</clipPath>
</defs>
</svg>
