<svg width="307" height="82" viewBox="0 0 307 82" fill="none" xmlns="http://www.w3.org/2000/svg">
<path d="M0.950195 16.0813C0.973827 15.8926 1.009 15.7055 1.05551 15.521C1.009 15.7055 0.973827 15.8926 0.950195 16.0813Z" fill="url(#paint0_linear_21_700)"/>
<path d="M0.870117 16.7585C0.870117 16.5718 0.870117 16.3733 0.870117 16.1865C0.905221 16.3733 0.881819 16.5718 0.870117 16.7585Z" fill="url(#paint1_linear_21_700)"/>
<path d="M0.90332 18.1256C0.909497 18.0879 0.909497 18.0494 0.90332 18.0117C0.909497 18.0494 0.909497 18.0879 0.90332 18.1256Z" fill="url(#paint2_linear_21_700)"/>
<path d="M1.0791 15.4493C1.1189 15.2636 1.1697 15.0804 1.23122 14.9006C1.1697 15.0804 1.1189 15.2636 1.0791 15.4493Z" fill="url(#paint3_linear_21_700)"/>
<path d="M2.07715 13.157L2.42819 12.6667L2.07715 13.157Z" fill="url(#paint4_linear_21_700)"/>
<path d="M0.858394 17.4742C0.846681 17.2677 0.846681 17.0607 0.858394 16.8542C0.846681 17.0607 0.846681 17.2677 0.858394 17.4742Z" fill="url(#paint5_linear_21_700)"/>
<path d="M1.49023 14.2444C1.56254 14.0687 1.64458 13.8973 1.73596 13.7307C1.64458 13.8973 1.56254 14.0687 1.49023 14.2444Z" fill="url(#paint6_linear_21_700)"/>
<path d="M1.25586 14.8644C1.31387 14.6809 1.38424 14.5015 1.46648 14.3274C1.38424 14.5015 1.31387 14.6809 1.25586 14.8644Z" fill="url(#paint7_linear_21_700)"/>
<path d="M1.77051 13.6599L2.07475 13.158L1.77051 13.6599Z" fill="url(#paint8_linear_21_700)"/>
<g clip-path="url(#clip0_21_700)">
<path d="M44.7529 14.9068C39.4406 14.5697 34.4347 12.5705 30.5113 9.19572C27.9494 6.99176 24.675 5.7774 21.29 5.7774H6.60967C3.73959 5.7774 1.41162 3.45019 1.41162 0.581055H21.2882C25.917 0.581055 30.397 2.24128 33.8999 5.25722C36.9096 7.84724 40.7551 9.39871 44.8562 9.70502C45.5905 4.55399 50.0325 0.581055 55.3847 0.581055H67.4996C71.4121 0.581055 74.7228 3.64413 74.8352 7.55362C74.953 11.6154 71.6841 14.9557 67.6482 14.9557H49.9455L44.7474 14.9068H44.7529ZM55.3883 5.7774C52.8935 5.7774 50.9282 7.46662 50.29 9.7594H67.6518C68.7506 9.7594 69.6426 8.86585 69.6426 7.76749C69.6426 6.66914 68.7506 5.7774 67.6537 5.7774H55.3865H55.3883Z" fill="url(#paint9_linear_21_700)"/>
<path d="M42.566 71.3419C41.48 71.2694 40.6605 70.3179 40.6605 69.2286V22.7061C40.6605 21.2543 39.4711 20.0817 38.0134 20.1089C36.5829 20.1342 35.4624 21.3631 35.4624 22.7931V69.3011C35.4624 71.9817 36.9274 74.327 39.0994 75.5776C39.1067 75.5776 44.7525 74.1005 44.7525 69.3011C44.7525 70.4756 43.7572 71.4217 42.566 71.3419V71.3419Z" fill="url(#paint10_linear_21_700)"/>
<path d="M31.2444 19.3982C30.7385 14.0024 26.1823 9.76489 20.6543 9.76489H8.82767C6.45981 9.76489 4.34759 10.8814 2.98779 12.6141C2.98779 12.6358 3.30689 19.1625 8.55208 19.3873C7.45699 19.2477 6.60848 18.3143 6.60848 17.1797C6.60848 15.9545 7.60204 14.9612 8.82767 14.9612H20.6543C23.3122 14.9612 25.5296 16.877 26.001 19.3982L26.0735 24.5945H26.0916V76.5435C28.9617 76.5435 31.2897 74.2163 31.2897 71.3471V24.5945L31.2426 19.3982H31.2444Z" fill="url(#paint11_linear_21_700)"/>
<path d="M26.0752 24.5947L26.0933 25.9215V24.5947H26.0752Z" fill="url(#paint12_linear_21_700)"/>
<path d="M69.6007 19.3981H8.82866C3.30607 19.3981 2.98878 12.614 2.98878 12.614C1.95715 13.9281 1.36065 15.5973 1.41505 17.4044C1.53471 21.4371 4.95052 24.5944 8.98639 24.5944H74.7987C74.7987 21.7253 72.4708 19.3981 69.6007 19.3981Z" fill="url(#paint13_linear_21_700)"/>
<path d="M74.8359 7.521C74.7054 3.62238 71.3893 0.581055 67.4857 0.581055H55.3872C50.035 0.581055 45.593 4.55399 44.8587 9.70502C44.8587 9.70502 44.7518 10.4137 44.7518 14.9068V69.3008C44.7518 74.1056 39.0986 75.5792 39.0986 75.5792C40.9842 76.6739 42.926 76.5398 42.926 76.5398C46.8658 76.4238 49.9516 73.087 49.9516 69.1467V14.9557L50.1021 10.9991C50.2073 8.25505 52.3358 5.94052 55.0808 5.78647C55.1841 5.78103 55.2875 5.7774 55.3908 5.7774H67.658C73.3274 5.7774 74.0762 10.9973 74.0762 10.9973C74.602 9.95696 74.8812 8.77341 74.8395 7.521H74.8359Z" fill="url(#paint14_linear_21_700)"/>
</g>
<path d="M96.7638 52.1317V33.9197H91.0423C90.4363 33.9202 89.8536 33.6866 89.4165 33.268C88.9793 32.8493 88.7216 32.278 88.6974 31.674C88.6841 31.3632 88.7356 31.0531 88.8488 30.7633C88.9619 30.4735 89.1342 30.2103 89.3547 29.9903C89.5751 29.7704 89.8389 29.5986 90.1294 29.4857C90.4199 29.3728 90.7308 29.3213 91.0423 29.3346H96.7873V18.7139C98.1057 18.7139 99.3702 19.2364 100.302 20.1665C101.235 21.0965 101.758 22.358 101.758 23.6733V29.241H113.917C113.926 29.8541 113.813 30.4628 113.583 31.0316C113.354 31.6004 113.013 32.1179 112.581 32.5536C112.148 32.9893 111.633 33.3346 111.065 33.5691C110.498 33.8037 109.889 33.9229 109.274 33.9197H101.735V51.582C101.735 54.8337 103.564 56.7403 106.425 56.7403C108.096 56.6575 109.676 55.957 110.857 54.7752C111.41 54.2303 112.144 53.9058 112.92 53.8628C113.187 53.8642 113.45 53.9191 113.694 54.0242C113.939 54.1293 114.16 54.2825 114.344 54.4747C114.527 54.6668 114.671 54.894 114.764 55.1426C114.858 55.3912 114.901 55.6561 114.89 55.9215C114.827 56.4943 114.651 57.0489 114.371 57.553C114.091 58.057 113.714 58.5005 113.26 58.8574C111.228 60.6094 108.63 61.5691 105.944 61.5594C100.738 61.5126 96.7638 58.0971 96.7638 52.1317Z" fill="white"/>
<path d="M96.7638 52.1317V33.9197H91.0423C90.4363 33.9202 89.8536 33.6866 89.4165 33.268C88.9793 32.8493 88.7216 32.278 88.6974 31.674C88.6841 31.3632 88.7356 31.0531 88.8488 30.7633C88.9619 30.4735 89.1342 30.2103 89.3547 29.9903C89.5751 29.7704 89.8389 29.5986 90.1294 29.4857C90.4199 29.3728 90.7308 29.3213 91.0423 29.3346H96.7873V18.7139C98.1057 18.7139 99.3702 19.2364 100.302 20.1665C101.235 21.0965 101.758 22.358 101.758 23.6733V29.241H113.917C113.926 29.8541 113.813 30.4628 113.583 31.0316C113.354 31.6004 113.013 32.1179 112.581 32.5536C112.148 32.9893 111.633 33.3346 111.065 33.5691C110.498 33.8037 109.889 33.9229 109.274 33.9197H101.735V51.582C101.735 54.8337 103.564 56.7403 106.425 56.7403C108.096 56.6575 109.676 55.957 110.857 54.7752C111.41 54.2303 112.144 53.9058 112.92 53.8628C113.187 53.8642 113.45 53.9191 113.694 54.0242C113.939 54.1293 114.16 54.2825 114.344 54.4747C114.527 54.6668 114.671 54.894 114.764 55.1426C114.858 55.3912 114.901 55.6561 114.89 55.9215C114.827 56.4943 114.651 57.0489 114.371 57.553C114.091 58.057 113.714 58.5005 113.26 58.8574C111.228 60.6094 108.63 61.5691 105.944 61.5594C100.738 61.5126 96.7638 58.0971 96.7638 52.1317Z" fill="white"/>
<path d="M120.975 44.7512C120.975 34.8439 127.236 28.4341 136.474 28.4341C145.995 28.4341 151.716 34.6451 151.716 43.4645C151.769 43.8415 151.735 44.2253 151.619 44.5877C151.502 44.9501 151.306 45.2817 151.043 45.5579C150.781 45.8342 150.46 46.0481 150.103 46.1838C149.747 46.3196 149.365 46.3736 148.985 46.3419H126.098C126.555 52.705 130.87 56.8691 137.506 56.8691C139.233 56.9829 140.959 56.6392 142.509 55.873C144.06 55.1068 145.379 53.9453 146.335 52.5062C146.576 52.0886 146.915 51.7361 147.324 51.4792C147.733 51.2224 148.198 51.069 148.68 51.0324C148.963 51.0023 149.25 51.0363 149.518 51.1319C149.787 51.2274 150.03 51.382 150.231 51.5843C150.431 51.7865 150.584 52.0311 150.676 52.3001C150.769 52.569 150.8 52.8553 150.767 53.1378C150.717 54.0583 150.408 54.9461 149.876 55.6994C147.308 59.8401 142.161 61.5478 137.377 61.5478C127.411 61.5127 120.975 54.9742 120.975 44.7512ZM146.64 41.862C146.1 36.0721 142.149 32.7619 136.322 32.7619C130.683 32.7619 126.567 36.271 126.11 41.862H146.64Z" fill="white"/>
<path d="M120.975 44.7512C120.975 34.8439 127.236 28.4341 136.474 28.4341C145.995 28.4341 151.716 34.6451 151.716 43.4645C151.769 43.8415 151.735 44.2253 151.619 44.5877C151.502 44.9501 151.306 45.2817 151.043 45.5579C150.781 45.8342 150.46 46.0481 150.103 46.1838C149.747 46.3196 149.365 46.3736 148.985 46.3419H126.098C126.555 52.705 130.87 56.8691 137.506 56.8691C139.233 56.9829 140.959 56.6392 142.509 55.873C144.06 55.1068 145.379 53.9453 146.335 52.5062C146.576 52.0886 146.915 51.7361 147.324 51.4792C147.733 51.2224 148.198 51.069 148.68 51.0324C148.963 51.0023 149.25 51.0363 149.518 51.1319C149.787 51.2274 150.03 51.382 150.231 51.5843C150.431 51.7865 150.584 52.0311 150.676 52.3001C150.769 52.569 150.8 52.8553 150.767 53.1378C150.717 54.0583 150.408 54.9461 149.876 55.6994C147.308 59.8401 142.161 61.5478 137.377 61.5478C127.411 61.5127 120.975 54.9742 120.975 44.7512ZM146.64 41.862C146.1 36.0721 142.149 32.7619 136.322 32.7619C130.683 32.7619 126.567 36.271 126.11 41.862H146.64Z" fill="white"/>
<path d="M211.242 61.2549C210.911 61.2601 210.581 61.1973 210.275 61.0705C209.968 60.9438 209.691 60.7556 209.46 60.5177C209.23 60.2798 209.05 59.9973 208.933 59.6875C208.816 59.3777 208.764 59.0473 208.78 58.7167V33.6504C208.78 32.335 209.304 31.0736 210.236 30.1435C211.169 29.2134 212.433 28.6909 213.751 28.6909V28.6909V58.7167C213.766 59.0509 213.711 59.3846 213.591 59.6968C213.471 60.0091 213.287 60.2932 213.051 60.5314C212.816 60.7696 212.534 60.9568 212.222 61.0813C211.911 61.2058 211.578 61.2649 211.242 61.2549V61.2549Z" fill="white"/>
<path d="M211.242 61.2549C210.911 61.2601 210.581 61.1973 210.275 61.0705C209.968 60.9438 209.691 60.7556 209.46 60.5177C209.23 60.2798 209.05 59.9973 208.933 59.6875C208.816 59.3777 208.764 59.0473 208.78 58.7167V33.6504C208.78 32.335 209.304 31.0736 210.236 30.1435C211.169 29.2134 212.433 28.6909 213.751 28.6909V28.6909V58.7167C213.766 59.0509 213.711 59.3846 213.591 59.6968C213.471 60.0091 213.287 60.2932 213.051 60.5314C212.816 60.7696 212.534 60.9568 212.222 61.0813C211.911 61.2058 211.578 61.2649 211.242 61.2549V61.2549Z" fill="white"/>
<path d="M184.428 58.717V33.9197H178.566C177.96 33.9202 177.377 33.6866 176.94 33.268C176.503 32.8493 176.245 32.278 176.221 31.6739C176.209 31.3636 176.262 31.0543 176.376 30.7653C176.49 30.4763 176.662 30.2138 176.882 29.9942C177.102 29.7747 177.365 29.6028 177.655 29.4893C177.945 29.3758 178.255 29.3231 178.566 29.3346H184.428V27.9426C184.428 22.2697 188.086 18.7372 193.808 18.7372C196.004 18.67 198.168 19.274 200.01 20.4684C200.408 20.7218 200.74 21.0662 200.979 21.4729C201.217 21.8797 201.355 22.3372 201.382 22.8077C201.388 23.0675 201.341 23.3259 201.244 23.5668C201.146 23.8078 201 24.0261 200.814 24.2082C200.628 24.3903 200.407 24.5323 200.163 24.6254C199.92 24.7185 199.66 24.7607 199.4 24.7494C198.868 24.7079 198.355 24.5306 197.911 24.2348C196.756 23.5028 195.41 23.1284 194.042 23.1586C191.041 23.1586 189.352 24.8898 189.352 27.9426V29.241H199.904C199.917 29.8529 199.807 30.4612 199.58 31.0299C199.353 31.5986 199.014 32.1162 198.584 32.5522C198.153 32.9883 197.639 33.3339 197.073 33.5688C196.506 33.8037 195.898 33.923 195.285 33.9197H189.423V58.717C189.429 59.376 189.176 60.0112 188.718 60.4859C188.259 60.9606 187.633 61.2369 186.972 61.2552C186.633 61.2757 186.293 61.2241 185.975 61.1038C185.657 60.9835 185.368 60.7972 185.128 60.5573C184.887 60.3174 184.7 60.0293 184.58 59.7121C184.459 59.3948 184.407 59.0557 184.428 58.717Z" fill="white"/>
<path d="M184.428 58.717V33.9197H178.566C177.96 33.9202 177.377 33.6866 176.94 33.268C176.503 32.8493 176.245 32.278 176.221 31.6739C176.209 31.3636 176.262 31.0543 176.376 30.7653C176.49 30.4763 176.662 30.2138 176.882 29.9942C177.102 29.7747 177.365 29.6028 177.655 29.4893C177.945 29.3758 178.255 29.3231 178.566 29.3346H184.428V27.9426C184.428 22.2697 188.086 18.7372 193.808 18.7372C196.004 18.67 198.168 19.274 200.01 20.4684C200.408 20.7218 200.74 21.0662 200.979 21.4729C201.217 21.8797 201.355 22.3372 201.382 22.8077C201.388 23.0675 201.341 23.3259 201.244 23.5668C201.146 23.8078 201 24.0261 200.814 24.2082C200.628 24.3903 200.407 24.5323 200.163 24.6254C199.92 24.7185 199.66 24.7607 199.4 24.7494C198.868 24.7079 198.355 24.5306 197.911 24.2348C196.756 23.5028 195.41 23.1284 194.042 23.1586C191.041 23.1586 189.352 24.8898 189.352 27.9426V29.241H199.904C199.917 29.8529 199.807 30.4612 199.58 31.0299C199.353 31.5986 199.014 32.1162 198.584 32.5522C198.153 32.9883 197.639 33.3339 197.073 33.5688C196.506 33.8037 195.898 33.923 195.285 33.9197H189.423V58.717C189.429 59.376 189.176 60.0112 188.718 60.4859C188.259 60.9606 187.633 61.2369 186.972 61.2552C186.633 61.2757 186.293 61.2241 185.975 61.1038C185.657 60.9835 185.368 60.7972 185.128 60.5573C184.887 60.3174 184.7 60.0293 184.58 59.7121C184.459 59.3948 184.407 59.0557 184.428 58.717Z" fill="white"/>
<path d="M164.121 61.2549C163.789 61.2601 163.46 61.1973 163.154 61.0706C162.847 60.9438 162.57 60.7556 162.339 60.5177C162.108 60.2799 161.929 59.9973 161.812 59.6875C161.695 59.3777 161.643 59.0473 161.659 58.7167V33.6504C161.659 32.9981 161.788 32.3523 162.039 31.7498C162.289 31.1473 162.656 30.6001 163.119 30.1394C163.582 29.6787 164.132 29.3136 164.736 29.0651C165.341 28.8165 165.988 28.6894 166.642 28.6909V28.6909V58.7167C166.657 59.0519 166.602 59.3866 166.481 59.6997C166.36 60.0127 166.175 60.2974 165.938 60.5358C165.701 60.7742 165.418 60.9611 165.105 61.0849C164.792 61.2086 164.457 61.2665 164.121 61.2549V61.2549Z" fill="white"/>
<path d="M164.121 61.2549C163.789 61.2601 163.46 61.1973 163.154 61.0706C162.847 60.9438 162.57 60.7556 162.339 60.5177C162.108 60.2799 161.929 59.9973 161.812 59.6875C161.695 59.3777 161.643 59.0473 161.659 58.7167V33.6504C161.659 32.9981 161.788 32.3523 162.039 31.7498C162.289 31.1473 162.656 30.6001 163.119 30.1394C163.582 29.6787 164.132 29.3136 164.736 29.0651C165.341 28.8165 165.988 28.6894 166.642 28.6909V28.6909V58.7167C166.657 59.0519 166.602 59.3866 166.481 59.6997C166.36 60.0127 166.175 60.2974 165.938 60.5358C165.701 60.7742 165.418 60.9611 165.105 61.0849C164.792 61.2086 164.457 61.2665 164.121 61.2549V61.2549Z" fill="white"/>
<path d="M211.055 24.8079C212.823 24.8079 214.256 23.3782 214.256 21.6146C214.256 19.851 212.823 18.4214 211.055 18.4214C209.287 18.4214 207.854 19.851 207.854 21.6146C207.854 23.3782 209.287 24.8079 211.055 24.8079Z" fill="white"/>
<path d="M211.055 24.8079C212.823 24.8079 214.256 23.3782 214.256 21.6146C214.256 19.851 212.823 18.4214 211.055 18.4214C209.287 18.4214 207.854 19.851 207.854 21.6146C207.854 23.3782 209.287 24.8079 211.055 24.8079Z" fill="white"/>
<path d="M164.156 24.8079C165.924 24.8079 167.357 23.3782 167.357 21.6146C167.357 19.851 165.924 18.4214 164.156 18.4214C162.388 18.4214 160.955 19.851 160.955 21.6146C160.955 23.3782 162.388 24.8079 164.156 24.8079Z" fill="white"/>
<path d="M164.156 24.8079C165.924 24.8079 167.357 23.3782 167.357 21.6146C167.357 19.851 165.924 18.4214 164.156 18.4214C162.388 18.4214 160.955 19.851 160.955 21.6146C160.955 23.3782 162.388 24.8079 164.156 24.8079Z" fill="white"/>
<defs>
<linearGradient id="paint0_linear_21_700" x1="5.6661" y1="30.5101" x2="5.6661" y2="30.2187" gradientUnits="userSpaceOnUse">
<stop stop-color="#00FFF3"/>
<stop offset="0.02" stop-color="#00FCF3"/>
<stop offset="0.48" stop-color="#0BC3FA"/>
<stop offset="0.82" stop-color="#129FFE"/>
<stop offset="1" stop-color="#1492FF"/>
</linearGradient>
<linearGradient id="paint1_linear_21_700" x1="1.69887" y1="31.8196" x2="1.69887" y2="31.5222" gradientUnits="userSpaceOnUse">
<stop stop-color="#00FFF3"/>
<stop offset="0.02" stop-color="#00FCF3"/>
<stop offset="0.48" stop-color="#0BC3FA"/>
<stop offset="0.82" stop-color="#129FFE"/>
<stop offset="1" stop-color="#1492FF"/>
</linearGradient>
<linearGradient id="paint2_linear_21_700" x1="1.11038" y1="21.2556" x2="1.11038" y2="21.2442" gradientUnits="userSpaceOnUse">
<stop stop-color="#00FFF3"/>
<stop offset="0.02" stop-color="#00FCF3"/>
<stop offset="0.48" stop-color="#0BC3FA"/>
<stop offset="0.82" stop-color="#129FFE"/>
<stop offset="1" stop-color="#1492FF"/>
</linearGradient>
<linearGradient id="paint3_linear_21_700" x1="7.91078" y1="29.2811" x2="7.91078" y2="29.0068" gradientUnits="userSpaceOnUse">
<stop stop-color="#00FFF3"/>
<stop offset="0.02" stop-color="#00FCF3"/>
<stop offset="0.48" stop-color="#0BC3FA"/>
<stop offset="0.82" stop-color="#129FFE"/>
<stop offset="1" stop-color="#1492FF"/>
</linearGradient>
<linearGradient id="paint4_linear_21_700" x1="18.1724" y1="24.5564" x2="18.1724" y2="24.3358" gradientUnits="userSpaceOnUse">
<stop stop-color="#00FFF3"/>
<stop offset="0.02" stop-color="#00FCF3"/>
<stop offset="0.48" stop-color="#0BC3FA"/>
<stop offset="0.82" stop-color="#129FFE"/>
<stop offset="1" stop-color="#1492FF"/>
</linearGradient>
<linearGradient id="paint5_linear_21_700" x1="1.24194" y1="34.1752" x2="1.24194" y2="33.828" gradientUnits="userSpaceOnUse">
<stop stop-color="#00FFF3"/>
<stop offset="0.02" stop-color="#00FCF3"/>
<stop offset="0.48" stop-color="#0BC3FA"/>
<stop offset="0.82" stop-color="#129FFE"/>
<stop offset="1" stop-color="#1492FF"/>
</linearGradient>
<linearGradient id="paint6_linear_21_700" x1="12.6217" y1="26.6643" x2="12.6217" y2="26.4229" gradientUnits="userSpaceOnUse">
<stop stop-color="#00FFF3"/>
<stop offset="0.02" stop-color="#00FCF3"/>
<stop offset="0.48" stop-color="#0BC3FA"/>
<stop offset="0.82" stop-color="#129FFE"/>
<stop offset="1" stop-color="#1492FF"/>
</linearGradient>
<linearGradient id="paint7_linear_21_700" x1="10.7509" y1="28.1334" x2="10.7509" y2="27.8703" gradientUnits="userSpaceOnUse">
<stop stop-color="#00FFF3"/>
<stop offset="0.02" stop-color="#00FCF3"/>
<stop offset="0.48" stop-color="#0BC3FA"/>
<stop offset="0.82" stop-color="#129FFE"/>
<stop offset="1" stop-color="#1492FF"/>
</linearGradient>
<linearGradient id="paint8_linear_21_700" x1="15.6347" y1="25.5466" x2="15.6347" y2="25.3157" gradientUnits="userSpaceOnUse">
<stop stop-color="#00FFF3"/>
<stop offset="0.02" stop-color="#00FCF3"/>
<stop offset="0.48" stop-color="#0BC3FA"/>
<stop offset="0.82" stop-color="#129FFE"/>
<stop offset="1" stop-color="#1492FF"/>
</linearGradient>
<linearGradient id="paint9_linear_21_700" x1="19.3936" y1="-12.8711" x2="47.9447" y2="12.4838" gradientUnits="userSpaceOnUse">
<stop offset="0.05" stop-color="#00FFF3"/>
<stop offset="0.07" stop-color="#00FCF3"/>
<stop offset="0.51" stop-color="#0AC3F9"/>
<stop offset="0.83" stop-color="#119FFD"/>
<stop offset="1" stop-color="#1492FF"/>
</linearGradient>
<linearGradient id="paint10_linear_21_700" x1="27.9545" y1="28.0094" x2="48.7" y2="66.1821" gradientUnits="userSpaceOnUse">
<stop stop-color="#00FFF3"/>
<stop offset="0.02" stop-color="#00FCF3"/>
<stop offset="0.48" stop-color="#0AC3F9"/>
<stop offset="0.82" stop-color="#119FFD"/>
<stop offset="1" stop-color="#1492FF"/>
</linearGradient>
<linearGradient id="paint11_linear_21_700" x1="28.9512" y1="67.8061" x2="41.8606" y2="23.4609" gradientUnits="userSpaceOnUse">
<stop stop-color="#00FFF3"/>
<stop offset="0.866298" stop-color="#11A1FD"/>
<stop offset="1" stop-color="#1492FF"/>
</linearGradient>
<linearGradient id="paint12_linear_21_700" x1="29.3433" y1="632.834" x2="29.3433" y2="111.031" gradientUnits="userSpaceOnUse">
<stop stop-color="#00FFF3"/>
<stop offset="0.02" stop-color="#00FCF3"/>
<stop offset="0.48" stop-color="#0AC3F9"/>
<stop offset="0.82" stop-color="#119FFD"/>
<stop offset="1" stop-color="#1492FF"/>
</linearGradient>
<linearGradient id="paint13_linear_21_700" x1="-2.7495" y1="18.9566" x2="78.9574" y2="17.7383" gradientUnits="userSpaceOnUse">
<stop stop-color="#00FFF3"/>
<stop offset="0.866298" stop-color="#11A1FD"/>
<stop offset="1" stop-color="#1492FF"/>
</linearGradient>
<linearGradient id="paint14_linear_21_700" x1="63.1362" y1="-7.12737" x2="43.0474" y2="91.8124" gradientUnits="userSpaceOnUse">
<stop offset="0.14" stop-color="#00FFF3"/>
<stop offset="0.48" stop-color="#1492FF"/>
<stop offset="0.62" stop-color="#11A4FD"/>
<stop offset="0.72" stop-color="#08D2F7"/>
<stop offset="0.81" stop-color="#02F2F4"/>
<stop offset="0.86" stop-color="#00FFF3"/>
</linearGradient>
<clipPath id="clip0_21_700">
<rect width="74.3355" height="76.0294" fill="white" transform="translate(0.841797 0.501465)"/>
</clipPath>
</defs>
</svg>
