<?xml version="1.0" encoding="utf-8"?>
<!-- Generator: Adobe Illustrator 26.3.1, SVG Export Plug-In . SVG Version: 6.00 Build 0)  -->
<svg version="1.1" id="Layer_1" xmlns="http://www.w3.org/2000/svg" xmlns:xlink="http://www.w3.org/1999/xlink" x="0px" y="0px"
	 viewBox="0 0 109.5 124.5" style="enable-background:new 0 0 109.5 124.5;" xml:space="preserve">
<path d="M11.7,43.6c-0.4-0.2-0.8-0.3-1.2-0.5c-2.4-1.1-3.8-3.7-3.3-6.3c0.2-1.3,0.5-2.7,0.8-4c0.6-2.3,2.7-4,5-4.2
	c0.2,0,0.5,0,0.7,0c22.9,0,45.8,0,68.7,0c2.9,0,5.2,1.7,5.9,4.5c0.3,1.1,0.2,2.1,0.1,3.2c-0.2,1.9-0.7,3.7-1.1,5.5
	c-0.7,3.5-1.5,6.9-2.2,10.4c-0.4,1.8-0.7,3.7-1.1,5.5c0,0.1,0,0.2,0,0.3c0.1,0,0.2,0,0.2,0c3.1,0,6.1,0,9.2,0c2.2,0,4.5-0.1,6.7-0.1
	c0.8,0,1.5,0,2.2,0.2c1.1,0.3,1.8,1,1.9,2.1c0.1,1.2,0.2,2.4,0.3,3.6c0.2,3.1,0.3,6.1,0.5,9.2c0.1,2.1,0.2,4.2,0.4,6.4
	c0.1,1.8,0.2,3.7,0.3,5.5c0.1,1.8-0.3,3.4-1.6,4.7c-1.2,1.2-2.6,1.9-4.3,1.9c-19.2,0-38.4,0-57.6,0c-1.4,0-2.8,0-4.2,0
	c-9.6,0-19.1,0-28.7,0c-3.7,0-6.5-3.4-5.7-7c0.7-3.3,1.3-6.5,1.9-9.8c0.5-2.6,1-5.1,1.5-7.7c0.6-3.3,1.3-6.5,1.9-9.8
	c0.6-3.3,1.3-6.5,1.9-9.8C11.2,46.1,11.5,44.9,11.7,43.6C11.7,43.6,11.7,43.6,11.7,43.6z M94.5,72.7C94.5,72.7,94.5,72.7,94.5,72.7
	c0,1.3,0,2.5,0,3.8c0,0.4-0.1,0.5-0.5,0.5c-0.8,0-1.5,0-2.3,0c-0.3,0-0.4,0-0.5,0.4c-0.4,1-0.8,2.1-1.2,3.1c-0.2,0.4,0,0.6,0.4,0.6
	c1.2,0,2.5,0,3.7,0c0.4,0,0.5,0.1,0.5,0.5c0,1.4,0.1,2.8,0.1,4.2c0,0.3,0.1,0.4,0.4,0.4c1.7,0,3.4,0,5.1,0c0.3,0,0.4-0.1,0.4-0.4
	c-0.1-1.5-0.2-3-0.3-4.5c-0.1-2.3-0.3-4.7-0.4-7c-0.1-1.9-0.2-3.8-0.3-5.7c-0.1-2.2-0.3-4.3-0.4-6.5c0-0.4-0.1-0.5-0.5-0.5
	c-2.2,0-4.3,0-6.5,0c-0.3,0-0.4,0.1-0.5,0.3c-0.5,1.1-1,2.1-1.4,3.2c-3,6.8-6.1,13.6-9.1,20.3c-0.2,0.4,0,0.6,0.4,0.6
	c1.5,0,3,0,4.5,0c0.3,0,0.4,0,0.5-0.3c1.8-4.2,3.5-8.4,5.3-12.6c0.6-1.5,1.3-3,1.9-4.5c0,0,0-0.1,0-0.1c0.1-0.2,0.2-0.3,0.4-0.2
	c0.2,0,0.3,0.2,0.3,0.4C94.5,70.1,94.5,71.4,94.5,72.7z M74.1,43.3c0-0.1,0-0.1,0-0.1c0.6-3,1.2-6,1.8-9c0.1-0.4,0-0.6-0.5-0.6
	c-1.5,0-3.1,0-4.6,0c-0.4,0-0.5,0.1-0.6,0.5c-0.6,3-1.2,6-1.7,9c0,0.2-0.1,0.3-0.3,0.3c-3,0-5.9,0-8.9,0c-0.3,0-0.4,0.1-0.5,0.4
	c-0.2,1-0.4,2.1-0.6,3.1c-0.1,0.5,0,0.6,0.5,0.6c2.9,0,5.7,0,8.6,0c0.1,0,0.2,0,0.3,0c0,0.1,0,0.1,0,0.2c-0.6,3.3-1.3,6.7-1.9,10
	c-0.1,0.4,0,0.5,0.4,0.5c1.6,0,3.1,0,4.7,0c0.3,0,0.4-0.1,0.5-0.4c0.7-3.3,1.3-6.7,1.9-10c0-0.2,0.1-0.3,0.3-0.3c2.4,0,4.7,0,7.1,0
	c0.4,0,0.5,0,0.6-0.5c0.2-1,0.4-2.1,0.6-3.1c0.1-0.4,0-0.5-0.4-0.5c-2.3,0-4.6,0-7,0C74.3,43.3,74.2,43.3,74.1,43.3z M66.5,61.7
	c-0.8,0-1.4,0-2,0c-0.3,0-0.4,0.1-0.5,0.4c-0.2,1.1-0.4,2.2-0.6,3.2c-0.1,0.3,0.1,0.5,0.4,0.5c0.5,0,1,0,1.5,0c0.5,0,1,0.1,1.5,0.2
	c0.7,0.2,1.1,0.7,1.1,1.5c0,0.3-0.1,0.7-0.1,1c-0.7,3.7-1.5,7.5-2.2,11.2c-0.2,0.8-0.6,1.5-1.4,1.8c-0.3,0.1-0.6,0.2-0.9,0.2
	C62.4,82,61.5,82,60.6,82c-0.4,0-0.5,0.1-0.5,0.5c-0.2,1.1-0.4,2.1-0.6,3.2c-0.1,0.4,0.1,0.5,0.5,0.5c0.9,0,1.7,0,2.6,0
	c1,0,1.9-0.1,2.8-0.3c1.9-0.5,3.6-1.4,4.7-3.1c0.7-1,1.1-2.2,1.4-3.5c0.6-3.3,1.3-6.6,1.9-9.9c0.2-1.1,0.4-2.2,0.3-3.4
	c-0.2-1.5-0.9-2.7-2.2-3.5c-0.6-0.3-1.2-0.5-1.8-0.6C68.5,61.7,67.4,61.7,66.5,61.7z M20.7,86.2c0.3,0,0.6,0,1,0
	c0.2,0,0.4-0.1,0.5-0.3c2.3-4.3,4.6-8.6,6.8-12.9c0.1-0.2,0.1-0.3,0.2-0.5c0.7-3.4,1.3-6.9,2-10.3c0.1-0.3-0.1-0.5-0.4-0.5
	c-0.3,0-0.5,0-0.8,0c-0.3,0-0.4,0.1-0.5,0.3c-1.8,4.1-3.6,8.2-5.4,12.3c-0.4,1-0.9,1.9-1.3,2.9c-0.1,0.2-0.3,0.3-0.5,0.2
	c-0.2-0.1-0.2-0.2-0.2-0.4c0-0.7-0.1-1.3-0.1-2c-0.2-2.8-0.3-5.5-0.5-8.3c-0.1-1.6-0.2-3.2-0.3-4.7c0-0.2-0.1-0.3-0.4-0.4
	c-0.3,0-0.7,0-1,0c-0.2,0-0.3,0.1-0.3,0.3c0,0.2-0.1,0.4-0.1,0.6c-0.6,2.9-1.1,5.9-1.7,8.8c-0.1,0.5-0.3,0.9-0.2,1.5
	c0.2,1.2,0.3,2.4,0.5,3.7c0.4,3.1,0.8,6.2,1.2,9.3c0,0.3,0.1,0.4,0.4,0.4C20,86.2,20.4,86.2,20.7,86.2z M38.4,58.6
	c0.8-0.1,1.7-0.2,2.5-0.4c1.8-0.4,3.4-1.2,4.6-2.6c1.1-1.2,1.7-2.7,2-4.3c0.5-2.3,0.9-4.6,1.3-6.9c0.7-3.4,1.3-6.8,2-10.3
	c0.1-0.4,0-0.6-0.5-0.6c-1.6,0-3.2,0-4.8,0c-0.4,0-0.4,0.1-0.5,0.4c-0.3,1.8-0.7,3.5-1,5.3c-0.8,4.3-1.7,8.5-2.5,12.8
	c-0.2,0.9-0.5,1.7-1.4,2.1c-0.4,0.2-0.8,0.3-1.2,0.4c-0.3,0.1-0.4,0.1-0.4,0.4c-0.2,1-0.4,2-0.6,3.1C37.9,58.4,38,58.5,38.4,58.6z
	 M30,52.9c0,0.1,0,0.2,0,0.3c0.1,2,0.9,3.5,2.7,4.4c1.2,0.6,2.5,0.8,3.8,0.9c0.2,0,0.3-0.1,0.4-0.3c0.2-1.1,0.4-2.2,0.6-3.3
	c0-0.2-0.1-0.3-0.3-0.4c-0.1,0-0.2,0-0.3-0.1c-0.7-0.2-1.2-0.6-1.3-1.3c-0.1-0.4-0.1-0.8,0-1.1c0.2-1.4,0.5-2.8,0.8-4.2
	c0.6-3.1,1.2-6.1,1.8-9.2c0.3-1.5,0.6-3,0.9-4.6c0.1-0.4-0.1-0.5-0.4-0.5c-1.6,0-3.3,0-4.9,0c-0.3,0-0.4,0.1-0.4,0.4
	c-0.4,1.9-0.7,3.8-1.1,5.6c-0.7,3.5-1.4,7.1-2.1,10.6C30.2,51.1,29.9,52,30,52.9z M76,86.2c0.8,0,1.6,0,2.5,0c0.3,0,0.4-0.1,0.4-0.4
	c0.8-4,1.5-7.9,2.3-11.9c0.8-3.9,1.5-7.8,2.3-11.7c0.1-0.4,0-0.5-0.4-0.5c-1.6,0-3.3,0-4.9,0c-0.4,0-0.4,0-0.5,0.4
	c-0.3,1.7-0.7,3.4-1,5.1c-0.6,3.3-1.3,6.6-1.9,9.9c-0.6,2.9-1.1,5.8-1.7,8.7c-0.1,0.3,0,0.5,0.4,0.5C74.3,86.2,75.2,86.2,76,86.2z
	 M52.4,58c0.8,0,1.6,0,2.4,0c0.3,0,0.4-0.1,0.5-0.4c0.7-3.8,1.5-7.6,2.2-11.4c0.8-4.1,1.6-8.1,2.4-12.2c0.1-0.4,0-0.5-0.4-0.5
	c-1,0-1.9,0-2.9,0c-0.6,0-1.2,0-1.8,0c-0.3,0-0.4,0.1-0.5,0.4c0,0.1-0.1,0.3-0.1,0.4c-0.8,4-1.6,8.1-2.4,12.1
	c-0.7,3.7-1.4,7.4-2.2,11.1C49.5,57.9,49.7,58,50,58C50.8,58,51.6,58,52.4,58z M38.7,86.2c0.8,0,1.6,0,2.3,0c0.4,0,0.5-0.1,0.5-0.4
	c0.2-0.9,0.4-1.9,0.5-2.8c0.7-3.5,1.4-7,2.1-10.6c0.7-3.4,1.3-6.8,2-10.2c0.1-0.4,0-0.5-0.4-0.5c-1.5,0-3.1,0-4.6,0
	c-0.5,0-0.5,0-0.6,0.5c-0.7,3.5-1.4,7-2,10.5c-0.8,4.3-1.7,8.6-2.5,12.9c-0.1,0.4,0,0.5,0.4,0.5C37.1,86.2,37.9,86.2,38.7,86.2z
	 M55.7,86.2c0.8,0,1.5,0,2.3,0c0.3,0,0.4-0.1,0.5-0.4c0.4-2.2,0.8-4.3,1.3-6.5c1.1-5.7,2.2-11.4,3.3-17c0.1-0.4-0.1-0.6-0.5-0.6
	c-1.5,0-3.1,0-4.6,0c-0.3,0-0.4,0.1-0.5,0.4c-0.2,1.2-0.5,2.3-0.7,3.5c-0.6,3.3-1.3,6.6-1.9,9.9c-0.7,3.4-1.3,6.8-2,10.1
	c-0.1,0.4,0.1,0.6,0.5,0.6C54.2,86.2,55,86.2,55.7,86.2z M34.6,61.7c-0.7,0-1.5,0-2.2,0c-0.3,0-0.4,0.1-0.5,0.4
	c-0.7,3.4-1.3,6.8-2,10.3c-0.9,4.4-1.7,8.9-2.6,13.3c-0.1,0.4,0,0.5,0.4,0.5c1.4,0,2.9,0,4.3,0c0.4,0,0.5,0,0.5-0.4
	c0.6-3.1,1.2-6.2,1.8-9.3c0.9-4.7,1.8-9.5,2.8-14.2c0.1-0.3-0.1-0.5-0.4-0.5C36.1,61.7,35.3,61.7,34.6,61.7z M16.4,61.7
	c-0.7,0-1.5,0-2.2,0c-0.3,0-0.4,0.1-0.5,0.4c-0.6,3.1-1.2,6.1-1.8,9.2c-0.6,2.8-1.1,5.7-1.7,8.5c-0.4,2-0.8,4-1.2,5.9
	c-0.1,0.3,0.1,0.5,0.4,0.5c1.5,0,3,0,4.4,0c0.3,0,0.4-0.1,0.4-0.3c0.1-0.5,0.2-0.9,0.3-1.4c0.8-4,1.5-7.9,2.3-11.9
	c0.7-3.5,1.3-6.9,2-10.4c0.1-0.3,0-0.5-0.4-0.5C17.9,61.7,17.2,61.7,16.4,61.7z M17.4,58c0.8,0,1.6,0,2.4,0c0.3,0,0.4-0.1,0.4-0.3
	c0.5-2.8,1.1-5.6,1.6-8.4c0.5-2.7,1.1-5.4,1.6-8.1c0.1-0.7,0.3-1.4,0.4-2.1c0.1-0.3-0.1-0.5-0.4-0.5c-1.6,0-3.3,0-4.9,0
	c-0.2,0-0.3,0.1-0.4,0.3c0,0.2-0.1,0.4-0.1,0.7c-0.6,3.3-1.3,6.6-1.9,9.9c-0.5,2.7-1,5.4-1.6,8.1c-0.1,0.4,0,0.5,0.4,0.5
	C15.8,58,16.6,58,17.4,58z M21.4,37.7c2.8,0,5.5,0,8.3,0c0.4,0,0.4,0,0.5-0.4c0.2-1.1,0.4-2.1,0.6-3.2c0.1-0.5,0-0.6-0.5-0.6
	c-2.7,0-5.4,0-8.1,0c-2.8,0-5.6,0-8.4,0c-0.4,0-0.4,0.1-0.5,0.4c-0.2,1.1-0.4,2.2-0.6,3.2c-0.1,0.4,0,0.5,0.4,0.5
	C15.9,37.7,18.6,37.7,21.4,37.7z M46.1,86.2c1.1,0,2.1,0,3.2,0c0.3,0,0.4-0.1,0.5-0.4c0.2-1.1,0.4-2.2,0.7-3.4
	c0.1-0.3-0.1-0.5-0.4-0.5c-2.2,0-4.3,0-6.5,0c-0.3,0-0.4,0.1-0.4,0.4c-0.2,1.1-0.4,2.2-0.7,3.4c-0.1,0.4,0,0.5,0.4,0.5
	C43.9,86.2,45,86.2,46.1,86.2z M79.8,37.7c1.1,0,2.1,0,3.2,0c0.3,0,0.4-0.1,0.5-0.4c0.2-1.1,0.4-2.1,0.6-3.2c0.1-0.4,0-0.5-0.4-0.5
	c-2.1,0-4.3,0-6.4,0c-0.3,0-0.4,0.1-0.5,0.4c-0.2,1.1-0.4,2.1-0.6,3.2c-0.1,0.4,0,0.5,0.4,0.5C77.6,37.7,78.7,37.7,79.8,37.7z
	 M50,65.8c1.1,0,2.1,0,3.2,0c0.4,0,0.5-0.1,0.5-0.4c0.2-1.1,0.4-2.1,0.6-3.2c0.1-0.4-0.1-0.5-0.4-0.5c-2.2,0-4.3,0-6.5,0
	c-0.3,0-0.4,0.1-0.4,0.4c-0.2,1.1-0.4,2.1-0.6,3.2c-0.1,0.4,0.1,0.5,0.4,0.5C47.9,65.8,49,65.8,50,65.8z M63.7,37.7
	c1.1,0,2.2,0,3.3,0c0.3,0,0.4-0.1,0.4-0.4c0.2-1.1,0.4-2.1,0.6-3.2c0.1-0.4,0-0.6-0.5-0.6c-2.1,0-4.2,0-6.4,0
	c-0.4,0-0.5,0.1-0.5,0.4c-0.2,1.1-0.4,2.1-0.6,3.2c-0.1,0.3,0.1,0.5,0.4,0.5C61.6,37.7,62.7,37.7,63.7,37.7z M47.9,75.5
	c1,0,2,0,3.1,0c0.2,0,0.4-0.1,0.4-0.3c0.2-1.1,0.4-2.2,0.6-3.3c0.1-0.3-0.1-0.5-0.4-0.5c-2,0-4,0-6,0c-0.3,0-0.4,0.1-0.5,0.4
	c-0.2,1.1-0.4,2.1-0.6,3.2c-0.1,0.3,0.1,0.5,0.4,0.5C45.9,75.5,46.9,75.5,47.9,75.5z"/>
</svg>
