<svg width="47" height="30" viewBox="0 0 47 30" fill="none" xmlns="http://www.w3.org/2000/svg">
<path d="M4.23559 7.61124C4.0566 7.52128 3.8776 7.47631 3.69861 7.38634C2.62463 6.89157 1.99815 5.72209 2.22189 4.55261C2.31139 3.96787 2.44564 3.33815 2.57989 2.75341C2.84838 1.71888 3.7881 0.954218 4.81733 0.864258C4.90683 0.864258 5.04107 0.864258 5.13057 0.864258C15.3781 0.864258 25.6255 0.864258 35.873 0.864258C37.1708 0.864258 38.2 1.62892 38.5132 2.88835C38.6475 3.38313 38.6027 3.83293 38.558 4.32771C38.4685 5.18233 38.2447 5.99197 38.0657 6.80161C37.7525 8.3759 37.3945 9.90522 37.0813 11.4795C36.9023 12.2892 36.768 13.1438 36.589 13.9534C36.589 13.9984 36.589 14.0434 36.589 14.0884C36.6338 14.0884 36.6785 14.0884 36.6785 14.0884C38.0657 14.0884 39.4082 14.0884 40.7954 14.0884C41.7799 14.0884 42.8091 14.0434 43.7936 14.0434C44.1516 14.0434 44.4648 14.0434 44.7781 14.1333C45.2703 14.2683 45.5835 14.5831 45.6283 15.0779C45.673 15.6177 45.7178 16.1574 45.7625 16.6972C45.852 18.0916 45.8968 19.441 45.9863 20.8353C46.031 21.7799 46.0758 22.7245 46.1653 23.7141C46.21 24.5237 46.2548 25.3783 46.2995 26.188C46.3443 26.9976 46.1653 27.7173 45.5835 28.302C45.0466 28.8418 44.4201 29.1566 43.6593 29.1566C35.0676 29.1566 26.4758 29.1566 17.884 29.1566C17.2575 29.1566 16.631 29.1566 16.0045 29.1566C11.7087 29.1566 7.45751 29.1566 3.16162 29.1566C1.50591 29.1566 0.252944 27.6273 0.610935 26.008C0.924177 24.5237 1.19267 23.0843 1.46116 21.6C1.68491 20.4305 1.90865 19.306 2.1324 18.1365C2.40089 16.6522 2.71413 15.2129 2.98262 13.7285C3.25112 12.2442 3.56436 10.8048 3.83285 9.32048C4.01185 8.73574 4.14609 8.19598 4.23559 7.61124ZM41.2876 20.7004C41.2876 21.2851 41.2876 21.8249 41.2876 22.4096C41.2876 22.5896 41.2429 22.6345 41.0639 22.6345C40.7059 22.6345 40.3927 22.6345 40.0347 22.6345C39.9004 22.6345 39.8557 22.6345 39.8109 22.8145C39.6319 23.2643 39.4529 23.759 39.2739 24.2088C39.1845 24.3888 39.2739 24.4787 39.4529 24.4787C39.9899 24.4787 40.5717 24.4787 41.1087 24.4787C41.2876 24.4787 41.3324 24.5237 41.3324 24.7036C41.3324 25.3333 41.3771 25.9631 41.3771 26.5928C41.3771 26.7277 41.4219 26.7727 41.5561 26.7727C42.3169 26.7727 43.0776 26.7727 43.8383 26.7727C43.9726 26.7727 44.0173 26.7277 44.0173 26.5928C43.9726 25.9181 43.9278 25.2434 43.8831 24.5687C43.8383 23.5341 43.7488 22.4546 43.7041 21.4201C43.6593 20.5655 43.6146 19.7108 43.5698 18.8562C43.5251 17.8667 43.4356 16.9221 43.3908 15.9325C43.3908 15.7526 43.3461 15.7076 43.1671 15.7076C42.1826 15.7076 41.2429 15.7076 40.2584 15.7076C40.1242 15.7076 40.0794 15.7526 40.0347 15.8426C39.8109 16.3374 39.5872 16.7871 39.4082 17.2819C38.0657 20.3406 36.6785 23.3992 35.336 26.4129C35.2466 26.5928 35.336 26.6827 35.515 26.6827C36.1863 26.6827 36.8575 26.6827 37.5287 26.6827C37.663 26.6827 37.7077 26.6827 37.7525 26.5478C38.558 24.6586 39.3187 22.7695 40.1242 20.8803C40.3927 20.2056 40.7059 19.5309 40.9744 18.8562V18.8112C41.0192 18.7213 41.0639 18.6763 41.1534 18.7213C41.2429 18.7213 41.2876 18.8112 41.2876 18.9012C41.2876 19.5309 41.2876 20.1157 41.2876 20.7004ZM32.1589 7.47631C32.1589 7.43133 32.1589 7.43133 32.1589 7.43133C32.4274 6.08193 32.6959 4.73253 32.9644 3.38313C33.0091 3.20321 32.9644 3.11325 32.7406 3.11325C32.0694 3.11325 31.3534 3.11325 30.6822 3.11325C30.5032 3.11325 30.4584 3.15823 30.4137 3.33815C30.1452 4.68755 29.8767 6.03695 29.6529 7.38634C29.6529 7.47631 29.6082 7.52129 29.5187 7.52129C28.1762 7.52129 26.8785 7.52129 25.536 7.52129C25.4018 7.52129 25.3571 7.56627 25.3123 7.7012C25.2228 8.151 25.1333 8.64578 25.0438 9.09558C24.9991 9.32048 25.0438 9.36546 25.2676 9.36546C26.5653 9.36546 27.8182 9.36546 29.116 9.36546C29.1607 9.36546 29.2055 9.36546 29.2502 9.36546C29.2502 9.41044 29.2502 9.41044 29.2502 9.45542C28.9817 10.9398 28.6685 12.4691 28.4 13.9534C28.3552 14.1333 28.4 14.1783 28.579 14.1783C29.295 14.1783 29.9662 14.1783 30.6822 14.1783C30.8164 14.1783 30.8612 14.1333 30.9059 13.9984C31.2192 12.5141 31.4876 10.9847 31.7561 9.5004C31.7561 9.41044 31.8009 9.36546 31.8904 9.36546C32.9644 9.36546 33.9936 9.36546 35.0676 9.36546C35.2466 9.36546 35.2913 9.36546 35.336 9.14056C35.4255 8.69076 35.515 8.19598 35.6045 7.74619C35.6493 7.56627 35.6045 7.52129 35.4255 7.52129C34.3963 7.52129 33.3671 7.52129 32.2931 7.52129C32.2484 7.47631 32.2036 7.47631 32.1589 7.47631ZM28.758 15.7526C28.4 15.7526 28.1315 15.7526 27.863 15.7526C27.7287 15.7526 27.684 15.7976 27.6392 15.9325C27.5497 16.4273 27.4602 16.9221 27.3708 17.3719C27.326 17.5068 27.4155 17.5968 27.5497 17.5968C27.7735 17.5968 27.9972 17.5968 28.221 17.5968C28.4447 17.5968 28.6685 17.6418 28.8922 17.6867C29.2055 17.7767 29.3845 18.0016 29.3845 18.3614C29.3845 18.4964 29.3397 18.6763 29.3397 18.8112C29.0265 20.4755 28.6685 22.1847 28.3552 23.849C28.2657 24.2088 28.0867 24.5237 27.7287 24.6586C27.5945 24.7036 27.4602 24.7486 27.326 24.7486C26.9233 24.8835 26.5205 24.8835 26.1178 24.8835C25.9388 24.8835 25.894 24.9285 25.894 25.1084C25.8045 25.6032 25.715 26.053 25.6255 26.5478C25.5808 26.7277 25.6703 26.7727 25.8493 26.7727C26.252 26.7727 26.61 26.7727 27.0128 26.7727C27.4602 26.7727 27.863 26.7277 28.2657 26.6378C29.116 26.4129 29.8767 26.008 30.3689 25.2434C30.6822 24.7936 30.8612 24.2538 30.9954 23.6691C31.2639 22.1847 31.5771 20.7004 31.8456 19.2161C31.9351 18.7213 32.0246 18.2265 31.9799 17.6867C31.8904 17.012 31.5771 16.4723 30.9954 16.1125C30.7269 15.9775 30.4584 15.8876 30.1899 15.8426C29.6529 15.7526 29.1607 15.7526 28.758 15.7526ZM8.26299 26.7727C8.39724 26.7727 8.53148 26.7727 8.71048 26.7727C8.79998 26.7727 8.88947 26.7277 8.93422 26.6378C9.96345 24.7036 10.9927 22.7695 11.9771 20.8353C12.0219 20.7454 12.0219 20.7004 12.0666 20.6104C12.3799 19.0811 12.6484 17.5068 12.9616 15.9775C13.0064 15.8426 12.9169 15.7526 12.7826 15.7526C12.6484 15.7526 12.5589 15.7526 12.4246 15.7526C12.2904 15.7526 12.2456 15.7976 12.2009 15.8876C11.3954 17.7317 10.5899 19.5759 9.78445 21.4201C9.60546 21.8699 9.38171 22.2747 9.20272 22.7245C9.15797 22.8145 9.06847 22.8594 8.97897 22.8145C8.88947 22.7695 8.88947 22.7245 8.88947 22.6345C8.88947 22.3197 8.84473 22.0498 8.84473 21.7349C8.75523 20.4755 8.71048 19.261 8.62098 18.0016C8.57623 17.2819 8.53148 16.5623 8.48673 15.8876C8.48673 15.7976 8.44199 15.7526 8.30774 15.7076C8.17349 15.7076 7.9945 15.7076 7.86025 15.7076C7.77075 15.7076 7.726 15.7526 7.726 15.8426C7.726 15.9325 7.68125 16.0225 7.68125 16.1125C7.41276 17.4169 7.18902 18.7663 6.92052 20.0707C6.87578 20.2956 6.78628 20.4755 6.83103 20.7454C6.92052 21.2851 6.96527 21.8249 7.05477 22.4096C7.23377 23.804 7.41276 25.1984 7.59176 26.5928C7.59176 26.7277 7.63651 26.7727 7.77075 26.7727C7.94975 26.7727 8.12874 26.7727 8.26299 26.7727ZM16.1835 14.3582C16.5415 14.3133 16.9443 14.2683 17.3023 14.1783C18.1077 13.9984 18.8237 13.6386 19.3607 13.0088C19.8529 12.4691 20.1214 11.7944 20.2557 11.0747C20.4794 10.0402 20.6584 9.00562 20.8374 7.97109C21.1507 6.44177 21.4192 4.91245 21.7324 3.33815C21.7771 3.15823 21.7324 3.06827 21.5087 3.06827C20.7927 3.06827 20.0767 3.06827 19.3607 3.06827C19.1817 3.06827 19.1817 3.11325 19.137 3.24819C19.0027 4.05783 18.8237 4.82249 18.6895 5.63213C18.3315 7.56627 17.9287 9.45542 17.5708 11.3896C17.4813 11.7944 17.347 12.1542 16.9443 12.3341C16.7653 12.4241 16.5863 12.4691 16.4073 12.5141C16.273 12.559 16.2283 12.559 16.2283 12.694C16.1388 13.1438 16.0493 13.5936 15.9598 14.0884C15.9598 14.2683 16.0045 14.3133 16.1835 14.3582ZM12.4246 11.7944C12.4246 11.8394 12.4246 11.8843 12.4246 11.9293C12.4694 12.8289 12.8274 13.5036 13.6329 13.9084C14.1698 14.1783 14.7516 14.2683 15.3333 14.3133C15.4228 14.3133 15.4676 14.2683 15.5123 14.1783C15.6018 13.6835 15.6913 13.1888 15.7808 12.694C15.7808 12.604 15.736 12.559 15.6466 12.5141C15.6018 12.5141 15.5571 12.5141 15.5123 12.4691C15.1991 12.3791 14.9753 12.1992 14.9306 11.8843C14.8858 11.7044 14.8858 11.5245 14.9306 11.3896C15.0201 10.7598 15.1543 10.1301 15.2886 9.5004C15.5571 8.10602 15.8255 6.75663 16.094 5.36225C16.2283 4.68755 16.3625 4.01285 16.4968 3.29317C16.5415 3.11325 16.452 3.06827 16.3178 3.06827C15.6018 3.06827 14.8411 3.06827 14.1251 3.06827C13.9908 3.06827 13.9461 3.11325 13.9461 3.24819C13.7671 4.10281 13.6329 4.95743 13.4539 5.76707C13.1406 7.34137 12.8274 8.96064 12.5141 10.5349C12.5141 10.9847 12.3799 11.3896 12.4246 11.7944ZM33.0091 26.7727C33.3671 26.7727 33.7251 26.7727 34.1278 26.7727C34.2621 26.7727 34.3068 26.7277 34.3068 26.5928C34.6648 24.7936 34.9781 23.0394 35.336 21.2402C35.694 19.4859 36.0073 17.7317 36.3653 15.9775C36.41 15.7976 36.3653 15.7526 36.1863 15.7526C35.4703 15.7526 34.7096 15.7526 33.9936 15.7526C33.8146 15.7526 33.8146 15.7526 33.7698 15.9325C33.6356 16.6972 33.4566 17.4618 33.3223 18.2265C33.0539 19.7108 32.7406 21.1952 32.4721 22.6795C32.2036 23.9839 31.9799 25.2884 31.7114 26.5928C31.6666 26.7277 31.7114 26.8177 31.8904 26.8177C32.2484 26.7727 32.6511 26.7727 33.0091 26.7727ZM22.4484 14.0884C22.8064 14.0884 23.1644 14.0884 23.5224 14.0884C23.6566 14.0884 23.7013 14.0434 23.7461 13.9084C24.0593 12.1992 24.4173 10.49 24.7306 8.78072C25.0886 6.93655 25.4466 5.13735 25.8045 3.29317C25.8493 3.11325 25.8045 3.06827 25.6255 3.06827C25.1781 3.06827 24.7753 3.06827 24.3278 3.06827C24.0593 3.06827 23.7908 3.06827 23.5224 3.06827C23.3881 3.06827 23.3434 3.11325 23.2986 3.24819C23.2986 3.29317 23.2539 3.38313 23.2539 3.42811C22.8959 5.22731 22.5379 7.07149 22.1799 8.87068C21.8666 10.5349 21.5534 12.1992 21.1954 13.8635C21.1507 14.0434 21.2402 14.0884 21.3744 14.0884C21.7324 14.0884 22.0904 14.0884 22.4484 14.0884ZM16.3178 26.7727C16.6758 26.7727 17.0338 26.7727 17.347 26.7727C17.526 26.7727 17.5708 26.7277 17.5708 26.5928C17.6602 26.188 17.7497 25.7382 17.7945 25.3333C18.1077 23.759 18.421 22.1847 18.7342 20.5655C19.0475 19.0361 19.316 17.5068 19.6292 15.9775C19.6739 15.7976 19.6292 15.7526 19.4502 15.7526C18.779 15.7526 18.063 15.7526 17.3918 15.7526C17.168 15.7526 17.168 15.7526 17.1233 15.9775C16.81 17.5518 16.4968 19.1261 16.2283 20.7004C15.8703 22.6345 15.4676 24.5687 15.1096 26.5028C15.0648 26.6827 15.1096 26.7277 15.2886 26.7277C15.6018 26.7727 15.9598 26.7727 16.3178 26.7727ZM23.9251 26.7727C24.2831 26.7727 24.5963 26.7727 24.9543 26.7727C25.0886 26.7727 25.1333 26.7277 25.1781 26.5928C25.3571 25.6032 25.536 24.6586 25.7598 23.6691C26.252 21.1052 26.7443 18.5414 27.2365 16.0225C27.2813 15.8426 27.1918 15.7526 27.0128 15.7526C26.3415 15.7526 25.6255 15.7526 24.9543 15.7526C24.8201 15.7526 24.7753 15.7976 24.7306 15.9325C24.6411 16.4723 24.5068 16.9671 24.4173 17.5068C24.1488 18.9912 23.8356 20.4755 23.5671 21.9598C23.2539 23.4892 22.9854 25.0185 22.6721 26.5028C22.6274 26.6827 22.7169 26.7727 22.8959 26.7727C23.2539 26.7727 23.6118 26.7727 23.9251 26.7727ZM14.4831 15.7526C14.1698 15.7526 13.8118 15.7526 13.4986 15.7526C13.3644 15.7526 13.3196 15.7976 13.2749 15.9325C12.9616 17.4618 12.6931 18.9912 12.3799 20.5655C11.9771 22.5446 11.6192 24.5687 11.2164 26.5478C11.1717 26.7277 11.2164 26.7727 11.3954 26.7727C12.0219 26.7727 12.6931 26.7727 13.3196 26.7727C13.4986 26.7727 13.5434 26.7727 13.5434 26.5928C13.8118 25.1984 14.0803 23.804 14.3488 22.4096C14.7516 20.2956 15.1543 18.1365 15.6018 16.0225C15.6466 15.8875 15.5571 15.7976 15.4228 15.7976C15.1543 15.7526 14.7963 15.7526 14.4831 15.7526ZM6.33879 15.7526C6.02555 15.7526 5.66756 15.7526 5.35431 15.7526C5.22007 15.7526 5.17532 15.7976 5.13057 15.9325C4.86208 17.3269 4.59358 18.6763 4.32509 20.0707C4.0566 21.3301 3.83285 22.6345 3.56436 23.894C3.38536 24.7936 3.20637 25.6932 3.02737 26.5478C2.98262 26.6827 3.07212 26.7727 3.20637 26.7727C3.8776 26.7727 4.54883 26.7727 5.17532 26.7727C5.30957 26.7727 5.35431 26.7277 5.35431 26.6378C5.39906 26.4129 5.44381 26.2329 5.48856 26.008C5.84655 24.2088 6.15979 22.4546 6.51778 20.6554C6.83103 19.0811 7.09952 17.5518 7.41276 15.9775C7.45751 15.8426 7.41276 15.7526 7.23377 15.7526C7.01002 15.7526 6.69678 15.7526 6.33879 15.7526ZM6.78628 14.0884C7.14427 14.0884 7.50226 14.0884 7.86025 14.0884C7.9945 14.0884 8.03925 14.0434 8.03925 13.9534C8.26299 12.694 8.53148 11.4345 8.75523 10.1751C8.97897 8.96064 9.24747 7.74619 9.47121 6.53173C9.51596 6.21687 9.60546 5.90201 9.6502 5.58715C9.69495 5.45221 9.60546 5.36225 9.47121 5.36225C8.75523 5.36225 7.9945 5.36225 7.27851 5.36225C7.18902 5.36225 7.14427 5.40723 7.09952 5.49719C7.09952 5.58715 7.05477 5.67711 7.05477 5.81205C6.78628 7.29639 6.47304 8.78072 6.20454 10.2651C5.9808 11.4795 5.75705 12.694 5.48856 13.9084C5.44381 14.0884 5.48856 14.1333 5.66756 14.1333C6.0703 14.0884 6.42829 14.0884 6.78628 14.0884ZM8.57623 4.95743C9.8292 4.95743 11.0374 4.95743 12.2904 4.95743C12.4694 4.95743 12.4694 4.95743 12.5141 4.77751C12.6036 4.28273 12.6931 3.83293 12.7826 3.33815C12.8274 3.11325 12.7826 3.06827 12.5589 3.06827C11.3507 3.06827 10.1424 3.06827 8.93422 3.06827C7.68126 3.06827 6.42829 3.06827 5.17532 3.06827C4.99632 3.06827 4.99632 3.11325 4.95157 3.24819C4.86208 3.74297 4.77258 4.23775 4.68308 4.68755C4.63833 4.86747 4.68308 4.91245 4.86208 4.91245C6.11504 4.95743 7.32326 4.95743 8.57623 4.95743ZM19.6292 26.7727C20.1214 26.7727 20.5689 26.7727 21.0612 26.7727C21.1954 26.7727 21.2402 26.7277 21.2849 26.5928C21.3744 26.098 21.4639 25.6032 21.5981 25.0635C21.6429 24.9285 21.5534 24.8386 21.4192 24.8386C20.4347 24.8386 19.495 24.8386 18.5105 24.8386C18.3762 24.8386 18.3315 24.8835 18.3315 25.0185C18.242 25.5133 18.1525 26.008 18.0182 26.5478C17.9735 26.7277 18.0182 26.7727 18.1972 26.7727C18.6447 26.7727 19.137 26.7727 19.6292 26.7727ZM34.7096 4.95743C35.2018 4.95743 35.6493 4.95743 36.1415 4.95743C36.2758 4.95743 36.3205 4.91245 36.3653 4.77751C36.4548 4.28273 36.5443 3.83293 36.6338 3.33815C36.6785 3.15823 36.6338 3.11325 36.4548 3.11325C35.515 3.11325 34.5306 3.11325 33.5908 3.11325C33.4566 3.11325 33.4118 3.15823 33.3671 3.29317C33.2776 3.78795 33.1881 4.23775 33.0986 4.73253C33.0539 4.91245 33.0986 4.95743 33.2776 4.95743C33.7251 4.95743 34.2173 4.95743 34.7096 4.95743ZM21.3744 17.5968C21.8666 17.5968 22.3141 17.5968 22.8064 17.5968C22.9854 17.5968 23.0301 17.5518 23.0301 17.4169C23.1196 16.9221 23.2091 16.4723 23.2986 15.9775C23.3434 15.7976 23.2539 15.7526 23.1196 15.7526C22.1351 15.7526 21.1954 15.7526 20.2109 15.7526C20.0767 15.7526 20.0319 15.7976 20.0319 15.9325C19.9424 16.4273 19.8529 16.8771 19.7634 17.3719C19.7187 17.5518 19.8082 17.5968 19.9424 17.5968C20.4347 17.5968 20.9269 17.5968 21.3744 17.5968ZM27.505 4.95743C27.9972 4.95743 28.4895 4.95743 28.9817 4.95743C29.116 4.95743 29.1607 4.91245 29.1607 4.77751C29.2502 4.28273 29.3397 3.83293 29.4292 3.33815C29.4739 3.15823 29.4292 3.06827 29.2055 3.06827C28.2657 3.06827 27.326 3.06827 26.3415 3.06827C26.1625 3.06827 26.1178 3.11325 26.1178 3.24819C26.0283 3.74297 25.9388 4.19277 25.8493 4.68755C25.8045 4.82249 25.894 4.91245 26.0283 4.91245C26.5653 4.95743 27.0575 4.95743 27.505 4.95743ZM20.4347 21.9598C20.8822 21.9598 21.3297 21.9598 21.8219 21.9598C21.9114 21.9598 22.0009 21.9149 22.0009 21.8249C22.0904 21.3301 22.1799 20.8353 22.2694 20.3406C22.3141 20.2056 22.2246 20.1157 22.0904 20.1157C21.1954 20.1157 20.3004 20.1157 19.4055 20.1157C19.2712 20.1157 19.2265 20.1606 19.1817 20.2956C19.0922 20.7904 19.0027 21.2402 18.9132 21.7349C18.8685 21.8699 18.958 21.9598 19.0922 21.9598C19.5397 21.9598 19.9872 21.9598 20.4347 21.9598Z" fill="black"/>
</svg>
