<svg width="18" height="17" viewBox="0 0 18 17" fill="none" xmlns="http://www.w3.org/2000/svg">
<path fill-rule="evenodd" clip-rule="evenodd" d="M0.279968 1.42027C0.279968 1.04359 0.429604 0.682343 0.695957 0.41599C0.962309 0.149637 1.32356 1.89342e-06 1.70024 1.89342e-06H15.8581C16.0448 -0.000302987 16.2297 0.0362141 16.4023 0.107463C16.5748 0.178711 16.7316 0.283291 16.8637 0.415216C16.9957 0.547141 17.1005 0.70382 17.1719 0.876282C17.2434 1.04874 17.2801 1.2336 17.28 1.42027V15.5782C17.2802 15.7649 17.2436 15.9498 17.1722 16.1224C17.1009 16.2949 16.9962 16.4517 16.8643 16.5837C16.7323 16.7158 16.5755 16.8205 16.403 16.892C16.2305 16.9634 16.0456 17.0001 15.8589 17H1.70024C1.51366 17 1.32891 16.9632 1.15655 16.8918C0.984182 16.8204 0.827578 16.7157 0.695683 16.5837C0.563789 16.4518 0.459188 16.2951 0.387858 16.1227C0.316529 15.9503 0.279867 15.7655 0.279968 15.579V1.42027ZM7.00888 6.48164H9.31083V7.63764C9.6431 6.97309 10.4931 6.375 11.7704 6.375C14.2192 6.375 14.7995 7.69868 14.7995 10.1274V14.6262H12.3214V10.6806C12.3214 9.29746 11.9891 8.517 11.1453 8.517C9.9746 8.517 9.48779 9.3585 9.48779 10.6806V14.6262H7.00888V6.48164ZM2.75888 14.5203H5.23779V6.375H2.75888V14.5195V14.5203ZM5.59247 3.71836C5.59714 3.93061 5.55937 4.14165 5.48138 4.33911C5.40339 4.53656 5.28674 4.71645 5.13828 4.86821C4.98983 5.01997 4.81255 5.14055 4.61687 5.22287C4.42118 5.30519 4.21102 5.3476 3.99872 5.3476C3.78642 5.3476 3.57626 5.30519 3.38057 5.22287C3.18488 5.14055 3.00761 5.01997 2.85915 4.86821C2.7107 4.71645 2.59405 4.53656 2.51606 4.33911C2.43806 4.14165 2.40029 3.93061 2.40497 3.71836C2.41414 3.30175 2.58608 2.90529 2.88397 2.6139C3.18186 2.3225 3.582 2.15932 3.99872 2.15932C4.41543 2.15932 4.81558 2.3225 5.11347 2.6139C5.41135 2.90529 5.58329 3.30175 5.59247 3.71836Z" fill="white"/>
</svg>
