<svg width="18" height="17" viewBox="0 0 18 17" fill="none" xmlns="http://www.w3.org/2000/svg">
<path d="M9.33774 5.66535C7.77697 5.66535 6.50325 6.93907 6.50325 8.49984C6.50325 10.0606 7.77697 11.3343 9.33774 11.3343C10.8985 11.3343 12.1722 10.0606 12.1722 8.49984C12.1722 6.93907 10.8985 5.66535 9.33774 5.66535ZM17.8391 8.49984C17.8391 7.32607 17.8497 6.16293 17.7838 4.99129C17.7179 3.63039 17.4074 2.4226 16.4123 1.42744C15.415 0.430165 14.2093 0.121837 12.8484 0.0559188C11.6747 -0.00999953 10.5115 0.000632484 9.33987 0.000632484C8.1661 0.000632484 7.00296 -0.00999953 5.83131 0.0559188C4.47042 0.121837 3.26263 0.432291 2.26747 1.42744C1.27019 2.42473 0.961864 3.63039 0.895946 4.99129C0.830027 6.16506 0.840659 7.3282 0.840659 8.49984C0.840659 9.67149 0.830027 10.8368 0.895946 12.0084C0.961864 13.3693 1.27232 14.5771 2.26747 15.5722C3.26475 16.5695 4.47042 16.8778 5.83131 16.9438C7.00508 17.0097 8.16822 16.9991 9.33987 16.9991C10.5136 16.9991 11.6768 17.0097 12.8484 16.9438C14.2093 16.8778 15.4171 16.5674 16.4123 15.5722C17.4095 14.575 17.7179 13.3693 17.7838 12.0084C17.8518 10.8368 17.8391 9.67361 17.8391 8.49984ZM9.33774 12.8611C6.92428 12.8611 4.9765 10.9133 4.9765 8.49984C4.9765 6.08638 6.92428 4.1386 9.33774 4.1386C11.7512 4.1386 13.699 6.08638 13.699 8.49984C13.699 10.9133 11.7512 12.8611 9.33774 12.8611ZM13.8776 4.97853C13.3141 4.97853 12.8591 4.52348 12.8591 3.95998C12.8591 3.39649 13.3141 2.94144 13.8776 2.94144C14.4411 2.94144 14.8961 3.39649 14.8961 3.95998C14.8963 4.09379 14.8701 4.22631 14.819 4.34996C14.7678 4.47361 14.6928 4.58596 14.5982 4.68058C14.5036 4.77519 14.3912 4.85021 14.2676 4.90134C14.1439 4.95247 14.0114 4.9787 13.8776 4.97853Z" fill="white"/>
</svg>
