<svg width="18" height="17" viewBox="0 0 18 17" fill="none" xmlns="http://www.w3.org/2000/svg">
<path d="M8.54004 0C3.84607 0 0.0400391 3.80603 0.0400391 8.5C0.0400391 13.194 3.84607 17 8.54004 17C13.234 17 17.04 13.194 17.04 8.5C17.04 3.80603 13.234 0 8.54004 0ZM12.625 6.40725C12.6307 6.49643 12.6307 6.5894 12.6307 6.68047C12.6307 9.46574 10.5095 12.6741 6.63323 12.6741C5.43792 12.6741 4.32988 12.3269 3.3964 11.7292C3.56716 11.7482 3.73033 11.7558 3.90488 11.7558C4.89149 11.7558 5.79841 11.4219 6.52129 10.8565C5.5954 10.8375 4.81749 10.2304 4.55187 9.39554C4.87631 9.44297 5.1685 9.44297 5.50243 9.35759C5.02568 9.26073 4.59717 9.00181 4.28969 8.62481C3.98221 8.24781 3.81473 7.77599 3.81571 7.28951V7.26295C4.09461 7.42042 4.42285 7.51719 4.76627 7.53047C4.47758 7.33807 4.24082 7.07741 4.07699 6.7716C3.91316 6.46579 3.82733 6.12427 3.82709 5.77734C3.82709 5.3846 3.92955 5.026 4.11359 4.71484C4.64276 5.36626 5.30308 5.89904 6.05164 6.27855C6.80019 6.65806 7.62023 6.8758 8.45845 6.91763C8.16057 5.48516 9.23066 4.32589 10.517 4.32589C11.1242 4.32589 11.6706 4.58013 12.0558 4.98996C12.532 4.90078 12.9874 4.72243 13.3934 4.48337C13.2359 4.97098 12.9058 5.3827 12.4675 5.64263C12.8925 5.5971 13.3023 5.47946 13.6818 5.3144C13.3953 5.7356 13.0367 6.10938 12.625 6.40725Z" fill="white"/>
</svg>
