<svg width="15" height="15" viewBox="0 0 15 15" fill="none" xmlns="http://www.w3.org/2000/svg">
<path d="M0.305958 13.0167C-0.0900258 13.4126 -0.0900257 14.0547 0.305958 14.4506C0.701941 14.8466 1.34396 14.8466 1.73994 14.4506L0.305958 13.0167ZM14.4648 1.30579C14.4648 0.745783 14.0108 0.291809 13.4508 0.291809L4.32499 0.29181C3.76498 0.29181 3.31101 0.745785 3.31101 1.30579C3.31101 1.86579 3.76498 2.31977 4.32499 2.31977L12.4368 2.31977L12.4368 10.4316C12.4368 10.9916 12.8908 11.4456 13.4508 11.4456C14.0108 11.4456 14.4648 10.9916 14.4648 10.4316L14.4648 1.30579ZM1.73994 14.4506L14.1678 2.02278L12.7338 0.588797L0.305958 13.0167L1.73994 14.4506Z" fill="white"/>
</svg>
