<svg width="69" height="47" viewBox="0 0 69 47" fill="none" xmlns="http://www.w3.org/2000/svg">
<g style="mix-blend-mode:multiply" opacity="0.68">
<g style="mix-blend-mode:multiply" opacity="0.68">
<path d="M65.0205 9.78125H26.0488C24.0616 9.78125 22.4509 11.3919 22.4509 13.3791V35.1747C22.4509 37.1619 24.0616 38.7725 26.0488 38.7725H41.6894C43.183 38.7725 44.389 40.0244 44.314 41.5332C44.244 42.9441 43.0265 44.028 41.613 44.028H37.5483C36.8766 44.028 36.2672 44.3003 35.827 44.7418C35.3868 45.1819 35.1146 45.7901 35.1146 46.4631H55.8313C56.1672 46.4631 56.4713 46.3269 56.6913 46.1056C56.9114 45.8855 57.0476 45.5814 57.0476 45.2455C57.0476 44.5738 56.5031 44.028 55.8313 44.028H45.9857C46.4831 43.238 46.7668 42.308 46.7503 41.3144C46.735 40.3844 46.4678 39.5155 46.0136 38.7725H65.0205C67.0077 38.7725 68.6184 37.1619 68.6184 35.1747V13.3791C68.6184 11.3919 67.0077 9.78125 65.0205 9.78125ZM24.8847 15.6144V13.3791C24.8847 12.7366 25.4063 12.215 26.0488 12.215H65.0205C65.663 12.215 66.1846 12.7366 66.1846 13.3791V15.6144H24.8847Z" fill="#1492FF"/>
</g>
</g>
<g style="mix-blend-mode:multiply" opacity="0.68">
<path d="M19.9362 38.6812C30.5214 38.6812 39.1024 30.1001 39.1024 19.5149C39.1024 8.92966 30.5214 0.348633 19.9362 0.348633C9.35093 0.348633 0.769897 8.92966 0.769897 19.5149C0.769897 30.1001 9.35093 38.6812 19.9362 38.6812Z" fill="#97FFFA"/>
</g>
</svg>
